<svg width="41" height="20" viewBox="0 0 41 20" fill="none" xmlns="http://www.w3.org/2000/svg">
<path d="M18.4963 16.881V15.8796V14.878H17.4948V13.8765H16.4932V12.8749H15.4918V11.8691H14.4901H13.4885H12.4869V12.8749H11.4854H10.4838V12.8787H9.47907H8.4775H7.47593V11.8729H6.47437H5.4728H4.47123V12.8787H3.46967V13.8803H2.4681V14.8816H1.46653V15.8832V16.8848H0.46286V17.8865V18.8879V19.8918H1.46653H2.4681H3.46967H4.47123H5.4728H6.47437H7.47593H8.4775H9.47907H10.4867V19.888H11.4854H12.4869H13.4885H14.4901H15.4918H16.4932H17.4948H18.4963H19.5V18.8843V17.8828V16.881H18.4963Z" fill="#1C1372"/>
<path d="M14.4901 3.85312V2.85177H13.4885V1.84999H12.4869V0.848633H11.4854H10.4838V0.85221H9.47613H8.47435H7.47278V1.85378H6.47121V2.85534H5.46986V3.85691H4.46808V4.85848V5.86005V6.86161V7.86318H5.46986V8.86475H6.47121V9.86631H7.47278V10.87H8.47435H9.47613H10.4838V10.8662H11.4854H12.4869V9.86253H13.4885V8.86117H14.4901V7.85939H15.4918V6.85804V5.85626V4.8549V3.85312H14.4901Z" fill="#1C1372"/>
<path d="M39.5335 16.881V15.8796V14.878H38.5319V13.8765H37.5303V12.8749H36.529V11.8691H35.5272H34.5256H33.5241V12.8749H32.5225H31.5209V12.8787H30.5162H29.5146H28.5131V11.8729H27.5115H26.5099H25.5084V12.8787H24.5068V13.8803H23.5052V14.8816H22.5037V15.8832V16.8848H21.5V17.8865V18.8879V19.8918H22.5037H23.5052H24.5068H25.5084H26.5099H27.5115H28.5131H29.5146H30.5162H31.5239V19.888H32.5225H33.5241H34.5256H35.5272H36.529H37.5303H38.5319H39.5335H40.5371V18.8843V17.8828V16.881H39.5335Z" fill="#1C1372"/>
<path d="M35.5272 3.85312V2.85177H34.5256V1.84999H33.5241V0.848633H32.5225H31.5209V0.85221H30.5133H29.5115H28.5099V1.85378H27.5084V2.85534H26.507V3.85691H25.5052V4.85848V5.86005V6.86161V7.86318H26.507V8.86475H27.5084V9.86631H28.5099V10.87H29.5115H30.5133H31.5209V10.8662H32.5225H33.5241V9.86253H34.5256V8.86117H35.5272V7.85939H36.529V6.85804V5.85626V4.8549V3.85312H35.5272Z" fill="#1C1372"/>
</svg>
