<svg width="63" height="20" viewBox="0 0 63 20" fill="none" xmlns="http://www.w3.org/2000/svg">
<path d="M18.9778 16.5206V15.5193V14.5177H17.9762V13.5161H16.9746V12.5146H15.9733V11.5088H14.9715H13.9699H12.9684V12.5146H11.9668H10.9652V12.5184H9.9605H8.95893H7.95737V11.5126H6.9558H5.95423H4.95266V12.5184H3.9511V13.5199H2.94953V14.5213H1.94796V15.5228V16.5244H0.94429V17.5262V18.5275V19.5314H1.94796H2.94953H3.9511H4.95266H5.95423H6.9558H7.95737H8.95893H9.9605H10.9682V19.5276H11.9668H12.9684H13.9699H14.9715H15.9733H16.9746H17.9762H18.9778H19.9814V18.524V17.5224V16.5206H18.9778Z" fill="#28226B"/>
<path d="M14.9715 3.49277V2.49142H13.9699V1.48964H12.9684V0.488281H11.9668H10.9652V0.491858H9.95756H8.95578H7.95421V1.49343H6.95264V2.49499H5.95129V3.49656H4.94951V4.49813V5.49969V6.50126V7.50283H5.95129V8.5044H6.95264V9.50596H7.95421V10.5096H8.95578H9.95756H10.9652V10.5058H11.9668H12.9684V9.50218H13.9699V8.50082H14.9715V7.49904H15.9733V6.49768V5.49591V4.49455V3.49277H14.9715Z" fill="#28226B"/>
<path d="M40.0149 16.5206V15.5193V14.5177H39.0133V13.5161H38.0118V12.5146H37.0104V11.5088H36.0086H35.0071H34.0055V12.5146H33.0039H32.0024V12.5184H30.9976H29.9961H28.9945V11.5126H27.9929H26.9914H25.9898V12.5184H24.9882V13.5199H23.9867V14.5213H22.9851V15.5228V16.5244H21.9814V17.5262V18.5275V19.5314H22.9851H23.9867H24.9882H25.9898H26.9914H27.9929H28.9945H29.9961H30.9976H32.0053V19.5276H33.0039H34.0055H35.0071H36.0086H37.0104H38.0118H39.0133H40.0149H41.0186V18.524V17.5224V16.5206H40.0149Z" fill="#28226B"/>
<path d="M36.0086 3.49277V2.49142H35.0071V1.48964H34.0055V0.488281H33.0039H32.0024V0.491858H30.9947H29.9929H28.9914V1.49343H27.9898V2.49499H26.9884V3.49656H25.9866V4.49813V5.49969V6.50126V7.50283H26.9884V8.5044H27.9898V9.50596H28.9914V10.5096H29.9929H30.9947H32.0024V10.5058H33.0039H34.0055V9.50218H35.0071V8.50082H36.0086V7.49904H37.0104V6.49768V5.49591V4.49455V3.49277H36.0086Z" fill="#28226B"/>
<path d="M61.0521 16.5206V15.5193V14.5177H60.0505V13.5161H59.0489V12.5146H58.0476V11.5088H57.0458H56.0442H55.0426V12.5146H54.0411H53.0395V12.5184H52.0348H51.0332H50.0317V11.5126H49.0301H48.0285H47.027V12.5184H46.0254V13.5199H45.0238V14.5213H44.0222V15.5228V16.5244H43.0186V17.5262V18.5275V19.5314H44.0222H45.0238H46.0254H47.027H48.0285H49.0301H50.0317H51.0332H52.0348H53.0425V19.5276H54.0411H55.0426H56.0442H57.0458H58.0476H59.0489H60.0505H61.0521H62.0557V18.524V17.5224V16.5206H61.0521Z" fill="#28226B"/>
<path d="M57.0458 3.49277V2.49142H56.0442V1.48964H55.0426V0.488281H54.0411H53.0395V0.491858H52.0318H51.0301H50.0285V1.49343H49.0269V2.49499H48.0256V3.49656H47.0238V4.49813V5.49969V6.50126V7.50283H48.0256V8.5044H49.0269V9.50596H50.0285V10.5096H51.0301H52.0318H53.0395V10.5058H54.0411H55.0426V9.50218H56.0442V8.50082H57.0458V7.49904H58.0476V6.49768V5.49591V4.49455V3.49277H57.0458Z" fill="#28226B"/>
</svg>
