<svg width="83" height="20" viewBox="0 0 83 20" fill="none" xmlns="http://www.w3.org/2000/svg">
<path d="M18.4592 16.1603V15.1589V14.1573H17.4576V13.1558H16.4561V12.1542H15.4547V11.1484H14.4529H13.4514H12.4498V12.1542H11.4482H10.4467V12.158H9.44193H8.44036H7.4388V11.1522H6.43723H5.43566H4.43409V12.158H3.43253V13.1596H2.43096V14.1609H1.42939V15.1625V16.1641H0.42572V17.1658V18.1672V19.1711H1.42939H2.43096H3.43253H4.43409H5.43566H6.43723H7.4388H8.44036H9.44193H10.4496V19.1673H11.4482H12.4498H13.4514H14.4529H15.4547H16.4561H17.4576H18.4592H19.4629V18.1636V17.1621V16.1603H18.4592Z" fill="#1C1372"/>
<path d="M14.4529 3.13242V2.13106H13.4514V1.12929H12.4498V0.12793H11.4482H10.4467V0.131507H9.43899H8.43721H7.43564V1.13307H6.43407V2.13464H5.43272V3.13621H4.43094V4.13778V5.13934V6.14091V7.14248H5.43272V8.14404H6.43407V9.14561H7.43564V10.1493H8.43721H9.43899H10.4467V10.1455H11.4482H12.4498V9.14182H13.4514V8.14047H14.4529V7.13869H15.4547V6.13733V5.13556V4.1342V3.13242H14.4529Z" fill="#1C1372"/>
<path d="M39.4963 16.1603V15.1589V14.1573H38.4948V13.1558H37.4932V12.1542H36.4918V11.1484H35.4901H34.4885H33.4869V12.1542H32.4854H31.4838V12.158H30.4791H29.4775H28.4759V11.1522H27.4744H26.4728H25.4712V12.158H24.4697V13.1596H23.4681V14.1609H22.4665V15.1625V16.1641H21.4629V17.1658V18.1672V19.1711H22.4665H23.4681H24.4697H25.4712H26.4728H27.4744H28.4759H29.4775H30.4791H31.4867V19.1673H32.4854H33.4869H34.4885H35.4901H36.4918H37.4932H38.4948H39.4963H40.5V18.1636V17.1621V16.1603H39.4963Z" fill="#1C1372"/>
<path d="M35.4901 3.13242V2.13106H34.4885V1.12929H33.4869V0.12793H32.4854H31.4838V0.131507H30.4761H29.4743H28.4728V1.13307H27.4712V2.13464H26.4699V3.13621H25.4681V4.13778V5.13934V6.14091V7.14248H26.4699V8.14404H27.4712V9.14561H28.4728V10.1493H29.4743H30.4761H31.4838V10.1455H32.4854H33.4869V9.14182H34.4885V8.14047H35.4901V7.13869H36.4918V6.13733V5.13556V4.1342V3.13242H35.4901Z" fill="#1C1372"/>
<path d="M60.5335 16.1603V15.1589V14.1573H59.5319V13.1558H58.5303V12.1542H57.529V11.1484H56.5272H55.5256H54.5241V12.1542H53.5225H52.5209V12.158H51.5162H50.5147H49.5131V11.1522H48.5115H47.5099H46.5084V12.158H45.5068V13.1596H44.5052V14.1609H43.5037V15.1625V16.1641H42.5V17.1658V18.1672V19.1711H43.5037H44.5052H45.5068H46.5084H47.5099H48.5115H49.5131H50.5147H51.5162H52.5239V19.1673H53.5225H54.5241H55.5256H56.5272H57.529H58.5303H59.5319H60.5335H61.5372V18.1636V17.1621V16.1603H60.5335Z" fill="#1C1372"/>
<path d="M56.5272 3.13242V2.13106H55.5256V1.12929H54.5241V0.12793H53.5225H52.5209V0.131507H51.5133H50.5115H49.5099V1.13307H48.5084V2.13464H47.507V3.13621H46.5052V4.13778V5.13934V6.14091V7.14248H47.507V8.14404H48.5084V9.14561H49.5099V10.1493H50.5115H51.5133H52.5209V10.1455H53.5225H54.5241V9.14182H55.5256V8.14047H56.5272V7.13869H57.529V6.13733V5.13556V4.1342V3.13242H56.5272Z" fill="#1C1372"/>
<path d="M81.5706 16.1603V15.1589V14.1573H80.5691V13.1558H79.5675V12.1542H78.5661V11.1484H77.5644H76.5628H75.5612V12.1542H74.5597H73.5581V12.158H72.5534H71.5518H70.5502V11.1522H69.5487H68.5471H67.5455V12.158H66.544V13.1596H65.5424V14.1609H64.5408V15.1625V16.1641H63.5372V17.1658V18.1672V19.1711H64.5408H65.5424H66.544H67.5455H68.5471H69.5487H70.5502H71.5518H72.5534H73.561V19.1673H74.5597H75.5612H76.5628H77.5644H78.5661H79.5675H80.5691H81.5706H82.5743V18.1636V17.1621V16.1603H81.5706Z" fill="#1C1372"/>
<path d="M77.5644 3.13242V2.13106H76.5628V1.12929H75.5612V0.12793H74.5596H73.5581V0.131507H72.5504H71.5486H70.5471V1.13307H69.5455V2.13464H68.5441V3.13621H67.5424V4.13778V5.13934V6.14091V7.14248H68.5441V8.14404H69.5455V9.14561H70.5471V10.1493H71.5486H72.5504H73.5581V10.1455H74.5596H75.5612V9.14182H76.5628V8.14047H77.5644V7.13869H78.5661V6.13733V5.13556V4.1342V3.13242H77.5644Z" fill="#1C1372"/>
</svg>
