<svg width="103" height="40" viewBox="0 0 103 40" fill="none" xmlns="http://www.w3.org/2000/svg">
<g clip-path="url(#clip0_274_21096)">
<path d="M21.6844 13.1573L21.1187 12.5872V12.4892H19.0844C18.7059 12.4892 18.3994 12.1847 18.3994 11.8088V4.22207C18.3994 4.04226 18.3274 3.86859 18.1979 3.7419L16.8547 2.40765V2.30957H13.5677C13.1892 2.30957 12.8827 2.61402 12.8827 2.98998V15.6011H12.9814L14.3267 16.919C14.4542 17.0436 14.627 17.1151 14.808 17.1151H21.958C22.3364 17.1151 22.6429 16.8107 22.6429 16.4347V14.4037C22.6429 14.2239 22.5709 14.0523 22.4455 13.9256L21.6844 13.1594V13.1573ZM19.5534 14.7245H14.448C14.0696 14.7245 13.7631 14.4201 13.7631 14.0441V3.86246C13.7631 3.48649 14.0696 3.18205 14.448 3.18205H15.2893C15.6678 3.18205 15.9743 3.48649 15.9743 3.86246V12.6833C15.9743 13.0592 16.2808 13.3637 16.6593 13.3637H19.5534C19.9319 13.3637 20.2383 13.6681 20.2383 14.0441C20.2383 14.4201 19.9319 14.7245 19.5534 14.7245Z" fill="#28226B"/>
<path d="M24.776 8.3721V10.5073C24.776 10.7117 24.9426 10.8772 25.1483 10.8772H26.4565C26.6622 10.8772 26.8288 10.7117 26.8288 10.5073V8.3721C26.8288 8.16777 26.6622 8.00227 26.4565 8.00227H25.1483C24.9426 8.00227 24.776 8.16777 24.776 8.3721ZM24.776 8.3721V10.5073C24.776 10.7117 24.9426 10.8772 25.1483 10.8772H26.4565C26.6622 10.8772 26.8288 10.7117 26.8288 10.5073V8.3721C26.8288 8.16777 26.6622 8.00227 26.4565 8.00227H25.1483C24.9426 8.00227 24.776 8.16777 24.776 8.3721ZM31.0723 7.00924L29.9184 5.865V5.74854H22.898C22.6923 5.74854 22.5257 5.91404 22.5257 6.11837V6.23279C22.5257 6.43712 22.3591 6.60263 22.1534 6.60263H22.0567C21.851 6.60263 21.6844 6.76813 21.6844 6.97246V14.8023H21.7831L22.6429 15.6441L23.2189 16.2101C23.2888 16.2775 23.3834 16.3164 23.4801 16.3164H23.9594C24.0561 16.3164 24.1466 16.3531 24.2165 16.4185L24.9015 17.0703C24.9714 17.1357 25.064 17.1725 25.1586 17.1725H31.0703C31.2759 17.1725 31.4426 17.007 31.4426 16.8027V14.3078C31.4426 14.2138 31.4055 14.1219 31.3397 14.0524L31.0703 13.7704C31.2759 13.7704 31.4426 13.6049 31.4426 13.4006V7.53027C31.4426 7.43219 31.4035 7.3382 31.3335 7.26873L31.0703 7.00719L31.0723 7.00924ZM28.6677 11.3818H28.5711C28.3654 11.3818 28.1987 11.5473 28.1987 11.7517V11.8477C28.1987 12.052 28.0321 12.2175 27.8264 12.2175H25.1483C24.9426 12.2175 24.776 12.383 24.776 12.5874V13.0512C24.776 13.2555 24.9426 13.421 25.1483 13.421H28.6677C28.8734 13.421 29.04 13.5865 29.04 13.7909V14.412C29.04 14.6163 28.8734 14.7819 28.6677 14.7819H23.7784C23.5727 14.7819 23.4061 14.6163 23.4061 14.412V14.2976C23.4061 14.0933 23.2394 13.9278 23.0337 13.9278H22.9371C22.7314 13.9278 22.5648 13.7623 22.5648 13.5579V7.84698C22.5648 7.64265 22.7314 7.47715 22.9371 7.47715H23.0337C23.2394 7.47715 23.4061 7.31164 23.4061 7.10731V6.99085C23.4061 6.78652 23.5727 6.62101 23.7784 6.62101H28.6677C28.8734 6.62101 29.04 6.78652 29.04 6.99085V11.012C29.04 11.2163 28.8734 11.3818 28.6677 11.3818ZM26.4565 8.00227H25.1483C24.9426 8.00227 24.776 8.16777 24.776 8.3721V10.5073C24.776 10.7117 24.9426 10.8772 25.1483 10.8772H26.4565C26.6622 10.8772 26.8288 10.7117 26.8288 10.5073V8.3721C26.8288 8.16777 26.6622 8.00227 26.4565 8.00227Z" fill="#28226B"/>
<path d="M40.8324 7.52823C40.8324 7.43219 40.7934 7.34025 40.7255 7.27282L39.3062 5.865V5.74854H32.2776C32.076 5.74854 31.9135 5.90995 31.9135 6.1102V6.24097C31.9135 6.44121 31.751 6.60263 31.5494 6.60263H31.4363C31.2347 6.60263 31.0722 6.76405 31.0722 6.96429V11.4023H31.1709L31.4445 11.674L31.7037 11.9315C31.932 12.1583 31.7716 12.5486 31.4466 12.5486H31.4363C31.2347 12.5486 31.0722 12.71 31.0722 12.9102V15.6564H31.1709L31.4445 15.924L32.6087 17.0683C32.6766 17.1357 32.7692 17.1725 32.8638 17.1725H39.625C39.8266 17.1725 39.9891 17.0111 39.9891 16.8108V16.678C39.9891 16.4778 40.1516 16.3164 40.3532 16.3164H40.4663C40.6679 16.3164 40.8304 16.1549 40.8304 15.9547V11.7823C40.8304 11.6883 40.7934 11.5964 40.7255 11.529L40.2071 11.0059C39.9809 10.777 40.1434 10.3909 40.4663 10.3909C40.6679 10.3909 40.8304 10.2294 40.8304 10.0292V7.52823H40.8324ZM38.0638 8.00227H34.5279C34.3263 8.00227 34.1638 8.16369 34.1638 8.36393V9.65937C34.1638 9.85961 34.3263 10.021 34.5279 10.021H37.2225C37.4241 10.021 37.5866 10.1824 37.5866 10.3827V10.5155C37.5866 10.7157 37.7491 10.8772 37.9506 10.8772H38.0638C38.2654 10.8772 38.4279 11.0386 38.4279 11.2388V13.5661C38.4279 13.7663 38.2654 13.9278 38.0638 13.9278H37.9506C37.7491 13.9278 37.5866 14.0892 37.5866 14.2894V14.4202C37.5866 14.6204 37.4241 14.7819 37.2225 14.7819H32.3167C32.1151 14.7819 31.9526 14.6204 31.9526 14.4202V13.7827C31.9526 13.5825 32.1151 13.421 32.3167 13.421H35.8526C36.0541 13.421 36.2166 13.2596 36.2166 13.0594V11.7435C36.2166 11.5433 36.0541 11.3818 35.8526 11.3818H33.158C32.9564 11.3818 32.7939 11.2204 32.7939 11.0202V10.8894C32.7939 10.6892 32.6314 10.5278 32.4298 10.5278H32.3167C32.1151 10.5278 31.9526 10.3663 31.9526 10.1661V7.83881C31.9526 7.63857 32.1151 7.47715 32.3167 7.47715H32.4298C32.6314 7.47715 32.7939 7.31573 32.7939 7.11549V6.98267C32.7939 6.78243 32.9564 6.62101 33.158 6.62101H38.0638C38.2654 6.62101 38.4279 6.78243 38.4279 6.98267V7.64061C38.4279 7.84085 38.2654 8.00227 38.0638 8.00227Z" fill="#28226B"/>
<path d="M59.7463 8.19606L57.3787 5.84425V5.72779H54.8631C54.7602 5.72779 54.6595 5.68692 54.5875 5.61337L53.9786 5.00855V4.89209H46.9747C46.7587 4.89209 46.5839 5.06577 46.5839 5.28031V15.6377H46.6826L48.0937 17.0373C48.1677 17.1109 48.2664 17.1517 48.3693 17.1517H51.6872C51.9031 17.1517 52.078 16.9781 52.078 16.7635L52.3557 17.0394C52.4297 17.1109 52.5284 17.1517 52.6313 17.1517H59.374C59.59 17.1517 59.7648 16.9781 59.7648 16.7635V8.21445L59.7463 8.19606ZM56.9488 14.7631H55.5213C55.3053 14.7631 55.1305 14.5895 55.1305 14.3749V8.36974C55.1305 8.1552 54.9557 7.98152 54.7397 7.98152H54.3283C54.1123 7.98152 53.9375 8.1552 53.9375 8.36974V14.3749C53.9375 14.5895 53.7626 14.7631 53.5466 14.7631H52.0985C51.8826 14.7631 51.7077 14.5895 51.7077 14.3749V7.51565C51.7077 7.30111 51.5329 7.12743 51.3169 7.12743H50.0642C49.8482 7.12743 49.6734 7.30111 49.6734 7.51565V14.3749C49.6734 14.5895 49.4986 14.7631 49.2826 14.7631H47.853C47.637 14.7631 47.4622 14.5895 47.4622 14.3749V6.15483C47.4622 5.94029 47.637 5.76661 47.853 5.76661H52.7053C52.9213 5.76661 53.0962 5.94029 53.0962 6.15483V6.21409C53.0962 6.42863 53.271 6.60231 53.487 6.60231H56.1075C56.3235 6.60231 56.4984 6.77599 56.4984 6.99053V7.08861C56.4984 7.30315 56.6732 7.47683 56.8892 7.47683H56.9488C57.1648 7.47683 57.3397 7.65051 57.3397 7.86505V14.3749C57.3397 14.5895 57.1648 14.7631 56.9488 14.7631Z" fill="#28226B"/>
<path d="M63.7345 1.5512V1.45312H60.861C60.2459 1.45312 59.7461 1.94964 59.7461 2.56058V15.5783H59.8633L61.0605 16.7695C61.2703 16.9779 61.5542 17.0944 61.8504 17.0944H64.1459C64.7609 17.0944 65.2608 16.5979 65.2608 15.9869V3.54135C65.2608 3.24916 65.1456 2.97128 64.9399 2.76286L63.7345 1.5512ZM62.128 14.7038H61.4246C60.9823 14.7038 60.6244 14.3482 60.6244 13.9089V8.17958C60.6244 7.75867 60.9679 7.4154 61.3937 7.4154H62.1898C62.5579 7.4154 62.8562 7.71167 62.8562 8.07742V13.9804C62.8562 14.3789 62.5312 14.7017 62.1301 14.7017L62.128 14.7038ZM62.2391 6.23234H61.2312C60.8959 6.23234 60.6244 5.96263 60.6244 5.62958V2.94267C60.6244 2.60349 60.9021 2.32765 61.2436 2.32765H62.27C62.5929 2.32765 62.8541 2.58714 62.8541 2.90794V5.6214C62.8541 5.95854 62.5785 6.23234 62.2391 6.23234Z" fill="#28226B"/>
<path d="M74.4144 7.97979L72.3019 5.865V5.74854H65.3001C65.0841 5.74854 64.9092 5.92222 64.9092 6.13676V15.6564H65.0059L65.261 15.9077L66.4355 17.0601C66.5096 17.1316 66.6083 17.1725 66.7091 17.1725H70.031C70.247 17.1725 70.4219 16.9988 70.4219 16.7843L70.679 17.0519C70.753 17.1296 70.8559 17.1725 70.9628 17.1725H74.2786C74.4946 17.1725 74.6695 16.9988 74.6695 16.7843V8.39458C74.6695 8.29241 74.6283 8.19434 74.5563 8.12078L74.4144 7.97979ZM71.872 14.7819H70.4445C70.2285 14.7819 70.0537 14.6082 70.0537 14.3936V8.39049C70.0537 8.17594 69.8788 8.00227 69.6629 8.00227H68.3896C68.1736 8.00227 67.9988 8.17594 67.9988 8.39049V14.3936C67.9988 14.6082 67.8239 14.7819 67.608 14.7819H66.1804C65.9645 14.7819 65.7896 14.6082 65.7896 14.3936V7.00924C65.7896 6.79469 65.9645 6.62101 66.1804 6.62101H71.0307C71.2467 6.62101 71.4215 6.79469 71.4215 7.00924V7.08893C71.4215 7.30347 71.5964 7.47715 71.8124 7.47715H71.872C72.088 7.47715 72.2628 7.65083 72.2628 7.86537V14.3936C72.2628 14.6082 72.088 14.7819 71.872 14.7819Z" fill="#28226B"/>
<path d="M78.4047 1.5512V1.45312H75.5291C74.9141 1.45312 74.4142 1.94964 74.4142 2.56058V15.5783H74.5315L75.7307 16.7695C75.9405 16.9779 76.2244 17.0944 76.5185 17.0944H78.812C79.427 17.0944 79.9269 16.5979 79.9269 15.9869V3.53931C79.9269 3.24916 79.8117 2.96923 79.606 2.76082L78.4027 1.54916L78.4047 1.5512ZM76.7756 14.7038H76.1009C75.6546 14.7038 75.2946 14.3441 75.2946 13.9028V8.07129C75.2946 7.70963 75.5888 7.41744 75.9528 7.41744H76.7571C77.1808 7.41744 77.5244 7.75867 77.5244 8.17958V13.96C77.5244 14.3707 77.1891 14.7038 76.7756 14.7038ZM76.9073 6.23234H75.9775C75.6011 6.23234 75.2946 5.92789 75.2946 5.55397V2.9631C75.2946 2.61166 75.5805 2.32765 75.9343 2.32765H76.8805C77.2364 2.32765 77.5244 2.6137 77.5244 2.96719V5.61936C77.5244 5.9565 77.2487 6.23234 76.9073 6.23234Z" fill="#28226B"/>
<path d="M89.3374 7.52823C89.3374 7.43219 89.2984 7.34025 89.2305 7.27282L87.8112 5.865V5.74854H80.7826C80.581 5.74854 80.4185 5.90995 80.4185 6.1102V6.24097C80.4185 6.44121 80.256 6.60263 80.0544 6.60263H79.9413C79.7397 6.60263 79.5772 6.76405 79.5772 6.96429V11.4023H79.6759L80.2087 11.9315C80.437 12.1583 80.2766 12.5486 79.9516 12.5486H79.9413C79.7397 12.5486 79.5772 12.71 79.5772 12.9102V15.6564H79.6759L79.9289 15.9057L81.1138 17.0683C81.1816 17.1357 81.2742 17.1725 81.3688 17.1725H88.1321C88.3336 17.1725 88.4962 17.0111 88.4962 16.8108V16.678C88.4962 16.4778 88.6586 16.3164 88.8602 16.3164H88.9734C89.1749 16.3164 89.3374 16.1549 89.3374 15.9547V11.7823C89.3374 11.6883 89.3004 11.5964 89.2325 11.529L88.7142 11.0059C88.4879 10.777 88.6504 10.3909 88.9734 10.3909C89.1749 10.3909 89.3374 10.2294 89.3374 10.0292V7.52823ZM86.5667 8.00227H83.0308C82.8293 8.00227 82.6668 8.16369 82.6668 8.36393V9.65937C82.6668 9.85961 82.8293 10.021 83.0308 10.021H85.7254C85.927 10.021 86.0895 10.1824 86.0895 10.3827V10.5155C86.0895 10.7157 86.252 10.8772 86.4536 10.8772H86.5667C86.7683 10.8772 86.9308 11.0386 86.9308 11.2388V13.5661C86.9308 13.7663 86.7683 13.9278 86.5667 13.9278H86.4536C86.252 13.9278 86.0895 14.0892 86.0895 14.2894V14.4202C86.0895 14.6204 85.927 14.7819 85.7254 14.7819H80.8217C80.6201 14.7819 80.4576 14.6204 80.4576 14.4202V13.7827C80.4576 13.5825 80.6201 13.421 80.8217 13.421H84.3576C84.5591 13.421 84.7216 13.2596 84.7216 13.0594V11.7435C84.7216 11.5433 84.5591 11.3818 84.3576 11.3818H81.663C81.4614 11.3818 81.2989 11.2204 81.2989 11.0202V10.8894C81.2989 10.6892 81.1364 10.5278 80.9348 10.5278H80.8217C80.6201 10.5278 80.4576 10.3663 80.4576 10.1661V7.83881C80.4576 7.63857 80.6201 7.47715 80.8217 7.47715H80.9348C81.1364 7.47715 81.2989 7.31573 81.2989 7.11549V6.98267C81.2989 6.78243 81.4614 6.62101 81.663 6.62101H86.5667C86.7683 6.62101 86.9308 6.78243 86.9308 6.98267V7.64061C86.9308 7.84085 86.7683 8.00227 86.5667 8.00227Z" fill="#28226B"/>
<path d="M7.17257 25.3865V29.1155C7.17257 29.3464 7.36181 29.5323 7.59218 29.5323H8.80373C9.03616 29.5323 9.22335 29.3443 9.22335 29.1155V25.3865C9.22335 25.1556 9.03411 24.9697 8.80373 24.9697H7.59218C7.35975 24.9697 7.17257 25.1577 7.17257 25.3865ZM7.17257 25.3865V29.1155C7.17257 29.3464 7.36181 29.5323 7.59218 29.5323H8.80373C9.03616 29.5323 9.22335 29.3443 9.22335 29.1155V25.3865C9.22335 25.1556 9.03411 24.9697 8.80373 24.9697H7.59218C7.35975 24.9697 7.17257 25.1577 7.17257 25.3865ZM12.317 17.7406V17.6445H8.76465C8.53221 17.6445 8.34503 17.8325 8.34503 18.0614V22.3155C8.34503 22.5463 8.15579 22.7323 7.92541 22.7323H5.34394C5.1115 22.7323 4.92432 22.9203 4.92432 23.1491C4.92432 23.38 4.73508 23.568 4.5047 23.568C4.27227 23.568 4.08508 23.756 4.08508 23.9848V30.9299H4.18382L6.44646 33.1612C6.52463 33.2388 6.63159 33.2817 6.74266 33.2817H13.4236C13.6561 33.2817 13.8433 33.0937 13.8433 32.8649V19.4447C13.8433 19.3343 13.8001 19.2301 13.7219 19.1504L12.3191 17.7365L12.317 17.7406ZM11.0149 30.8952H6.22225C5.98982 30.8952 5.80264 30.7072 5.80264 30.4783C5.80264 30.2474 5.6134 30.0595 5.38302 30.0595C5.15058 30.0595 4.9634 29.8715 4.9634 29.6426V24.8634C4.9634 24.6325 5.15264 24.4466 5.38302 24.4466C5.61545 24.4466 5.80264 24.2586 5.80264 24.0298C5.80264 23.7989 5.99188 23.6129 6.22225 23.6129H8.80373C9.03616 23.6129 9.22335 23.425 9.22335 23.1961V18.942C9.22335 18.7111 9.41259 18.5252 9.64296 18.5252H11.0129C11.2453 18.5252 11.4325 18.7132 11.4325 18.942V30.4824C11.4325 30.7133 11.2433 30.8993 11.0129 30.8993L11.0149 30.8952ZM7.59218 29.5343H8.80373C9.03616 29.5343 9.22335 29.3464 9.22335 29.1175V25.3885C9.22335 25.1576 9.03411 24.9717 8.80373 24.9717H7.59218C7.35975 24.9717 7.17257 25.1597 7.17257 25.3885V29.1175C7.17257 29.3484 7.36181 29.5343 7.59218 29.5343Z" fill="#28226B"/>
<path d="M16.7498 25.4908V27.4012C16.7498 27.5831 16.9 27.7323 17.0831 27.7323H18.2535C18.4365 27.7323 18.5867 27.5831 18.5867 27.4012V25.4908C18.5867 25.3089 18.4365 25.1598 18.2535 25.1598H17.0831C16.9 25.1598 16.7498 25.3089 16.7498 25.4908ZM16.7498 25.4908V27.4012C16.7498 27.5831 16.9 27.7323 17.0831 27.7323H18.2535C18.4365 27.7323 18.5867 27.5831 18.5867 27.4012V25.4908C18.5867 25.3089 18.4365 25.1598 18.2535 25.1598H17.0831C16.9 25.1598 16.7498 25.3089 16.7498 25.4908ZM22.715 24.7409C22.715 24.653 22.68 24.5693 22.6183 24.5059L21.3512 23.2473V23.1431H15.0714C14.8883 23.1431 14.7381 23.2922 14.7381 23.4741V23.5762C14.7381 23.7581 14.588 23.9072 14.4049 23.9072H14.3185C14.1354 23.9072 13.9853 24.0564 13.9853 24.2383V31.2406H14.0717L15.3573 32.4992C15.419 32.5605 15.5033 32.5953 15.5918 32.5953H16.0217C16.1081 32.5953 16.1903 32.6279 16.2521 32.6872L16.863 33.2695C16.9247 33.3288 17.007 33.3615 17.0933 33.3615H22.3818C22.5648 33.3615 22.715 33.2123 22.715 33.0305V30.7992C22.715 30.7134 22.6821 30.6317 22.6224 30.5704L22.3818 30.319C22.5648 30.319 22.715 30.1699 22.715 29.988V24.7389V24.7409ZM20.2302 28.1838H20.1438C19.9607 28.1838 19.8106 28.333 19.8106 28.5148V28.6007C19.8106 28.7825 19.6604 28.9317 19.4774 28.9317H17.0831C16.9 28.9317 16.7498 29.0808 16.7498 29.2627V29.6775C16.7498 29.8593 16.9 30.0085 17.0831 30.0085H20.2302C20.4133 30.0085 20.5634 30.1576 20.5634 30.3395V30.8952C20.5634 31.0771 20.4133 31.2263 20.2302 31.2263H15.8571C15.674 31.2263 15.5239 31.0771 15.5239 30.8952V30.791C15.5239 30.6092 15.3737 30.46 15.1907 30.46H15.1063C14.9233 30.46 14.7731 30.3109 14.7731 30.129V25.0229C14.7731 24.841 14.9233 24.6919 15.1063 24.6919H15.1907C15.3737 24.6919 15.5239 24.5427 15.5239 24.3609V24.2567C15.5239 24.0748 15.674 23.9256 15.8571 23.9256H20.2302C20.4133 23.9256 20.5634 24.0748 20.5634 24.2567V27.8528C20.5634 28.0347 20.4133 28.1838 20.2302 28.1838ZM18.2535 25.1598H17.0831C16.9 25.1598 16.7498 25.3089 16.7498 25.4908V27.4012C16.7498 27.5831 16.9 27.7323 17.0831 27.7323H18.2535C18.4365 27.7323 18.5867 27.5831 18.5867 27.4012V25.4908C18.5867 25.3089 18.4365 25.1598 18.2535 25.1598Z" fill="#28226B"/>
<path d="M25.9484 25.3865V29.1175C25.9484 29.3484 26.1356 29.5343 26.368 29.5343H27.5816C27.8141 29.5343 28.0012 29.3484 28.0012 29.1175V25.3865C28.0012 25.1556 27.8141 24.9697 27.5816 24.9697H26.368C26.1356 24.9697 25.9484 25.1556 25.9484 25.3865ZM25.9484 25.3865V29.1175C25.9484 29.3484 26.1356 29.5343 26.368 29.5343H27.5816C27.8141 29.5343 28.0012 29.3484 28.0012 29.1175V25.3865C28.0012 25.1556 27.8141 24.9697 27.5816 24.9697H26.368C26.1356 24.9697 25.9484 25.1556 25.9484 25.3865ZM32.2468 24.8307L30.2516 22.8324V22.7343H28.7932C28.5607 22.7343 28.3736 22.5484 28.3736 22.3175V19.4487C28.3736 19.3384 28.3304 19.2322 28.2501 19.1545L26.8288 17.7406V17.6445H23.2764C23.044 17.6445 22.8568 17.8305 22.8568 18.0614V31.7697H22.9555L24.3769 33.1652C24.4551 33.2429 24.562 33.2858 24.671 33.2858H31.3561C31.5886 33.2858 31.7757 33.0999 31.7757 32.869C31.7757 32.636 31.9629 32.4501 32.1954 32.4501C32.4278 32.4501 32.615 32.2642 32.615 32.0333V25.3742C32.615 25.2639 32.5718 25.1597 32.4936 25.082L32.2447 24.8328L32.2468 24.8307ZM29.7928 30.0595H29.7908C29.5584 30.0595 29.3712 30.2454 29.3712 30.4763C29.3712 30.7092 29.184 30.8952 28.9516 30.8952H24.1568C23.9244 30.8952 23.7372 30.7092 23.7372 30.4783V18.9359C23.7372 18.705 23.9244 18.5191 24.1568 18.5191H25.5288C25.7612 18.5191 25.9484 18.705 25.9484 18.9359V23.192C25.9484 23.4229 26.1356 23.6088 26.368 23.6088H28.9516C29.184 23.6088 29.3712 23.7948 29.3712 24.0257C29.3712 24.2586 29.5584 24.4445 29.7908 24.4445H29.7928C30.0253 24.4445 30.2125 24.6305 30.2125 24.8614V29.6426C30.2125 29.8735 30.0253 30.0595 29.7928 30.0595ZM26.368 29.5343H27.5816C27.8141 29.5343 28.0012 29.3484 28.0012 29.1175V25.3865C28.0012 25.1556 27.8141 24.9697 27.5816 24.9697H26.368C26.1356 24.9697 25.9484 25.1556 25.9484 25.3865V29.1175C25.9484 29.3484 26.1356 29.5343 26.368 29.5343Z" fill="#28226B"/>
<path d="M35.3364 23.7336V29.1769C35.3364 29.4078 35.5235 29.5937 35.756 29.5937H36.9716C37.2041 29.5937 37.3913 29.4078 37.3913 29.1769V23.7336C37.3913 23.5027 37.2041 23.3168 36.9716 23.3168H35.756C35.5235 23.3168 35.3364 23.5027 35.3364 23.7336ZM35.3364 23.7336V29.1769C35.3364 29.4078 35.5235 29.5937 35.756 29.5937H36.9716C37.2041 29.5937 37.3913 29.4078 37.3913 29.1769V23.7336C37.3913 23.5027 37.2041 23.3168 36.9716 23.3168H35.756C35.5235 23.3168 35.3364 23.5027 35.3364 23.7336ZM41.6347 23.1819L39.6395 21.2V21.0835H33.5057C33.2732 21.0835 33.0861 21.2694 33.0861 21.5003C33.0861 21.7333 32.8989 21.9192 32.6664 21.9192C32.434 21.9192 32.2468 22.1051 32.2468 22.336V30.9934H32.3435L32.6171 31.2631L34.6061 33.2226C34.6843 33.3002 34.7913 33.3431 34.9023 33.3431H40.7461C40.9786 33.3431 41.1658 33.1572 41.1658 32.9263C41.1658 32.6934 41.3529 32.5074 41.5854 32.5074H41.5874C41.8199 32.5074 42.0071 32.3215 42.0071 32.0906V23.7234C42.0071 23.6131 41.9639 23.5068 41.8836 23.4292L41.6347 23.1819ZM39.1808 30.1189H39.1787C38.9463 30.1189 38.7591 30.3048 38.7591 30.5357C38.7591 30.7666 38.5719 30.9525 38.3395 30.9525H34.3861C34.1536 30.9525 33.9664 30.7666 33.9664 30.5357C33.9664 30.3048 33.7793 30.1189 33.5468 30.1189H33.5448C33.3123 30.1189 33.1251 29.9329 33.1251 29.702V23.2105C33.1251 22.9796 33.3123 22.7937 33.5448 22.7937H33.5468C33.7793 22.7937 33.9664 22.6078 33.9664 22.3769C33.9664 22.144 34.1536 21.958 34.3861 21.958H38.3395C38.5719 21.958 38.7591 22.144 38.7591 22.3748C38.7591 22.6078 38.9463 22.7937 39.1787 22.7937H39.1808C39.4132 22.7937 39.6004 22.9796 39.6004 23.2105V29.702C39.6004 29.9329 39.4132 30.1189 39.1808 30.1189ZM35.756 29.5937H36.9716C37.2041 29.5937 37.3913 29.4078 37.3913 29.1769V23.7336C37.3913 23.5027 37.2041 23.3168 36.9716 23.3168H35.756C35.5235 23.3168 35.3364 23.5027 35.3364 23.7336V29.1769C35.3364 29.4078 35.5235 29.5937 35.756 29.5937Z" fill="#28226B"/>
<path d="M44.7242 24.6282V28.3777C44.7242 28.6085 44.9134 28.7945 45.1438 28.7945H46.3574C46.5898 28.7945 46.777 28.6065 46.777 28.3777V24.6282C46.777 24.3974 46.5878 24.2114 46.3574 24.2114H45.1438C44.9114 24.2114 44.7242 24.3994 44.7242 24.6282ZM44.7242 24.6282V28.3777C44.7242 28.6085 44.9134 28.7945 45.1438 28.7945H46.3574C46.5898 28.7945 46.777 28.6065 46.777 28.3777V24.6282C46.777 24.3974 46.5878 24.2114 46.3574 24.2114H45.1438C44.9114 24.2114 44.7242 24.3994 44.7242 24.6282ZM51.0226 24.0929L49.0273 22.0946V21.9761H42.0543C41.8218 21.9761 41.6346 22.1641 41.6346 22.3929V30.1757H41.7313L42.007 30.4495L43.2761 31.7102H43.3357V34.4319H43.453L44.8558 35.8233C44.934 35.901 45.041 35.9459 45.1541 35.9459H50.134C50.3664 35.9459 50.5536 35.758 50.5536 35.5291V35.5107C50.5536 35.2798 50.7428 35.0939 50.9732 35.0939C51.2056 35.0939 51.3928 34.9059 51.3928 34.6771V24.6405C51.3928 24.5302 51.3496 24.4239 51.2694 24.3463L51.0205 24.097L51.0226 24.0929ZM48.5686 32.7012C48.3362 32.7012 48.149 32.8892 48.149 33.118V33.1385C48.149 33.3694 47.9598 33.5553 47.7294 33.5553H44.6398C44.4074 33.5553 44.2202 33.3673 44.2202 33.1385V32.6134C44.2202 32.3825 44.4095 32.1965 44.6398 32.1965H46.3615C46.594 32.1965 46.7811 32.0085 46.7811 31.7797V30.5762C46.7811 30.3453 46.5919 30.1594 46.3615 30.1594H43.78C43.5476 30.1594 43.3604 29.9714 43.3604 29.7426V29.7221C43.3604 29.4912 43.1712 29.3053 42.9408 29.3053C42.7084 29.3053 42.5212 29.1173 42.5212 28.8885V23.2736C42.5212 23.0427 42.7104 22.8567 42.9408 22.8567H47.7314C47.9639 22.8567 48.1511 23.0447 48.1511 23.2736V23.294C48.1511 23.5249 48.3403 23.7108 48.5707 23.7108C48.8031 23.7108 48.9903 23.8988 48.9903 24.1276V32.2864C48.9903 32.5173 48.8011 32.7033 48.5707 32.7033L48.5686 32.7012ZM45.1459 28.7965H46.3595C46.5919 28.7965 46.7791 28.6085 46.7791 28.3797V24.6303C46.7791 24.3994 46.5898 24.2135 46.3595 24.2135H45.1459C44.9134 24.2135 44.7262 24.4014 44.7262 24.6303V28.3797C44.7262 28.6106 44.9155 28.7965 45.1459 28.7965Z" fill="#28226B"/>
<path d="M60.8014 29.3179V24.602C60.8014 24.4896 60.7562 24.3793 60.676 24.2996L60.606 24.2301L59.2772 22.9081V22.7917H55.9491C55.836 22.7917 55.729 22.7488 55.6488 22.6691L55.0132 22.052V21.9355H51.4526C51.2161 21.9355 51.0227 22.1276 51.0227 22.3626V30.9913H51.1194L51.395 31.2611L52.5407 32.3828C52.621 32.4625 52.73 32.5054 52.8431 32.5054H53.2895C53.4026 32.5054 53.5137 32.5504 53.5939 32.63L53.7934 32.8282C53.8736 32.9079 53.9827 32.9529 54.0978 32.9529H61.2355C61.472 32.9529 61.6654 32.7608 61.6654 32.5258V30.5275C61.6654 30.4151 61.6201 30.3048 61.5399 30.2251L60.929 29.6183C60.8488 29.5386 60.8035 29.4303 60.8035 29.3159L60.8014 29.3179ZM58.8268 30.973H53.1928C52.9562 30.973 52.7629 30.7809 52.7629 30.5459C52.7629 30.3109 52.5695 30.1189 52.333 30.1189C52.0964 30.1189 51.9031 29.9268 51.9031 29.6918V23.2392C51.9031 23.0042 52.0964 22.8121 52.333 22.8121H53.7029C53.9395 22.8121 54.1328 23.0042 54.1328 23.2392V29.1851C54.1328 29.4201 54.3262 29.6121 54.5627 29.6121H55.7557C55.9923 29.6121 56.1857 29.4201 56.1857 29.1851V24.0953C56.1857 23.8603 56.379 23.6682 56.6156 23.6682H57.967C58.2035 23.6682 58.3969 23.8603 58.3969 24.0953V29.1851C58.3969 29.4201 58.5902 29.6121 58.8268 29.6121C59.0633 29.6121 59.2567 29.8042 59.2567 30.0392V30.5459C59.2567 30.7809 59.0633 30.973 58.8268 30.973Z" fill="#28226B"/>
<path d="M63.6956 24.5606V26.6978C63.6956 26.9022 63.8622 27.0677 64.0679 27.0677H65.3781C65.5838 27.0677 65.7504 26.9022 65.7504 26.6978V24.5606C65.7504 24.3562 65.5838 24.1907 65.3781 24.1907H64.0679C63.8622 24.1907 63.6956 24.3562 63.6956 24.5606ZM63.6956 24.5606V26.6978C63.6956 26.9022 63.8622 27.0677 64.0679 27.0677H65.3781C65.5838 27.0677 65.7504 26.9022 65.7504 26.6978V24.5606C65.7504 24.3562 65.5838 24.1907 65.3781 24.1907H64.0679C63.8622 24.1907 63.6956 24.3562 63.6956 24.5606ZM70.3662 23.7228C70.3662 23.6248 70.3272 23.5308 70.2572 23.4613L69.9939 23.1998L68.84 22.0535V21.937H61.8196C61.6139 21.937 61.4473 22.1025 61.4473 22.3068V22.4233C61.4473 22.6276 61.2807 22.7931 61.075 22.7931H60.9783C60.7726 22.7931 60.606 22.9586 60.606 23.163V30.9928H60.7027L61.6633 31.9327L62.1405 32.4006C62.2104 32.468 62.3051 32.5069 62.4017 32.5069H62.881C62.9777 32.5069 63.0702 32.5436 63.1381 32.609L63.821 33.2588C63.891 33.3242 63.9835 33.361 64.0781 33.361H69.9919C70.1976 33.361 70.3642 33.1955 70.3642 32.9911V30.4963C70.3642 30.4023 70.3272 30.3103 70.2613 30.2409L69.9919 29.9589C70.1976 29.9589 70.3642 29.7934 70.3642 29.5891V23.7187L70.3662 23.7228ZM67.5873 27.5724H67.4906C67.2849 27.5724 67.1183 27.7379 67.1183 27.9422V28.0382C67.1183 28.2426 66.9517 28.4081 66.746 28.4081H64.0679C63.8622 28.4081 63.6956 28.5736 63.6956 28.7779V29.2417C63.6956 29.446 63.8622 29.6116 64.0679 29.6116H67.5873C67.793 29.6116 67.9596 29.7771 67.9596 29.9814V30.6025C67.9596 30.8069 67.793 30.9724 67.5873 30.9724H62.7C62.4943 30.9724 62.3277 30.8069 62.3277 30.6025V30.4881C62.3277 30.2838 62.1611 30.1183 61.9554 30.1183H61.8587C61.653 30.1183 61.4864 29.9528 61.4864 29.7484V24.0375C61.4864 23.8332 61.653 23.6677 61.8587 23.6677H61.9554C62.1611 23.6677 62.3277 23.5022 62.3277 23.2978V23.1814C62.3277 22.977 62.4943 22.8115 62.7 22.8115H67.5873C67.793 22.8115 67.9596 22.977 67.9596 23.1814V27.2025C67.9596 27.4069 67.793 27.5724 67.5873 27.5724ZM65.3781 24.1907H64.0679C63.8622 24.1907 63.6956 24.3562 63.6956 24.5606V26.6978C63.6956 26.9022 63.8622 27.0677 64.0679 27.0677H65.3781C65.5838 27.0677 65.7504 26.9022 65.7504 26.6978V24.5606C65.7504 24.3562 65.5838 24.1907 65.3781 24.1907Z" fill="#28226B"/>
<path d="M79.7726 29.3179V24.602C79.7726 24.4896 79.7273 24.3793 79.6471 24.2996L79.5587 24.2118L78.2484 22.9081V22.7917H74.9223C74.8092 22.7917 74.7022 22.7488 74.622 22.6711L73.9843 22.052V21.9355H70.4237C70.1872 21.9355 69.9938 22.1276 69.9938 22.3626V30.9913H70.0905L70.3661 31.2611L71.5119 32.3828C71.5921 32.4625 71.7011 32.5054 71.8142 32.5054H72.2606C72.3758 32.5054 72.4848 32.5504 72.565 32.6321L72.7604 32.8282C72.8407 32.9079 72.9517 32.9549 73.0649 32.9549H80.2025C80.439 32.9549 80.6324 32.7629 80.6324 32.5279V30.5296C80.6324 30.4172 80.5871 30.3068 80.5069 30.2272L79.896 29.6203C79.8158 29.5406 79.7705 29.4323 79.7705 29.3179H79.7726ZM77.7979 30.973H72.1639C71.9274 30.973 71.734 30.7809 71.734 30.5459C71.734 30.3109 71.5407 30.1189 71.3041 30.1189C71.0676 30.1189 70.8742 29.9268 70.8742 29.6918V23.2392C70.8742 23.0042 71.0676 22.8121 71.3041 22.8121H72.674C72.9106 22.8121 73.1039 23.0042 73.1039 23.2392V29.1851C73.1039 29.4201 73.2973 29.6121 73.5338 29.6121H74.7269C74.9634 29.6121 75.1568 29.4201 75.1568 29.1851V24.0953C75.1568 23.8603 75.3501 23.6682 75.5867 23.6682H76.9381C77.1747 23.6682 77.368 23.8603 77.368 24.0953V29.1851C77.368 29.4201 77.5614 29.6121 77.7979 29.6121C78.0345 29.6121 78.2278 29.8042 78.2278 30.0392V30.5459C78.2278 30.7809 78.0345 30.973 77.7979 30.973Z" fill="#28226B"/>
<path d="M88.3789 24.3078L86.9514 22.8897V22.7937H85.0734V22.7161L83.5286 21.2V21.0835H80.2416C79.8631 21.0835 79.5587 21.3879 79.5587 21.7619V31.827H79.6554L80.6345 32.7874L81.0006 33.147C81.1282 33.2737 81.301 33.3431 81.482 33.3431H84.3905C84.769 33.3431 85.0734 33.0387 85.0734 32.6648V28.0981C85.0734 27.7221 85.3799 27.4197 85.7563 27.4197H87.7927C88.1712 27.4197 88.4756 27.1152 88.4756 26.7413V24.4079L88.3769 24.3098L88.3789 24.3078ZM85.3881 25.027H83.3332C82.9547 25.027 82.6503 25.3315 82.6503 25.7054V30.2721C82.6503 30.6481 82.3438 30.9505 81.9674 30.9505H81.1241C80.7456 30.9505 80.4411 30.646 80.4411 30.2721V22.6364C80.4411 22.2604 80.7476 21.958 81.1241 21.958H81.9674C82.3459 21.958 82.6503 22.2625 82.6503 22.6364V22.9878C82.6503 23.3638 82.9568 23.6662 83.3332 23.6662H85.3881C85.7666 23.6662 86.071 23.9706 86.071 24.3446C86.071 24.7205 85.7645 25.0229 85.3881 25.0229V25.027Z" fill="#28226B"/>
<path d="M98.1391 23.7187C98.1391 23.6227 98.1001 23.5308 98.0322 23.4633L96.6129 22.0535V21.937H89.5843C89.3827 21.937 89.2202 22.0984 89.2202 22.2987V22.4315C89.2202 22.6317 89.0577 22.7931 88.8561 22.7931H88.743C88.5414 22.7931 88.3789 22.9546 88.3789 23.1548V27.5928H88.4756L89.0083 28.122C89.2367 28.3488 89.0762 28.7391 88.7512 28.7391H88.743C88.5414 28.7391 88.3789 28.9005 88.3789 29.1007V31.8469H88.4756L89.9154 33.2588C89.9833 33.3262 90.0759 33.363 90.1705 33.363H96.9338C97.1353 33.363 97.2978 33.2016 97.2978 33.0013V32.8685C97.2978 32.6683 97.4603 32.5069 97.6619 32.5069H97.7751C97.9766 32.5069 98.1391 32.3455 98.1391 32.1452V27.9728C98.1391 27.8789 98.1021 27.7869 98.0342 27.7195L97.5159 27.1964C97.2896 26.9676 97.4521 26.5814 97.7751 26.5814C97.9766 26.5814 98.1391 26.42 98.1391 26.2197V23.7187ZM95.3684 24.1907H91.8325C91.6309 24.1907 91.4684 24.3522 91.4684 24.5524V25.8499C91.4684 26.0501 91.6309 26.2115 91.8325 26.2115H94.5271C94.7287 26.2115 94.8912 26.373 94.8912 26.5732V26.706C94.8912 26.9063 95.0537 27.0677 95.2553 27.0677H95.3684C95.57 27.0677 95.7325 27.2291 95.7325 27.4293V29.7566C95.7325 29.9569 95.57 30.1183 95.3684 30.1183H95.2553C95.0537 30.1183 94.8912 30.2797 94.8912 30.4799V30.6107C94.8912 30.8109 94.7287 30.9724 94.5271 30.9724H89.6234C89.4218 30.9724 89.2593 30.8109 89.2593 30.6107V29.9732C89.2593 29.773 89.4218 29.6116 89.6234 29.6116H93.1593C93.3608 29.6116 93.5233 29.4501 93.5233 29.2499V27.934C93.5233 27.7338 93.3608 27.5724 93.1593 27.5724H90.4647C90.2631 27.5724 90.1006 27.4109 90.1006 27.2107V27.0799C90.1006 26.8797 89.9381 26.7183 89.7365 26.7183H89.6234C89.4218 26.7183 89.2593 26.5569 89.2593 26.3566V24.0293C89.2593 23.8291 89.4218 23.6677 89.6234 23.6677H89.7365C89.9381 23.6677 90.1006 23.5062 90.1006 23.306V23.1732C90.1006 22.9729 90.2631 22.8115 90.4647 22.8115H95.3684C95.57 22.8115 95.7325 22.9729 95.7325 23.1732V23.8291C95.7325 24.0293 95.57 24.1907 95.3684 24.1907Z" fill="#28226B"/>
<path d="M20.9768 20.0863V20.0291L14.409 20.0229V22.1766H14.4563L15.2133 22.9203L21.7235 22.9264V20.83L20.9768 20.0863ZM20.5428 21.7536L14.841 21.7475V20.452L20.5449 20.4582V21.7536H20.5428Z" fill="#28226B"/>
</g>
<defs>
<clipPath id="clip0_274_21096">
<rect width="102.222" height="40" fill="white"/>
</clipPath>
</defs>
</svg>
