<svg width="24" height="21" viewBox="0 0 24 21" fill="none" xmlns="http://www.w3.org/2000/svg">
<g clip-path="url(#clip0_227_32349)">
<path d="M15.7059 10.5H14.3235V11.8948H15.7059V10.5Z" fill="#ECEAFD"/>
<path d="M12.9403 17.4727H11.5579V18.8675H12.9403V17.4727Z" fill="#ECEAFD"/>
<path d="M17.0882 7.70996H15.7058V9.10476H17.0882V7.70996Z" fill="#ECEAFD"/>
<path d="M23.9991 3.52734H22.6167V4.92214H23.9991V3.52734Z" fill="#1C1372"/>
<path d="M19.8521 2.13281H18.4697V3.52761H19.8521V2.13281Z" fill="#ECEAFD"/>
<path d="M21.2345 4.92285H19.8521V6.31765H21.2345V4.92285Z" fill="#ECEAFD"/>
<path d="M4.64585 0.738281H3.26343V2.13308H4.64585V0.738281Z" fill="#1C1372"/>
<path d="M6.02817 0.738281H4.64575V2.13308H6.02817V0.738281Z" fill="#1C1372"/>
<path d="M7.41074 0.738281H6.02832V2.13308H7.41074V0.738281Z" fill="#1C1372"/>
<path d="M8.79282 0.738281H7.4104V2.13308H8.79282V0.738281Z" fill="#1C1372"/>
<path d="M17.0873 0.738281H15.7048V2.13308H17.0873V0.738281Z" fill="#1C1372"/>
<path d="M18.4698 0.738281H17.0874V2.13308H18.4698V0.738281Z" fill="#1C1372"/>
<path d="M19.8521 0.738281H18.4697V2.13308H19.8521V0.738281Z" fill="#1C1372"/>
<path d="M21.2345 0.738281H19.8521V2.13308H21.2345V0.738281Z" fill="#1C1372"/>
<path d="M3.26352 2.13281H1.8811V3.52761H3.26352V2.13281Z" fill="#1C1372"/>
<path d="M4.64585 2.13281H3.26343V3.52761H4.64585V2.13281Z" fill="#ECEAFD"/>
<path d="M6.02817 2.13281H4.64575V3.52761H6.02817V2.13281Z" fill="#ECEAFD"/>
<path d="M7.41074 2.13281H6.02832V3.52761H7.41074V2.13281Z" fill="#ECEAFD"/>
<path d="M8.79282 2.13281H7.4104V3.52761H8.79282V2.13281Z" fill="#ECEAFD"/>
<path d="M10.1754 2.13281H8.79297V3.52761H10.1754V2.13281Z" fill="#1C1372"/>
<path d="M15.7049 2.13281H14.3225V3.52761H15.7049V2.13281Z" fill="#1C1372"/>
<path d="M17.0873 2.13281H15.7048V3.52761H17.0873V2.13281Z" fill="#ECEAFD"/>
<path d="M18.4698 2.13281H17.0874V3.52761H18.4698V2.13281Z" fill="#ECEAFD"/>
<path d="M21.2345 2.13281H19.8521V3.52761H21.2345V2.13281Z" fill="#ECEAFD"/>
<path d="M22.6168 2.13281H21.2344V3.52761H22.6168V2.13281Z" fill="#1C1372"/>
<path d="M1.88095 3.52734H0.498535V4.92214H1.88095V3.52734Z" fill="#1C1372"/>
<path d="M3.26352 3.52734H1.8811V4.92214H3.26352V3.52734Z" fill="#ECEAFD"/>
<path d="M4.64585 3.52734H3.26343V4.92214H4.64585V3.52734Z" fill="#ECEAFD"/>
<path d="M6.02817 3.52734H4.64575V4.92214H6.02817V3.52734Z" fill="#DFDCFF"/>
<path d="M7.41074 3.52734H6.02832V4.92214H7.41074V3.52734Z" fill="#ADA7E0"/>
<path d="M8.79282 3.52734H7.4104V4.92214H8.79282V3.52734Z" fill="#ECEAFD"/>
<path d="M10.1754 3.52734H8.79297V4.92214H10.1754V3.52734Z" fill="#ECEAFD"/>
<path d="M11.5577 3.52734H10.1753V4.92214H11.5577V3.52734Z" fill="#1C1372"/>
<path d="M14.3226 3.52734H12.9402V4.92214H14.3226V3.52734Z" fill="#1C1372"/>
<path d="M15.7049 3.52734H14.3225V4.92214H15.7049V3.52734Z" fill="#ECEAFD"/>
<path d="M17.0873 3.52734H15.7048V4.92214H17.0873V3.52734Z" fill="#ECEAFD"/>
<path d="M18.4698 3.52734H17.0874V4.92214H18.4698V3.52734Z" fill="#ECEAFD"/>
<path d="M21.2345 3.52734H19.8521V4.92214H21.2345V3.52734Z" fill="#ECEAFD"/>
<path d="M22.6168 3.52734H21.2344V4.92214H22.6168V3.52734Z" fill="#ECEAFD"/>
<path d="M1.88095 4.92285H0.498535V6.31765H1.88095V4.92285Z" fill="#1C1372"/>
<path d="M3.26352 4.92285H1.8811V6.31765H3.26352V4.92285Z" fill="#ECEAFD"/>
<path d="M4.64585 4.92285H3.26343V6.31765H4.64585V4.92285Z" fill="#DFDCFF"/>
<path d="M6.02817 4.92285H4.64575V6.31765H6.02817V4.92285Z" fill="#ADA7E0"/>
<path d="M7.41074 4.92285H6.02832V6.31765H7.41074V4.92285Z" fill="#ECEAFD"/>
<path d="M8.79282 4.92285H7.4104V6.31765H8.79282V4.92285Z" fill="#ECEAFD"/>
<path d="M10.1754 4.92285H8.79297V6.31765H10.1754V4.92285Z" fill="#ECEAFD"/>
<path d="M11.5577 4.92285H10.1753V6.31765H11.5577V4.92285Z" fill="#ECEAFD"/>
<path d="M14.3226 4.92285H12.9402V6.31765H14.3226V4.92285Z" fill="#ECEAFD"/>
<path d="M15.7049 4.92285H14.3225V6.31765H15.7049V4.92285Z" fill="#ECEAFD"/>
<path d="M17.0873 4.92285H15.7048V6.31765H17.0873V4.92285Z" fill="#ECEAFD"/>
<path d="M18.4698 4.92285H17.0874V6.31765H18.4698V4.92285Z" fill="#ECEAFD"/>
<path d="M19.8521 4.92285H18.4697V6.31765H19.8521V4.92285Z" fill="#ECEAFD"/>
<path d="M22.6168 4.92285H21.2344V6.31765H22.6168V4.92285Z" fill="#ECEAFD"/>
<path d="M23.9991 4.92285H22.6167V6.31765H23.9991V4.92285Z" fill="#1C1372"/>
<path d="M1.88193 6.31543H0.499512V7.71023H1.88193V6.31543Z" fill="#1C1372"/>
<path d="M3.2645 6.31543H1.88208V7.71023H3.2645V6.31543Z" fill="#ECEAFD"/>
<path d="M4.64682 6.31543H3.2644V7.71023H4.64682V6.31543Z" fill="#ECEAFD"/>
<path d="M6.02915 6.31543H4.64673V7.71023H6.02915V6.31543Z" fill="#ECEAFD"/>
<path d="M7.41172 6.31543H6.0293V7.71023H7.41172V6.31543Z" fill="#ECEAFD"/>
<path d="M8.7938 6.31543H7.41138V7.71023H8.7938V6.31543Z" fill="#ECEAFD"/>
<path d="M10.1764 6.31543H8.79395V7.71023H10.1764V6.31543Z" fill="#ECEAFD"/>
<path d="M11.5587 6.31543H10.1763V7.71023H11.5587V6.31543Z" fill="#ECEAFD"/>
<path d="M12.941 6.31543H11.5586V7.71023H12.941V6.31543Z" fill="#ECEAFD"/>
<path d="M14.3236 6.31543H12.9412V7.71023H14.3236V6.31543Z" fill="#ECEAFD"/>
<path d="M15.7059 6.31543H14.3235V7.71023H15.7059V6.31543Z" fill="#ECEAFD"/>
<path d="M17.0882 6.31543H15.7058V7.71023H17.0882V6.31543Z" fill="#ECEAFD"/>
<path d="M18.4708 6.31543H17.0884V7.71023H18.4708V6.31543Z" fill="#ECEAFD"/>
<path d="M19.8531 6.31543H18.4707V7.71023H19.8531V6.31543Z" fill="#ECEAFD"/>
<path d="M21.2354 6.31543H19.853V7.71023H21.2354V6.31543Z" fill="#ECEAFD"/>
<path d="M22.6178 6.31543H21.2354V7.71023H22.6178V6.31543Z" fill="#ECEAFD"/>
<path d="M24.0001 6.31543H22.6177V7.71023H24.0001V6.31543Z" fill="#1C1372"/>
<path d="M3.2645 7.70996H1.88208V9.10476H3.2645V7.70996Z" fill="#1C1372"/>
<path d="M4.64682 7.70996H3.2644V9.10476H4.64682V7.70996Z" fill="#ECEAFD"/>
<path d="M6.02915 7.70996H4.64673V9.10476H6.02915V7.70996Z" fill="#ECEAFD"/>
<path d="M7.41172 7.70996H6.0293V9.10476H7.41172V7.70996Z" fill="#ECEAFD"/>
<path d="M8.7938 7.70996H7.41138V9.10476H8.7938V7.70996Z" fill="#ECEAFD"/>
<path d="M10.1764 7.70996H8.79395V9.10476H10.1764V7.70996Z" fill="#ECEAFD"/>
<path d="M11.5587 7.70996H10.1763V9.10476H11.5587V7.70996Z" fill="#ECEAFD"/>
<path d="M12.9412 7.70996H11.5588V9.10476H12.9412V7.70996Z" fill="#ECEAFD"/>
<path d="M14.3236 7.70996H12.9412V9.10476H14.3236V7.70996Z" fill="#ECEAFD"/>
<path d="M15.7059 7.70996H14.3235V9.10476H15.7059V7.70996Z" fill="#ECEAFD"/>
<path d="M18.4708 7.70996H17.0884V9.10476H18.4708V7.70996Z" fill="#ECEAFD"/>
<path d="M19.8531 7.70996H18.4707V9.10476H19.8531V7.70996Z" fill="#ECEAFD"/>
<path d="M21.2354 7.70996H19.853V9.10476H21.2354V7.70996Z" fill="#ECEAFD"/>
<path d="M22.6178 7.70996H21.2354V9.10476H22.6178V7.70996Z" fill="#1C1372"/>
<path d="M3.2645 9.10547H1.88208V10.5003H3.2645V9.10547Z" fill="#1C1372"/>
<path d="M4.64682 9.10547H3.2644V10.5003H4.64682V9.10547Z" fill="#ECEAFD"/>
<path d="M6.02915 9.10547H4.64673V10.5003H6.02915V9.10547Z" fill="#ECEAFD"/>
<path d="M7.41172 9.10547H6.0293V10.5003H7.41172V9.10547Z" fill="#ECEAFD"/>
<path d="M8.7938 9.10547H7.41138V10.5003H8.7938V9.10547Z" fill="#ECEAFD"/>
<path d="M10.1764 9.10547H8.79395V10.5003H10.1764V9.10547Z" fill="#ECEAFD"/>
<path d="M11.5587 9.10547H10.1763V10.5003H11.5587V9.10547Z" fill="#ECEAFD"/>
<path d="M12.941 9.10547H11.5586V10.5003H12.941V9.10547Z" fill="#ECEAFD"/>
<path d="M14.3236 9.10547H12.9412V10.5003H14.3236V9.10547Z" fill="#ECEAFD"/>
<path d="M15.7059 9.10547H14.3235V10.5003H15.7059V9.10547Z" fill="#ECEAFD"/>
<path d="M17.0882 9.10547H15.7058V10.5003H17.0882V9.10547Z" fill="#ECEAFD"/>
<path d="M18.4708 9.10547H17.0884V10.5003H18.4708V9.10547Z" fill="#ECEAFD"/>
<path d="M19.8531 9.10547H18.4707V10.5003H19.8531V9.10547Z" fill="#ECEAFD"/>
<path d="M21.2354 9.10547H19.853V10.5003H21.2354V9.10547Z" fill="#ECEAFD"/>
<path d="M22.6178 9.10547H21.2354V10.5003H22.6178V9.10547Z" fill="#1C1372"/>
<path d="M4.64682 10.5H3.2644V11.8948H4.64682V10.5Z" fill="#1C1372"/>
<path d="M6.02915 10.5H4.64673V11.8948H6.02915V10.5Z" fill="#ECEAFD"/>
<path d="M7.41172 10.5H6.0293V11.8948H7.41172V10.5Z" fill="#ECEAFD"/>
<path d="M8.7938 10.5H7.41138V11.8948H8.7938V10.5Z" fill="#ECEAFD"/>
<path d="M10.1764 10.5H8.79395V11.8948H10.1764V10.5Z" fill="#ECEAFD"/>
<path d="M11.5587 10.5H10.1763V11.8948H11.5587V10.5Z" fill="#ECEAFD"/>
<path d="M14.3236 10.5H12.9412V11.8948H14.3236V10.5Z" fill="#ECEAFD"/>
<path d="M17.0882 10.5H15.7058V11.8948H17.0882V10.5Z" fill="#ECEAFD"/>
<path d="M18.4708 10.5H17.0884V11.8948H18.4708V10.5Z" fill="#ECEAFD"/>
<path d="M19.8531 10.5H18.4707V11.8948H19.8531V10.5Z" fill="#ECEAFD"/>
<path d="M21.2354 10.5H19.853V11.8948H21.2354V10.5Z" fill="#1C1372"/>
<path d="M6.02744 11.8955H4.64502V13.2903H6.02744V11.8955Z" fill="#1C1372"/>
<path d="M7.40976 11.8955H6.02734V13.2903H7.40976V11.8955Z" fill="#ECEAFD"/>
<path d="M8.79209 11.8955H7.40967V13.2903H8.79209V11.8955Z" fill="#ECEAFD"/>
<path d="M10.1744 11.8955H8.79199V13.2903H10.1744V11.8955Z" fill="#ECEAFD"/>
<path d="M11.557 11.8955H10.1746V13.2903H11.557V11.8955Z" fill="#ECEAFD"/>
<path d="M12.9393 11.8955H11.5569V13.2903H12.9393V11.8955Z" fill="#ECEAFD"/>
<path d="M14.3216 11.8955H12.9392V13.2903H14.3216V11.8955Z" fill="#ECEAFD"/>
<path d="M15.704 11.8955H14.3215V13.2903H15.704V11.8955Z" fill="#ECEAFD"/>
<path d="M17.0865 11.8955H15.7041V13.2903H17.0865V11.8955Z" fill="#ECEAFD"/>
<path d="M18.4688 11.8955H17.0864V13.2903H18.4688V11.8955Z" fill="#ECEAFD"/>
<path d="M19.8512 11.8955H18.4688V13.2903H19.8512V11.8955Z" fill="#1C1372"/>
<path d="M7.40976 13.291H6.02734V14.6857H7.40976V13.291Z" fill="#1C1372"/>
<path d="M8.79209 13.291H7.40967V14.6857H8.79209V13.291Z" fill="#ECEAFD"/>
<path d="M10.1744 13.291H8.79199V14.6857H10.1744V13.291Z" fill="#ECEAFD"/>
<path d="M11.557 13.291H10.1746V14.6857H11.557V13.291Z" fill="#ECEAFD"/>
<path d="M12.9393 13.291H11.5569V14.6857H12.9393V13.291Z" fill="#ECEAFD"/>
<path d="M14.3216 13.291H12.9392V14.6857H14.3216V13.291Z" fill="#ECEAFD"/>
<path d="M15.704 13.291H14.3215V14.6857H15.704V13.291Z" fill="#ECEAFD"/>
<path d="M17.0865 13.291H15.7041V14.6857H17.0865V13.291Z" fill="#ECEAFD"/>
<path d="M18.4688 13.291H17.0864V14.6857H18.4688V13.291Z" fill="#1C1372"/>
<path d="M8.79209 14.6855H7.40967V16.0803H8.79209V14.6855Z" fill="#1C1372"/>
<path d="M10.1744 14.6855H8.79199V16.0803H10.1744V14.6855Z" fill="#ECEAFD"/>
<path d="M11.557 14.6855H10.1746V16.0803H11.557V14.6855Z" fill="#ECEAFD"/>
<path d="M12.9393 14.6855H11.5569V16.0803H12.9393V14.6855Z" fill="#ECEAFD"/>
<path d="M14.3216 14.6855H12.9392V16.0803H14.3216V14.6855Z" fill="#ECEAFD"/>
<path d="M15.704 14.6855H14.3215V16.0803H15.704V14.6855Z" fill="#ECEAFD"/>
<path d="M17.0865 14.6855H15.7041V16.0803H17.0865V14.6855Z" fill="#1C1372"/>
<path d="M10.1744 16.0801H8.79199V17.4749H10.1744V16.0801Z" fill="#1C1372"/>
<path d="M11.557 16.0801H10.1746V17.4749H11.557V16.0801Z" fill="#ECEAFD"/>
<path d="M12.9393 16.0801H11.5569V17.4749H12.9393V16.0801Z" fill="#ECEAFD"/>
<path d="M14.3216 16.0801H12.9392V17.4749H14.3216V16.0801Z" fill="#ECEAFD"/>
<path d="M15.704 16.0801H14.3215V17.4749H15.704V16.0801Z" fill="#1C1372"/>
<path d="M11.558 17.4727H10.1755V18.8675H11.558V17.4727Z" fill="#1C1372"/>
<path d="M14.3226 17.4727H12.9402V18.8675H14.3226V17.4727Z" fill="#1C1372"/>
<path d="M12.9402 18.8682H11.5579V20.263H12.9402V18.8682Z" fill="#1C1372"/>
<path d="M19.8521 3.52734H18.4697V4.92214H19.8521V3.52734Z" fill="#ECEAFD"/>
<path d="M12.94 4.92285H11.5576V6.31765H12.94V4.92285Z" fill="#1C1372"/>
<path d="M12.9412 10.5H11.5588V11.8948H12.9412V10.5Z" fill="#ECEAFD"/>
</g>
<path d="M19.2362 5.4248H17.8538V6.8196H19.2362V5.4248Z" fill="#ADA7E0"/>
<path d="M20.6195 6.81641H19.2371V8.2112H20.6195V6.81641Z" fill="#ADA7E0"/>
<path d="M19.2372 8.21191H17.8547V9.60671H19.2372V8.21191Z" fill="#ADA7E0"/>
<path d="M17.8548 9.60645H16.4724V11.0012H17.8548V9.60645Z" fill="#ADA7E0"/>
<defs>
<clipPath id="clip0_227_32349">
<rect width="23.5015" height="19.5243" fill="white" transform="translate(0.498535 0.738281)"/>
</clipPath>
</defs>
</svg>
