<svg width="25" height="21" viewBox="0 0 25 21" fill="none" xmlns="http://www.w3.org/2000/svg">
<g clip-path="url(#clip0_227_32049)">
<path d="M16.0284 10.499H14.6167V11.9278H16.0284V10.499Z" fill="#E3462D"/>
<path d="M13.204 17.6426H11.7922V19.0714H13.204V17.6426Z" fill="#BE1622"/>
<path d="M17.4401 7.6416H16.0283V9.07038H17.4401V7.6416Z" fill="#E3462D"/>
<path d="M24.4977 3.35742H23.0859V4.7862H24.4977V3.35742Z" fill="#1C1372"/>
<path d="M20.2626 1.92871H18.8508V3.35749H20.2626V1.92871Z" fill="#BE1622"/>
<path d="M21.6742 4.78613H20.2625V6.21491H21.6742V4.78613Z" fill="#E3462D"/>
<path d="M4.73376 0.5H3.32202V1.92878H4.73376V0.5Z" fill="#1C1372"/>
<path d="M6.14538 0.5H4.73364V1.92878H6.14538V0.5Z" fill="#1C1372"/>
<path d="M7.55725 0.5H6.14551V1.92878H7.55725V0.5Z" fill="#1C1372"/>
<path d="M8.96887 0.5H7.55713V1.92878H8.96887V0.5Z" fill="#1C1372"/>
<path d="M17.4393 0.5H16.0276V1.92878H17.4393V0.5Z" fill="#1C1372"/>
<path d="M18.851 0.5H17.4392V1.92878H18.851V0.5Z" fill="#1C1372"/>
<path d="M20.2626 0.5H18.8508V1.92878H20.2626V0.5Z" fill="#1C1372"/>
<path d="M21.6742 0.5H20.2625V1.92878H21.6742V0.5Z" fill="#1C1372"/>
<path d="M3.32214 1.92871H1.9104V3.35749H3.32214V1.92871Z" fill="#1C1372"/>
<path d="M4.73376 1.92871H3.32202V3.35749H4.73376V1.92871Z" fill="#E3462D"/>
<path d="M6.14538 1.92871H4.73364V3.35749H6.14538V1.92871Z" fill="#E3462D"/>
<path d="M7.55725 1.92871H6.14551V3.35749H7.55725V1.92871Z" fill="#E3462D"/>
<path d="M8.96887 1.92871H7.55713V3.35749H8.96887V1.92871Z" fill="#E3462D"/>
<path d="M10.3805 1.92871H8.96875V3.35749H10.3805V1.92871Z" fill="#1C1372"/>
<path d="M16.0275 1.92871H14.6157V3.35749H16.0275V1.92871Z" fill="#1C1372"/>
<path d="M17.4393 1.92871H16.0276V3.35749H17.4393V1.92871Z" fill="#BE1622"/>
<path d="M18.851 1.92871H17.4392V3.35749H18.851V1.92871Z" fill="#BE1622"/>
<path d="M21.6742 1.92871H20.2625V3.35749H21.6742V1.92871Z" fill="#BE1622"/>
<path d="M23.0861 1.92871H21.6743V3.35749H23.0861V1.92871Z" fill="#1C1372"/>
<path d="M1.91028 3.35742H0.498535V4.7862H1.91028V3.35742Z" fill="#1C1372"/>
<path d="M3.32214 3.35742H1.9104V4.7862H3.32214V3.35742Z" fill="#E3462D"/>
<path d="M4.73376 3.35742H3.32202V4.7862H4.73376V3.35742Z" fill="#E3462D"/>
<path d="M6.14538 3.35742H4.73364V4.7862H6.14538V3.35742Z" fill="#FCDDD1"/>
<path d="M7.55725 3.35742H6.14551V4.7862H7.55725V3.35742Z" fill="#F7B8A1"/>
<path d="M8.96887 3.35742H7.55713V4.7862H8.96887V3.35742Z" fill="#E3462D"/>
<path d="M10.3805 3.35742H8.96875V4.7862H10.3805V3.35742Z" fill="#E3462D"/>
<path d="M11.7924 3.35742H10.3806V4.7862H11.7924V3.35742Z" fill="#1C1372"/>
<path d="M14.6158 3.35742H13.2041V4.7862H14.6158V3.35742Z" fill="#1C1372"/>
<path d="M16.0275 3.35742H14.6157V4.7862H16.0275V3.35742Z" fill="#BE1622"/>
<path d="M17.4393 3.35742H16.0276V4.7862H17.4393V3.35742Z" fill="#E3462D"/>
<path d="M18.851 3.35742H17.4392V4.7862H18.851V3.35742Z" fill="#E3462D"/>
<path d="M21.6742 3.35742H20.2625V4.7862H21.6742V3.35742Z" fill="#BE1622"/>
<path d="M23.0861 3.35742H21.6743V4.7862H23.0861V3.35742Z" fill="#BE1622"/>
<path d="M1.91028 4.78613H0.498535V6.21491H1.91028V4.78613Z" fill="#1C1372"/>
<path d="M3.32214 4.78613H1.9104V6.21491H3.32214V4.78613Z" fill="#E3462D"/>
<path d="M4.73376 4.78613H3.32202V6.21491H4.73376V4.78613Z" fill="#FCDDD1"/>
<path d="M6.14538 4.78613H4.73364V6.21491H6.14538V4.78613Z" fill="#F7B8A1"/>
<path d="M7.55725 4.78613H6.14551V6.21491H7.55725V4.78613Z" fill="#E3462D"/>
<path d="M8.96887 4.78613H7.55713V6.21491H8.96887V4.78613Z" fill="#E3462D"/>
<path d="M10.3805 4.78613H8.96875V6.21491H10.3805V4.78613Z" fill="#E3462D"/>
<path d="M11.7924 4.78613H10.3806V6.21491H11.7924V4.78613Z" fill="#E3462D"/>
<path d="M14.6158 4.78613H13.2041V6.21491H14.6158V4.78613Z" fill="#BE1622"/>
<path d="M16.0275 4.78613H14.6157V6.21491H16.0275V4.78613Z" fill="#E3462D"/>
<path d="M17.4393 4.78613H16.0276V6.21491H17.4393V4.78613Z" fill="#E3462D"/>
<path d="M18.851 4.78613H17.4392V6.21491H18.851V4.78613Z" fill="#E3462D"/>
<path d="M20.2626 4.78613H18.8508V6.21491H20.2626V4.78613Z" fill="#E3462D"/>
<path d="M23.0861 4.78613H21.6743V6.21491H23.0861V4.78613Z" fill="#BE1622"/>
<path d="M24.4977 4.78613H23.0859V6.21491H24.4977V4.78613Z" fill="#1C1372"/>
<path d="M1.9115 6.21289H0.499756V7.64167H1.9115V6.21289Z" fill="#1C1372"/>
<path d="M3.32312 6.21289H1.91138V7.64167H3.32312V6.21289Z" fill="#E3462D"/>
<path d="M4.73474 6.21289H3.323V7.64167H4.73474V6.21289Z" fill="#E3462D"/>
<path d="M6.1466 6.21289H4.73486V7.64167H6.1466V6.21289Z" fill="#E3462D"/>
<path d="M7.55823 6.21289H6.14648V7.64167H7.55823V6.21289Z" fill="#E3462D"/>
<path d="M8.96985 6.21289H7.55811V7.64167H8.96985V6.21289Z" fill="#E3462D"/>
<path d="M10.3815 6.21289H8.96973V7.64167H10.3815V6.21289Z" fill="#E3462D"/>
<path d="M11.7933 6.21289H10.3816V7.64167H11.7933V6.21289Z" fill="#E3462D"/>
<path d="M13.205 6.21289H11.7932V7.64167H13.205V6.21289Z" fill="#BE1622"/>
<path d="M14.6168 6.21289H13.2051V7.64167H14.6168V6.21289Z" fill="#E3462D"/>
<path d="M16.0284 6.21289H14.6167V7.64167H16.0284V6.21289Z" fill="#E3462D"/>
<path d="M17.4401 6.21289H16.0283V7.64167H17.4401V6.21289Z" fill="#E3462D"/>
<path d="M18.8519 6.21289H17.4402V7.64167H18.8519V6.21289Z" fill="#E3462D"/>
<path d="M20.2635 6.21289H18.8518V7.64167H20.2635V6.21289Z" fill="#E3462D"/>
<path d="M21.6752 6.21289H20.2634V7.64167H21.6752V6.21289Z" fill="#E3462D"/>
<path d="M23.087 6.21289H21.6753V7.64167H23.087V6.21289Z" fill="#BE1622"/>
<path d="M24.4987 6.21289H23.0869V7.64167H24.4987V6.21289Z" fill="#1C1372"/>
<path d="M3.32312 7.6416H1.91138V9.07038H3.32312V7.6416Z" fill="#1C1372"/>
<path d="M4.73474 7.6416H3.323V9.07038H4.73474V7.6416Z" fill="#E3462D"/>
<path d="M6.1466 7.6416H4.73486V9.07038H6.1466V7.6416Z" fill="#E3462D"/>
<path d="M7.55823 7.6416H6.14648V9.07038H7.55823V7.6416Z" fill="#E3462D"/>
<path d="M8.96985 7.6416H7.55811V9.07038H8.96985V7.6416Z" fill="#E3462D"/>
<path d="M10.3815 7.6416H8.96973V9.07038H10.3815V7.6416Z" fill="#E3462D"/>
<path d="M11.7933 7.6416H10.3816V9.07038H11.7933V7.6416Z" fill="#E3462D"/>
<path d="M13.2049 7.6416H11.7932V9.07038H13.2049V7.6416Z" fill="#E3462D"/>
<path d="M14.6168 7.6416H13.2051V9.07038H14.6168V7.6416Z" fill="#E3462D"/>
<path d="M16.0284 7.6416H14.6167V9.07038H16.0284V7.6416Z" fill="#E3462D"/>
<path d="M18.8519 7.6416H17.4402V9.07038H18.8519V7.6416Z" fill="#E3462D"/>
<path d="M20.2635 7.6416H18.8518V9.07038H20.2635V7.6416Z" fill="#E3462D"/>
<path d="M21.6752 7.6416H20.2634V9.07038H21.6752V7.6416Z" fill="#BE1622"/>
<path d="M23.087 7.6416H21.6753V9.07038H23.087V7.6416Z" fill="#1C1372"/>
<path d="M3.32312 9.07031H1.91138V10.4991H3.32312V9.07031Z" fill="#1C1372"/>
<path d="M4.73474 9.07031H3.323V10.4991H4.73474V9.07031Z" fill="#E3462D"/>
<path d="M6.1466 9.07031H4.73486V10.4991H6.1466V9.07031Z" fill="#E3462D"/>
<path d="M7.55823 9.07031H6.14648V10.4991H7.55823V9.07031Z" fill="#E3462D"/>
<path d="M8.96985 9.07031H7.55811V10.4991H8.96985V9.07031Z" fill="#E3462D"/>
<path d="M10.3815 9.07031H8.96973V10.4991H10.3815V9.07031Z" fill="#E3462D"/>
<path d="M11.7933 9.07031H10.3816V10.4991H11.7933V9.07031Z" fill="#E3462D"/>
<path d="M13.205 9.07031H11.7932V10.4991H13.205V9.07031Z" fill="#E3462D"/>
<path d="M14.6168 9.07031H13.2051V10.4991H14.6168V9.07031Z" fill="#E3462D"/>
<path d="M16.0284 9.07031H14.6167V10.4991H16.0284V9.07031Z" fill="#E3462D"/>
<path d="M17.4401 9.07031H16.0283V10.4991H17.4401V9.07031Z" fill="#E3462D"/>
<path d="M18.8519 9.07031H17.4402V10.4991H18.8519V9.07031Z" fill="#E3462D"/>
<path d="M20.2635 9.07031H18.8518V10.4991H20.2635V9.07031Z" fill="#E3462D"/>
<path d="M21.6752 9.07031H20.2634V10.4991H21.6752V9.07031Z" fill="#BE1622"/>
<path d="M23.087 9.07031H21.6753V10.4991H23.087V9.07031Z" fill="#1C1372"/>
<path d="M4.73474 10.499H3.323V11.9278H4.73474V10.499Z" fill="#1C1372"/>
<path d="M6.1466 10.499H4.73486V11.9278H6.1466V10.499Z" fill="#E3462D"/>
<path d="M7.55823 10.499H6.14648V11.9278H7.55823V10.499Z" fill="#E3462D"/>
<path d="M8.96985 10.499H7.55811V11.9278H8.96985V10.499Z" fill="#E3462D"/>
<path d="M10.3815 10.499H8.96973V11.9278H10.3815V10.499Z" fill="#E3462D"/>
<path d="M11.7933 10.499H10.3816V11.9278H11.7933V10.499Z" fill="#E3462D"/>
<path d="M14.6168 10.499H13.2051V11.9278H14.6168V10.499Z" fill="#E3462D"/>
<path d="M17.4401 10.499H16.0283V11.9278H17.4401V10.499Z" fill="#E3462D"/>
<path d="M18.8519 10.499H17.4402V11.9278H18.8519V10.499Z" fill="#E3462D"/>
<path d="M20.2635 10.499H18.8518V11.9278H20.2635V10.499Z" fill="#BE1622"/>
<path d="M21.6752 10.499H20.2634V11.9278H21.6752V10.499Z" fill="#1C1372"/>
<path d="M6.14465 11.9297H4.73291V13.3585H6.14465V11.9297Z" fill="#1C1372"/>
<path d="M7.55627 11.9297H6.14453V13.3585H7.55627V11.9297Z" fill="#E3462D"/>
<path d="M8.96789 11.9297H7.55615V13.3585H8.96789V11.9297Z" fill="#E3462D"/>
<path d="M10.3798 11.9297H8.96802V13.3585H10.3798V11.9297Z" fill="#E3462D"/>
<path d="M11.7914 11.9297H10.3796V13.3585H11.7914V11.9297Z" fill="#E3462D"/>
<path d="M13.2032 11.9297H11.7915V13.3585H13.2032V11.9297Z" fill="#E3462D"/>
<path d="M14.6149 11.9297H13.2031V13.3585H14.6149V11.9297Z" fill="#E3462D"/>
<path d="M16.0265 11.9297H14.6147V13.3585H16.0265V11.9297Z" fill="#E3462D"/>
<path d="M17.4384 11.9297H16.0266V13.3585H17.4384V11.9297Z" fill="#E3462D"/>
<path d="M18.85 11.9297H17.4382V13.3585H18.85V11.9297Z" fill="#BE1622"/>
<path d="M20.2618 11.9297H18.8501V13.3585H20.2618V11.9297Z" fill="#1C1372"/>
<path d="M7.55627 13.3584H6.14453V14.7871H7.55627V13.3584Z" fill="#1C1372"/>
<path d="M8.96789 13.3584H7.55615V14.7871H8.96789V13.3584Z" fill="#E3462D"/>
<path d="M10.3798 13.3584H8.96802V14.7871H10.3798V13.3584Z" fill="#E3462D"/>
<path d="M11.7914 13.3584H10.3796V14.7871H11.7914V13.3584Z" fill="#E3462D"/>
<path d="M13.2032 13.3584H11.7915V14.7871H13.2032V13.3584Z" fill="#E3462D"/>
<path d="M14.6149 13.3584H13.2031V14.7871H14.6149V13.3584Z" fill="#E3462D"/>
<path d="M16.0265 13.3584H14.6147V14.7871H16.0265V13.3584Z" fill="#E3462D"/>
<path d="M17.4384 13.3584H16.0266V14.7871H17.4384V13.3584Z" fill="#BE1622"/>
<path d="M18.85 13.3584H17.4382V14.7871H18.85V13.3584Z" fill="#1C1372"/>
<path d="M8.96789 14.7871H7.55615V16.2159H8.96789V14.7871Z" fill="#1C1372"/>
<path d="M10.3798 14.7871H8.96802V16.2159H10.3798V14.7871Z" fill="#E3462D"/>
<path d="M11.7914 14.7871H10.3796V16.2159H11.7914V14.7871Z" fill="#E3462D"/>
<path d="M13.2032 14.7871H11.7915V16.2159H13.2032V14.7871Z" fill="#E3462D"/>
<path d="M14.6149 14.7871H13.2031V16.2159H14.6149V14.7871Z" fill="#E3462D"/>
<path d="M16.0265 14.7871H14.6147V16.2159H16.0265V14.7871Z" fill="#BE1622"/>
<path d="M17.4384 14.7871H16.0266V16.2159H17.4384V14.7871Z" fill="#1C1372"/>
<path d="M10.3798 16.2158H8.96802V17.6446H10.3798V16.2158Z" fill="#1C1372"/>
<path d="M11.7914 16.2158H10.3796V17.6446H11.7914V16.2158Z" fill="#E3462D"/>
<path d="M13.2032 16.2158H11.7915V17.6446H13.2032V16.2158Z" fill="#E3462D"/>
<path d="M14.6149 16.2158H13.2031V17.6446H14.6149V16.2158Z" fill="#BE1622"/>
<path d="M16.0265 16.2158H14.6147V17.6446H16.0265V16.2158Z" fill="#1C1372"/>
<path d="M11.7924 17.6426H10.3806V19.0714H11.7924V17.6426Z" fill="#1C1372"/>
<path d="M14.6158 17.6426H13.2041V19.0714H14.6158V17.6426Z" fill="#1C1372"/>
<path d="M13.2041 19.0713H11.7925V20.5001H13.2041V19.0713Z" fill="#1C1372"/>
<path d="M20.2626 3.35742H18.8508V4.7862H20.2626V3.35742Z" fill="#E3462D"/>
<path d="M13.204 4.78613H11.7922V6.21491H13.204V4.78613Z" fill="#1C1372"/>
<path d="M13.2049 10.499H11.7932V11.9278H13.2049V10.499Z" fill="#E3462D"/>
</g>
<defs>
<clipPath id="clip0_227_32049">
<rect width="24" height="20" fill="white" transform="translate(0.498535 0.5)"/>
</clipPath>
</defs>
</svg>
