<svg width="246" height="97" viewBox="0 0 246 97" fill="none" xmlns="http://www.w3.org/2000/svg">
<g clip-path="url(#clip0_207_1721)">
<path d="M52.1839 31.9073L50.8226 30.5249V30.2871H45.927C45.0162 30.2871 44.2786 29.5488 44.2786 28.6371V10.2394C44.2786 9.80334 44.1053 9.38218 43.7935 9.07497L40.5611 5.8394V5.60156H32.6508C31.74 5.60156 31.0024 6.33984 31.0024 7.25155V37.8334H31.24L34.4774 41.0294C34.7843 41.3316 35.2001 41.5051 35.6357 41.5051H52.8423C53.7531 41.5051 54.4907 40.7668 54.4907 39.8551V34.9299C54.4907 34.4938 54.3174 34.0776 54.0154 33.7704L52.1839 31.9123V31.9073ZM47.0556 35.7078H34.7695C33.8586 35.7078 33.1211 34.9695 33.1211 34.0578V9.36731C33.1211 8.4556 33.8586 7.71732 34.7695 7.71732H36.7941C37.7049 7.71732 38.4424 8.4556 38.4424 9.36731V30.7578C38.4424 31.6695 39.18 32.4078 40.0908 32.4078H47.0556C47.9664 32.4078 48.704 33.1461 48.704 34.0578C48.704 34.9695 47.9664 35.7078 47.0556 35.7078Z" fill="white"/>
<path d="M59.624 20.3026V25.4805C59.624 25.976 60.0249 26.3773 60.5199 26.3773H63.6682C64.1632 26.3773 64.5641 25.976 64.5641 25.4805V20.3026C64.5641 19.8071 64.1632 19.4057 63.6682 19.4057H60.5199C60.0249 19.4057 59.624 19.8071 59.624 20.3026ZM59.624 20.3026V25.4805C59.624 25.976 60.0249 26.3773 60.5199 26.3773H63.6682C64.1632 26.3773 64.5641 25.976 64.5641 25.4805V20.3026C64.5641 19.8071 64.1632 19.4057 63.6682 19.4057H60.5199C60.0249 19.4057 59.624 19.8071 59.624 20.3026ZM74.7762 16.9976L71.9992 14.2229V13.9404H55.1045C54.6095 13.9404 54.2086 14.3418 54.2086 14.8373V15.1148C54.2086 15.6102 53.8076 16.0116 53.3126 16.0116H53.0799C52.5849 16.0116 52.184 16.4129 52.184 16.9084V35.8958H52.4216L54.4907 37.9372L55.8767 39.3097C56.045 39.4732 56.2727 39.5674 56.5054 39.5674H57.6588C57.8914 39.5674 58.1092 39.6566 58.2775 39.8151L59.9259 41.3958C60.0942 41.5543 60.317 41.6435 60.5447 41.6435H74.7713C75.2663 41.6435 75.6672 41.2422 75.6672 40.7467V34.6967C75.6672 34.4688 75.5781 34.2458 75.4197 34.0773L74.7713 33.3935C75.2663 33.3935 75.6672 32.9922 75.6672 32.4967V18.2611C75.6672 18.0233 75.5732 17.7954 75.4049 17.6269L74.7713 16.9927L74.7762 16.9976ZM68.9895 27.6012H68.7569C68.2619 27.6012 67.8609 28.0026 67.8609 28.498V28.7309C67.8609 29.2264 67.46 29.6278 66.9649 29.6278H60.5199C60.0249 29.6278 59.624 30.0291 59.624 30.5246V31.6494C59.624 32.1449 60.0249 32.5462 60.5199 32.5462H68.9895C69.4845 32.5462 69.8855 32.9476 69.8855 33.4431V34.9494C69.8855 35.4449 69.4845 35.8462 68.9895 35.8462H57.2232C56.7281 35.8462 56.3272 35.4449 56.3272 34.9494V34.6719C56.3272 34.1764 55.9262 33.7751 55.4312 33.7751H55.1986C54.7036 33.7751 54.3026 33.3737 54.3026 32.8782V19.0292C54.3026 18.5337 54.7036 18.1323 55.1986 18.1323H55.4312C55.9262 18.1323 56.3272 17.731 56.3272 17.2355V16.953C56.3272 16.4575 56.7281 16.0562 57.2232 16.0562H68.9895C69.4845 16.0562 69.8855 16.4575 69.8855 16.953V26.7044C69.8855 27.1999 69.4845 27.6012 68.9895 27.6012ZM63.6682 19.4057H60.5199C60.0249 19.4057 59.624 19.8071 59.624 20.3026V25.4805C59.624 25.976 60.0249 26.3773 60.5199 26.3773H63.6682C64.1632 26.3773 64.5641 25.976 64.5641 25.4805V20.3026C64.5641 19.8071 64.1632 19.4057 63.6682 19.4057Z" fill="white"/>
<path d="M98.2642 18.2562C98.2642 18.0233 98.1702 17.8003 98.0068 17.6368L94.5912 14.2229V13.9404H77.6768C77.1916 13.9404 76.8006 14.3319 76.8006 14.8175V15.1346C76.8006 15.6202 76.4095 16.0116 75.9244 16.0116H75.6522C75.1671 16.0116 74.776 16.403 74.776 16.8886V27.6508H75.0136L75.672 28.3098L76.2957 28.9341C76.8451 29.4841 76.459 30.4305 75.6769 30.4305H75.6522C75.1671 30.4305 74.776 30.8219 74.776 31.3075V37.9669H75.0136L75.672 38.616L78.4737 41.3908C78.6371 41.5543 78.8598 41.6435 79.0875 41.6435H95.3585C95.8436 41.6435 96.2347 41.2521 96.2347 40.7665V40.4444C96.2347 39.9588 96.6257 39.5674 97.1108 39.5674H97.3831C97.8682 39.5674 98.2593 39.176 98.2593 38.6904V28.5724C98.2593 28.3444 98.1702 28.1215 98.0068 27.958L96.7594 26.6895C96.2149 26.1345 96.6059 25.1981 97.3831 25.1981C97.8682 25.1981 98.2593 24.8066 98.2593 24.321V18.2562H98.2642ZM91.6014 19.4057H83.0922C82.6071 19.4057 82.216 19.7972 82.216 20.2828V23.4242C82.216 23.9098 82.6071 24.3012 83.0922 24.3012H89.5768C90.0619 24.3012 90.453 24.6926 90.453 25.1782V25.5003C90.453 25.9859 90.844 26.3773 91.3291 26.3773H91.6014C92.0865 26.3773 92.4776 26.7688 92.4776 27.2544V32.898C92.4776 33.3836 92.0865 33.7751 91.6014 33.7751H91.3291C90.844 33.7751 90.453 34.1665 90.453 34.6521V34.9692C90.453 35.4548 90.0619 35.8462 89.5768 35.8462H77.7708C77.2857 35.8462 76.8946 35.4548 76.8946 34.9692V33.4233C76.8946 32.9377 77.2857 32.5462 77.7708 32.5462H86.28C86.7651 32.5462 87.1562 32.1548 87.1562 31.6692V28.4782C87.1562 27.9926 86.7651 27.6012 86.28 27.6012H79.7954C79.3103 27.6012 78.9192 27.2098 78.9192 26.7242V26.4071C78.9192 25.9215 78.5282 25.53 78.0431 25.53H77.7708C77.2857 25.53 76.8946 25.1386 76.8946 24.653V19.0093C76.8946 18.5238 77.2857 18.1323 77.7708 18.1323H78.0431C78.5282 18.1323 78.9192 17.7409 78.9192 17.2553V16.9332C78.9192 16.4476 79.3103 16.0562 79.7954 16.0562H91.6014C92.0865 16.0562 92.4776 16.4476 92.4776 16.9332V18.5287C92.4776 19.0143 92.0865 19.4057 91.6014 19.4057Z" fill="white"/>
<path d="M143.781 19.8754L138.083 14.1723V13.8898H132.029C131.782 13.8898 131.539 13.7908 131.366 13.6124L129.901 12.1457V11.8633H113.046C112.526 11.8633 112.105 12.2844 112.105 12.8047V37.9213H112.343L115.738 41.3154C115.917 41.4938 116.154 41.5929 116.402 41.5929H124.386C124.906 41.5929 125.327 41.1717 125.327 40.6515L125.995 41.3204C126.173 41.4938 126.411 41.5929 126.658 41.5929H142.885C143.404 41.5929 143.825 41.1717 143.825 40.6515V19.92L143.781 19.8754ZM137.049 35.8006H133.613C133.093 35.8006 132.673 35.3794 132.673 34.8592V20.2966C132.673 19.7763 132.252 19.3551 131.732 19.3551H130.742C130.222 19.3551 129.802 19.7763 129.802 20.2966V34.8592C129.802 35.3794 129.381 35.8006 128.861 35.8006H125.376C124.856 35.8006 124.436 35.3794 124.436 34.8592V18.2254C124.436 17.7052 124.015 17.284 123.495 17.284H120.481C119.961 17.284 119.54 17.7052 119.54 18.2254V34.8592C119.54 35.3794 119.119 35.8006 118.6 35.8006H115.159C114.639 35.8006 114.219 35.3794 114.219 34.8592V14.9254C114.219 14.4052 114.639 13.984 115.159 13.984H126.837C127.356 13.984 127.777 14.4052 127.777 14.9254V15.0691C127.777 15.5894 128.198 16.0106 128.718 16.0106H135.024C135.544 16.0106 135.964 16.4317 135.964 16.952V17.1898C135.964 17.7101 136.385 18.1313 136.905 18.1313H137.049C137.568 18.1313 137.989 18.5525 137.989 19.0727V34.8592C137.989 35.3794 137.568 35.8006 137.049 35.8006Z" fill="white"/>
<path d="M153.379 3.76225V3.52441H146.463C144.983 3.52441 143.78 4.72846 143.78 6.20999V37.7779H144.062L146.943 40.6666C147.448 41.172 148.131 41.4545 148.844 41.4545H154.369C155.849 41.4545 157.051 40.2504 157.051 38.7689V8.58836C157.051 7.87981 156.774 7.20593 156.279 6.70052L153.379 3.76225ZM149.512 35.6572H147.82C146.755 35.6572 145.894 34.795 145.894 33.7297V19.8361C145.894 18.8154 146.721 17.9829 147.745 17.9829H149.661C150.547 17.9829 151.265 18.7014 151.265 19.5883V33.9032C151.265 34.8694 150.483 35.6522 149.517 35.6522L149.512 35.6572ZM149.78 15.114H147.354C146.547 15.114 145.894 14.46 145.894 13.6523V7.13656C145.894 6.31404 146.562 5.64513 147.384 5.64513H149.854C150.631 5.64513 151.26 6.2744 151.26 7.05233V13.6325C151.26 14.4501 150.597 15.114 149.78 15.114Z" fill="white"/>
<path d="M179.08 19.3512L173.996 14.2229V13.9404H157.146C156.626 13.9404 156.205 14.3616 156.205 14.8819V37.9669H156.438L157.052 38.5764L159.878 41.371C160.057 41.5444 160.294 41.6435 160.537 41.6435H168.531C169.051 41.6435 169.472 41.2223 169.472 40.7021L170.09 41.3512C170.269 41.5395 170.516 41.6435 170.774 41.6435H178.753C179.273 41.6435 179.694 41.2223 179.694 40.7021V20.3571C179.694 20.1093 179.595 19.8715 179.421 19.6931L179.08 19.3512ZM172.962 35.8462H169.526C169.006 35.8462 168.586 35.4251 168.586 34.9048V20.3472C168.586 19.8269 168.165 19.4057 167.645 19.4057H164.581C164.061 19.4057 163.64 19.8269 163.64 20.3472V34.9048C163.64 35.4251 163.22 35.8462 162.7 35.8462H159.265C158.745 35.8462 158.324 35.4251 158.324 34.9048V16.9976C158.324 16.4774 158.745 16.0562 159.265 16.0562H170.937C171.457 16.0562 171.877 16.4774 171.877 16.9976V17.1909C171.877 17.7111 172.298 18.1323 172.818 18.1323H172.962C173.481 18.1323 173.902 18.5535 173.902 19.0738V34.9048C173.902 35.4251 173.481 35.8462 172.962 35.8462Z" fill="white"/>
<path d="M188.683 3.76225V3.52441H181.762C180.282 3.52441 179.079 4.72846 179.079 6.20999V37.7779H179.362L182.248 40.6666C182.752 41.172 183.436 41.4545 184.143 41.4545H189.663C191.143 41.4545 192.346 40.2504 192.346 38.7689V8.5834C192.346 7.8798 192.069 7.20098 191.574 6.69557L188.678 3.7573L188.683 3.76225ZM184.762 35.6572H183.139C182.064 35.6572 181.198 34.7851 181.198 33.7149V19.5735C181.198 18.6964 181.906 17.9879 182.782 17.9879H184.718C185.737 17.9879 186.564 18.8154 186.564 19.8361V33.8536C186.564 34.8495 185.757 35.6572 184.762 35.6572ZM185.079 15.114H182.842C181.936 15.114 181.198 14.3757 181.198 13.469V7.18611C181.198 6.33386 181.886 5.64513 182.738 5.64513H185.015C185.871 5.64513 186.564 6.33881 186.564 7.19602V13.6275C186.564 14.4451 185.901 15.114 185.079 15.114Z" fill="white"/>
<path d="M214.992 18.2562C214.992 18.0233 214.898 17.8003 214.735 17.6368L211.319 14.2229V13.9404H194.405C193.92 13.9404 193.529 14.3319 193.529 14.8175V15.1346C193.529 15.6202 193.138 16.0116 192.653 16.0116H192.38C191.895 16.0116 191.504 16.403 191.504 16.8886V27.6508H191.742L193.024 28.9341C193.573 29.4841 193.187 30.4305 192.405 30.4305H192.38C191.895 30.4305 191.504 30.8219 191.504 31.3075V37.9669H191.742L192.351 38.5714L195.202 41.3908C195.365 41.5543 195.588 41.6435 195.816 41.6435H212.092C212.577 41.6435 212.968 41.2521 212.968 40.7665V40.4444C212.968 39.9588 213.359 39.5674 213.844 39.5674H214.116C214.601 39.5674 214.992 39.176 214.992 38.6904V28.5724C214.992 28.3444 214.903 28.1215 214.74 27.958L213.493 26.6895C212.948 26.1345 213.339 25.1981 214.116 25.1981C214.601 25.1981 214.992 24.8066 214.992 24.321V18.2562ZM208.325 19.4057H199.815C199.33 19.4057 198.939 19.7972 198.939 20.2828V23.4242C198.939 23.9098 199.33 24.3012 199.815 24.3012H206.3C206.785 24.3012 207.176 24.6926 207.176 25.1782V25.5003C207.176 25.9859 207.567 26.3773 208.052 26.3773H208.325C208.81 26.3773 209.201 26.7688 209.201 27.2544V32.898C209.201 33.3836 208.81 33.7751 208.325 33.7751H208.052C207.567 33.7751 207.176 34.1665 207.176 34.6521V34.9692C207.176 35.4548 206.785 35.8462 206.3 35.8462H194.499C194.014 35.8462 193.623 35.4548 193.623 34.9692V33.4233C193.623 32.9377 194.014 32.5462 194.499 32.5462H203.008C203.493 32.5462 203.884 32.1548 203.884 31.6692V28.4782C203.884 27.9926 203.493 27.6012 203.008 27.6012H196.524C196.039 27.6012 195.647 27.2098 195.647 26.7242V26.4071C195.647 25.9215 195.256 25.53 194.771 25.53H194.499C194.014 25.53 193.623 25.1386 193.623 24.653V19.0093C193.623 18.5238 194.014 18.1323 194.499 18.1323H194.771C195.256 18.1323 195.647 17.7409 195.647 17.2553V16.9332C195.647 16.4476 196.039 16.0562 196.524 16.0562H208.325C208.81 16.0562 209.201 16.4476 209.201 16.9332V18.5287C209.201 19.0143 208.81 19.4057 208.325 19.4057Z" fill="white"/>
<path d="M17.261 61.5624V70.6051C17.261 71.165 17.7164 71.6159 18.2708 71.6159H21.1864C21.7458 71.6159 22.1962 71.1601 22.1962 70.6051V61.5624C22.1962 61.0025 21.7408 60.5516 21.1864 60.5516H18.2708C17.7114 60.5516 17.261 61.0074 17.261 61.5624ZM17.261 61.5624V70.6051C17.261 71.165 17.7164 71.6159 18.2708 71.6159H21.1864C21.7458 71.6159 22.1962 71.1601 22.1962 70.6051V61.5624C22.1962 61.0025 21.7408 60.5516 21.1864 60.5516H18.2708C17.7114 60.5516 17.261 61.0074 17.261 61.5624ZM29.6412 43.021V42.7881H21.0923C20.533 42.7881 20.0825 43.2439 20.0825 43.7989V54.1151C20.0825 54.675 19.6271 55.1259 19.0727 55.1259H12.8603C12.301 55.1259 11.8505 55.5817 11.8505 56.1367C11.8505 56.6966 11.3951 57.1525 10.8407 57.1525C10.2813 57.1525 9.83087 57.6083 9.83087 58.1633V75.0051H10.0685L15.5136 80.4159C15.7017 80.6042 15.9591 80.7082 16.2264 80.7082H32.3043C32.8637 80.7082 33.3141 80.2524 33.3141 79.6974V47.1534C33.3141 46.8858 33.2102 46.6331 33.0221 46.4399L29.6461 43.0111L29.6412 43.021ZM26.5077 74.9209H14.974C14.4147 74.9209 13.9642 74.465 13.9642 73.9101C13.9642 73.3502 13.5088 72.8943 12.9544 72.8943C12.395 72.8943 11.9446 72.4384 11.9446 71.8835V60.2939C11.9446 59.734 12.4 59.2831 12.9544 59.2831C13.5137 59.2831 13.9642 58.8272 13.9642 58.2723C13.9642 57.7124 14.4196 57.2615 14.974 57.2615H21.1864C21.7458 57.2615 22.1962 56.8056 22.1962 56.2507V45.9345C22.1962 45.3746 22.6516 44.9237 23.206 44.9237H26.5028C27.0622 44.9237 27.5126 45.3795 27.5126 45.9345V73.92C27.5126 74.4799 27.0572 74.9308 26.5028 74.9308L26.5077 74.9209ZM18.2708 71.6209H21.1864C21.7458 71.6209 22.1962 71.165 22.1962 70.6101V61.5673C22.1962 61.0074 21.7408 60.5565 21.1864 60.5565H18.2708C17.7114 60.5565 17.261 61.0124 17.261 61.5673V70.6101C17.261 71.17 17.7164 71.6209 18.2708 71.6209Z" fill="white"/>
<path d="M40.3088 61.8153V66.4482C40.3088 66.8892 40.6702 67.2509 41.1107 67.2509H43.9273C44.3679 67.2509 44.7293 66.8892 44.7293 66.4482V61.8153C44.7293 61.3743 44.3679 61.0126 43.9273 61.0126H41.1107C40.6702 61.0126 40.3088 61.3743 40.3088 61.8153ZM40.3088 61.8153V66.4482C40.3088 66.8892 40.6702 67.2509 41.1107 67.2509H43.9273C44.3679 67.2509 44.7293 66.8892 44.7293 66.4482V61.8153C44.7293 61.3743 44.3679 61.0126 43.9273 61.0126H41.1107C40.6702 61.0126 40.3088 61.3743 40.3088 61.8153ZM54.6641 59.9968C54.6641 59.7838 54.5799 59.5806 54.4314 59.427L51.3822 56.3748V56.1221H36.2695C35.829 56.1221 35.4676 56.4838 35.4676 56.9248V57.1725C35.4676 57.6135 35.1063 57.9752 34.6657 57.9752H34.4578C34.0172 57.9752 33.6559 58.3369 33.6559 58.7779V75.7585H33.8638L36.9576 78.8107C37.1061 78.9594 37.3091 79.0436 37.5219 79.0436H38.5565C38.7644 79.0436 38.9624 79.1229 39.1109 79.2666L40.5811 80.6788C40.7296 80.8224 40.9276 80.9017 41.1355 80.9017H53.8622C54.3027 80.9017 54.6641 80.54 54.6641 80.099V74.6882C54.6641 74.4801 54.5849 74.2819 54.4413 74.1333L53.8622 73.5238C54.3027 73.5238 54.6641 73.1621 54.6641 72.7211V59.9919V59.9968ZM48.6844 68.3459H48.4765C48.0359 68.3459 47.6746 68.7076 47.6746 69.1486V69.3567C47.6746 69.7977 47.3132 70.1594 46.8726 70.1594H41.1107C40.6702 70.1594 40.3088 70.5211 40.3088 70.9621V71.968C40.3088 72.409 40.6702 72.7707 41.1107 72.7707H48.6844C49.1249 72.7707 49.4863 73.1324 49.4863 73.5734V74.9211C49.4863 75.3621 49.1249 75.7238 48.6844 75.7238H38.1605C37.7199 75.7238 37.3586 75.3621 37.3586 74.9211V74.6684C37.3586 74.2274 36.9972 73.8657 36.5566 73.8657H36.3537C35.9131 73.8657 35.5518 73.504 35.5518 73.063V60.6806C35.5518 60.2396 35.9131 59.8779 36.3537 59.8779H36.5566C36.9972 59.8779 37.3586 59.5162 37.3586 59.0752V58.8225C37.3586 58.3815 37.7199 58.0198 38.1605 58.0198H48.6844C49.1249 58.0198 49.4863 58.3815 49.4863 58.8225V67.5432C49.4863 67.9842 49.1249 68.3459 48.6844 68.3459ZM43.9273 61.0126H41.1107C40.6702 61.0126 40.3088 61.3743 40.3088 61.8153V66.4482C40.3088 66.8892 40.6702 67.2509 41.1107 67.2509H43.9273C44.3679 67.2509 44.7293 66.8892 44.7293 66.4482V61.8153C44.7293 61.3743 44.3679 61.0126 43.9273 61.0126Z" fill="white"/>
<path d="M62.4454 61.5624V70.6101C62.4454 71.17 62.8959 71.6209 63.4552 71.6209H66.3758C66.9352 71.6209 67.3856 71.17 67.3856 70.6101V61.5624C67.3856 61.0025 66.9352 60.5516 66.3758 60.5516H63.4552C62.8959 60.5516 62.4454 61.0025 62.4454 61.5624ZM62.4454 61.5624V70.6101C62.4454 71.17 62.8959 71.6209 63.4552 71.6209H66.3758C66.9352 71.6209 67.3856 71.17 67.3856 70.6101V61.5624C67.3856 61.0025 66.9352 60.5516 66.3758 60.5516H63.4552C62.8959 60.5516 62.4454 61.0025 62.4454 61.5624ZM77.6026 60.2146L72.801 55.3687V55.1308H69.2914C68.732 55.1308 68.2816 54.6799 68.2816 54.12V47.1633C68.2816 46.8957 68.1776 46.6381 67.9846 46.4498L64.5641 43.021V42.7881H56.0153C55.4559 42.7881 55.0054 43.239 55.0054 43.7989V77.0416H55.243L58.6636 80.4258C58.8517 80.6141 59.1091 80.7182 59.3714 80.7182H75.4592C76.0186 80.7182 76.469 80.2673 76.469 79.7074C76.469 79.1425 76.9195 78.6916 77.4789 78.6916C78.0382 78.6916 78.4887 78.2407 78.4887 77.6808V61.5326C78.4887 61.2651 78.3847 61.0124 78.1966 60.8241L77.5977 60.2196L77.6026 60.2146ZM71.6972 72.8943H71.6922C71.1328 72.8943 70.6824 73.3452 70.6824 73.9051C70.6824 74.47 70.2319 74.9209 69.6726 74.9209H58.1339C57.5745 74.9209 57.1241 74.47 57.1241 73.9101V45.9196C57.1241 45.3597 57.5745 44.9088 58.1339 44.9088H61.4356C61.995 44.9088 62.4454 45.3597 62.4454 45.9196V56.2407C62.4454 56.8007 62.8959 57.2516 63.4552 57.2516H69.6726C70.2319 57.2516 70.6824 57.7025 70.6824 58.2624C70.6824 58.8272 71.1328 59.2781 71.6922 59.2781H71.6972C72.2565 59.2781 72.707 59.729 72.707 60.2889V71.8835C72.707 72.4434 72.2565 72.8943 71.6972 72.8943ZM63.4552 71.6209H66.3758C66.9352 71.6209 67.3856 71.17 67.3856 70.6101V61.5624C67.3856 61.0025 66.9352 60.5516 66.3758 60.5516H63.4552C62.8959 60.5516 62.4454 61.0025 62.4454 61.5624V70.6101C62.4454 71.17 62.8959 71.6209 63.4552 71.6209Z" fill="white"/>
<path d="M85.0377 57.5545V70.7544C85.0377 71.3143 85.4882 71.7653 86.0475 71.7653H88.973C89.5324 71.7653 89.9829 71.3143 89.9829 70.7544V57.5545C89.9829 56.9946 89.5324 56.5437 88.973 56.5437H86.0475C85.4882 56.5437 85.0377 56.9946 85.0377 57.5545ZM85.0377 57.5545V70.7544C85.0377 71.3143 85.4882 71.7653 86.0475 71.7653H88.973C89.5324 71.7653 89.9829 71.3143 89.9829 70.7544V57.5545C89.9829 56.9946 89.5324 56.5437 88.973 56.5437H86.0475C85.4882 56.5437 85.0377 56.9946 85.0377 57.5545ZM100.195 56.2166L95.3933 51.4103V51.1279H80.6321C80.0728 51.1279 79.6223 51.5788 79.6223 52.1387C79.6223 52.7036 79.1718 53.1545 78.6125 53.1545C78.0531 53.1545 77.6027 53.6054 77.6027 54.1653V75.1594H77.8353L78.4937 75.8134L83.2804 80.5652C83.4685 80.7535 83.7259 80.8576 83.9932 80.8576H98.0565C98.6158 80.8576 99.0663 80.4067 99.0663 79.8468C99.0663 79.2819 99.5167 78.831 100.076 78.831H100.081C100.64 78.831 101.091 78.3801 101.091 77.8202V57.5297C101.091 57.2621 100.987 57.0045 100.794 56.8162L100.195 56.2166ZM94.2894 73.0387H94.2845C93.7251 73.0387 93.2747 73.4896 93.2747 74.0495C93.2747 74.6094 92.8242 75.0603 92.2648 75.0603H82.7508C82.1914 75.0603 81.7409 74.6094 81.7409 74.0495C81.7409 73.4896 81.2905 73.0387 80.7311 73.0387H80.7262C80.1668 73.0387 79.7163 72.5878 79.7163 72.0279V56.286C79.7163 55.7261 80.1668 55.2752 80.7262 55.2752H80.7311C81.2905 55.2752 81.7409 54.8243 81.7409 54.2644C81.7409 53.6995 82.1914 53.2486 82.7508 53.2486H92.2648C92.8242 53.2486 93.2747 53.6995 93.2747 54.2594C93.2747 54.8243 93.7251 55.2752 94.2845 55.2752H94.2894C94.8488 55.2752 95.2993 55.7261 95.2993 56.286V72.0279C95.2993 72.5878 94.8488 73.0387 94.2894 73.0387ZM86.0475 71.7653H88.973C89.5324 71.7653 89.9829 71.3143 89.9829 70.7544V57.5545C89.9829 56.9946 89.5324 56.5437 88.973 56.5437H86.0475C85.4882 56.5437 85.0377 56.9946 85.0377 57.5545V70.7544C85.0377 71.3143 85.4882 71.7653 86.0475 71.7653Z" fill="white"/>
<path d="M107.63 59.7235V68.8158C107.63 69.3757 108.085 69.8266 108.64 69.8266H111.56C112.119 69.8266 112.57 69.3708 112.57 68.8158V59.7235C112.57 59.1636 112.115 58.7127 111.56 58.7127H108.64C108.08 58.7127 107.63 59.1685 107.63 59.7235ZM107.63 59.7235V68.8158C107.63 69.3757 108.085 69.8266 108.64 69.8266H111.56C112.119 69.8266 112.57 69.3708 112.57 68.8158V59.7235C112.57 59.1636 112.115 58.7127 111.56 58.7127H108.64C108.08 58.7127 107.63 59.1685 107.63 59.7235ZM122.787 58.4253L117.985 53.5794V53.292H101.205C100.645 53.292 100.195 53.7478 100.195 54.3028V73.1762H100.427L101.091 73.8401L104.145 76.8973H104.288V83.4973H104.571L107.947 86.8716C108.135 87.0599 108.392 87.1689 108.664 87.1689H120.648C121.208 87.1689 121.658 86.7131 121.658 86.1581V86.1135C121.658 85.5536 122.114 85.1027 122.668 85.1027C123.227 85.1027 123.678 84.6469 123.678 84.0919V59.7532C123.678 59.4857 123.574 59.228 123.381 59.0397L122.782 58.4352L122.787 58.4253ZM116.881 79.3005C116.322 79.3005 115.872 79.7563 115.872 80.3113V80.3608C115.872 80.9207 115.416 81.3716 114.862 81.3716H107.427C106.867 81.3716 106.417 80.9158 106.417 80.3608V79.0874C106.417 78.5275 106.872 78.0766 107.427 78.0766H111.57C112.129 78.0766 112.58 77.6207 112.58 77.0658V74.1473C112.58 73.5874 112.124 73.1365 111.57 73.1365H105.358C104.798 73.1365 104.348 72.6807 104.348 72.1257V72.0762C104.348 71.5163 103.892 71.0654 103.338 71.0654C102.779 71.0654 102.328 70.6095 102.328 70.0545V56.4384C102.328 55.8785 102.784 55.4276 103.338 55.4276H114.867C115.426 55.4276 115.877 55.8834 115.877 56.4384V56.4879C115.877 57.0478 116.332 57.4987 116.886 57.4987C117.446 57.4987 117.896 57.9546 117.896 58.5095V78.2946C117.896 78.8545 117.441 79.3054 116.886 79.3054L116.881 79.3005ZM108.645 69.8316H111.565C112.124 69.8316 112.575 69.3757 112.575 68.8208V59.7285C112.575 59.1685 112.119 58.7176 111.565 58.7176H108.645C108.085 58.7176 107.635 59.1735 107.635 59.7285V68.8208C107.635 69.3807 108.09 69.8316 108.645 69.8316Z" fill="white"/>
<path d="M146.32 71.0965V59.6605C146.32 59.388 146.211 59.1204 146.018 58.9272L145.85 58.7587L142.652 55.5529V55.2705H134.643C134.37 55.2705 134.113 55.1664 133.92 54.9732L132.39 53.4768V53.1943H123.822C123.252 53.1943 122.787 53.6601 122.787 54.2299V75.1546H123.02L123.683 75.8087L126.44 78.5289C126.633 78.7222 126.896 78.8262 127.168 78.8262H128.242C128.514 78.8262 128.782 78.9352 128.975 79.1285L129.455 79.6091C129.648 79.8024 129.91 79.9114 130.188 79.9114H147.364C147.934 79.9114 148.399 79.4456 148.399 78.8758V74.0299C148.399 73.7573 148.29 73.4898 148.097 73.2965L146.627 71.8249C146.434 71.6317 146.325 71.3691 146.325 71.0916L146.32 71.0965ZM141.568 75.11H128.01C127.44 75.11 126.975 74.6443 126.975 74.0745C126.975 73.5046 126.51 73.0389 125.94 73.0389C125.371 73.0389 124.906 72.5731 124.906 72.0033V56.3556C124.906 55.7858 125.371 55.32 125.94 55.32H129.237C129.806 55.32 130.272 55.7858 130.272 56.3556V70.7745C130.272 71.3443 130.737 71.8101 131.306 71.8101H134.177C134.747 71.8101 135.212 71.3443 135.212 70.7745V58.4317C135.212 57.8619 135.677 57.3961 136.246 57.3961H139.499C140.068 57.3961 140.533 57.8619 140.533 58.4317V70.7745C140.533 71.3443 140.999 71.8101 141.568 71.8101C142.137 71.8101 142.602 72.2758 142.602 72.8456V74.0745C142.602 74.6443 142.137 75.11 141.568 75.11Z" fill="white"/>
<path d="M153.285 59.5594V64.7423C153.285 65.2378 153.686 65.6391 154.181 65.6391H157.334C157.829 65.6391 158.23 65.2378 158.23 64.7423V59.5594C158.23 59.0639 157.829 58.6626 157.334 58.6626H154.181C153.686 58.6626 153.285 59.0639 153.285 59.5594ZM153.285 59.5594V64.7423C153.285 65.2378 153.686 65.6391 154.181 65.6391H157.334C157.829 65.6391 158.23 65.2378 158.23 64.7423V59.5594C158.23 59.0639 157.829 58.6626 157.334 58.6626H154.181C153.686 58.6626 153.285 59.0639 153.285 59.5594ZM169.338 57.5279C169.338 57.29 169.244 57.0621 169.076 56.8936L168.442 56.2594L165.665 53.4797V53.1973H148.77C148.275 53.1973 147.874 53.5986 147.874 54.0941V54.3765C147.874 54.872 147.473 55.2734 146.978 55.2734H146.746C146.251 55.2734 145.85 55.6747 145.85 56.1702V75.1576H146.082L148.394 77.4368L149.542 78.5715C149.711 78.735 149.938 78.8292 150.171 78.8292H151.324C151.557 78.8292 151.78 78.9184 151.943 79.0769L153.587 80.6526C153.755 80.8112 153.978 80.9003 154.205 80.9003H168.437C168.932 80.9003 169.333 80.499 169.333 80.0035V73.9535C169.333 73.7256 169.244 73.5026 169.085 73.3341L168.437 72.6504C168.932 72.6504 169.333 72.249 169.333 71.7535V57.518L169.338 57.5279ZM162.65 66.863H162.418C161.923 66.863 161.522 67.2643 161.522 67.7598V67.9927C161.522 68.4882 161.121 68.8896 160.626 68.8896H154.181C153.686 68.8896 153.285 69.2909 153.285 69.7864V70.9112C153.285 71.4067 153.686 71.808 154.181 71.808H162.65C163.145 71.808 163.546 72.2094 163.546 72.7049V74.2112C163.546 74.7067 163.145 75.108 162.65 75.108H150.889C150.394 75.108 149.993 74.7067 149.993 74.2112V73.9337C149.993 73.4382 149.592 73.0369 149.097 73.0369H148.864C148.369 73.0369 147.968 72.6355 147.968 72.14V58.2909C147.968 57.7955 148.369 57.3941 148.864 57.3941H149.097C149.592 57.3941 149.993 56.9928 149.993 56.4973V56.2148C149.993 55.7193 150.394 55.318 150.889 55.318H162.65C163.145 55.318 163.546 55.7193 163.546 56.2148V65.9661C163.546 66.4616 163.145 66.863 162.65 66.863ZM157.334 58.6626H154.181C153.686 58.6626 153.285 59.0639 153.285 59.5594V64.7423C153.285 65.2378 153.686 65.6391 154.181 65.6391H157.334C157.829 65.6391 158.23 65.2378 158.23 64.7423V59.5594C158.23 59.0639 157.829 58.6626 157.334 58.6626Z" fill="white"/>
<path d="M191.974 71.0965V59.6605C191.974 59.388 191.866 59.1204 191.673 58.9272L191.46 58.7141L188.306 55.5529V55.2705H180.302C180.03 55.2705 179.772 55.1664 179.579 54.9781L178.045 53.4768V53.1943H169.476C168.907 53.1943 168.442 53.6601 168.442 54.2299V75.1546H168.674L169.338 75.8087L172.095 78.529C172.288 78.7222 172.55 78.8263 172.823 78.8263H173.897C174.174 78.8263 174.436 78.9353 174.629 79.1335L175.1 79.6091C175.293 79.8024 175.56 79.9163 175.832 79.9163H193.009C193.578 79.9163 194.044 79.4506 194.044 78.8807V74.0348C194.044 73.7623 193.935 73.4947 193.742 73.3015L192.271 71.8299C192.078 71.6366 191.97 71.374 191.97 71.0965H191.974ZM187.222 75.11H173.664C173.095 75.11 172.629 74.6443 172.629 74.0745C172.629 73.5046 172.164 73.0389 171.595 73.0389C171.026 73.0389 170.56 72.5731 170.56 72.0033V56.3556C170.56 55.7858 171.026 55.32 171.595 55.32H174.892C175.461 55.32 175.926 55.7858 175.926 56.3556V70.7745C175.926 71.3443 176.392 71.8101 176.961 71.8101H179.832C180.401 71.8101 180.866 71.3443 180.866 70.7745V58.4317C180.866 57.8619 181.332 57.3961 181.901 57.3961H185.153C185.723 57.3961 186.188 57.8619 186.188 58.4317V70.7745C186.188 71.3443 186.653 71.8101 187.222 71.8101C187.792 71.8101 188.257 72.2758 188.257 72.8456V74.0745C188.257 74.6443 187.792 75.11 187.222 75.11Z" fill="white"/>
<path d="M212.686 58.9468L209.25 55.5081V55.2752H204.731V55.0869L201.014 51.4103V51.1279H193.103C192.192 51.1279 191.46 51.8662 191.46 52.773V77.181H191.692L194.049 79.5098L194.93 80.3819C195.237 80.6891 195.653 80.8576 196.088 80.8576H203.088C203.998 80.8576 204.731 80.1193 204.731 79.2125V68.1382C204.731 67.2265 205.469 66.4932 206.374 66.4932H211.275C212.186 66.4932 212.919 65.7549 212.919 64.8482V59.1896L212.681 58.9518L212.686 58.9468ZM205.488 60.691H200.543C199.632 60.691 198.9 61.4292 198.9 62.336V73.4103C198.9 74.322 198.162 75.0553 197.256 75.0553H195.227C194.316 75.0553 193.583 74.317 193.583 73.4103V54.8937C193.583 53.982 194.321 53.2486 195.227 53.2486H197.256C198.167 53.2486 198.9 53.9869 198.9 54.8937V55.7459C198.9 56.6576 199.637 57.391 200.543 57.391H205.488C206.399 57.391 207.132 58.1293 207.132 59.036C207.132 59.9477 206.394 60.6811 205.488 60.6811V60.691Z" fill="white"/>
<path d="M236.174 57.518C236.174 57.2851 236.08 57.0621 235.917 56.8986L232.501 53.4797V53.1973H215.587C215.101 53.1973 214.71 53.5887 214.71 54.0743V54.3964C214.71 54.8819 214.319 55.2734 213.834 55.2734H213.562C213.077 55.2734 212.686 55.6648 212.686 56.1504V66.9125H212.918L214.2 68.1959C214.75 68.7459 214.364 69.6923 213.582 69.6923H213.562C213.077 69.6923 212.686 70.0837 212.686 70.5693V77.2287H212.918L216.383 80.6526C216.547 80.8161 216.77 80.9053 216.997 80.9053H233.273C233.758 80.9053 234.149 80.5139 234.149 80.0283V79.7062C234.149 79.2206 234.54 78.8292 235.026 78.8292H235.298C235.783 78.8292 236.174 78.4377 236.174 77.9521V67.8342C236.174 67.6062 236.085 67.3833 235.922 67.2197L234.674 65.9513C234.13 65.3963 234.521 64.4598 235.298 64.4598C235.783 64.4598 236.174 64.0684 236.174 63.5828V57.518ZM229.506 58.6626H220.997C220.512 58.6626 220.121 59.054 220.121 59.5396V62.686C220.121 63.1716 220.512 63.563 220.997 63.563H227.482C227.967 63.563 228.358 63.9544 228.358 64.44V64.7621C228.358 65.2477 228.749 65.6391 229.234 65.6391H229.506C229.991 65.6391 230.382 66.0306 230.382 66.5161V72.1598C230.382 72.6454 229.991 73.0369 229.506 73.0369H229.234C228.749 73.0369 228.358 73.4283 228.358 73.9139V74.231C228.358 74.7166 227.967 75.108 227.482 75.108H215.681C215.195 75.108 214.804 74.7166 214.804 74.231V72.685C214.804 72.1995 215.195 71.808 215.681 71.808H224.19C224.675 71.808 225.066 71.4166 225.066 70.931V67.74C225.066 67.2544 224.675 66.863 224.19 66.863H217.705C217.22 66.863 216.829 66.4716 216.829 65.986V65.6688C216.829 65.1833 216.438 64.7918 215.953 64.7918H215.681C215.195 64.7918 214.804 64.4004 214.804 63.9148V58.2711C214.804 57.7855 215.195 57.3941 215.681 57.3941H215.953C216.438 57.3941 216.829 57.0027 216.829 56.5171V56.195C216.829 55.7094 217.22 55.318 217.705 55.318H229.506C229.991 55.318 230.382 55.7094 230.382 56.195V57.7855C230.382 58.2711 229.991 58.6626 229.506 58.6626Z" fill="white"/>
<path d="M50.4813 48.7093V48.5705L34.6756 48.5557V53.7782H34.7894L36.6111 55.5818L52.2781 55.5966V50.5129L50.4813 48.7093ZM49.4368 52.7525L35.7151 52.7376V49.5962L49.4417 49.6111V52.7525H49.4368Z" fill="white"/>
</g>
<defs>
<clipPath id="clip0_207_1721">
<rect width="246" height="97" fill="white"/>
</clipPath>
</defs>
</svg>
