<svg width="24" height="21" fill="none" xmlns="http://www.w3.org/2000/svg"><g clip-path="url('#clip0_227_32349')"><path d="M15.706 10.5h-1.383v1.395h1.383V10.5ZM12.94 17.473h-1.382v1.395h1.382v-1.395ZM17.088 7.71h-1.382v1.395h1.382V7.71Z" fill="#ECEAFD"/><path d="M24 3.527h-1.383v1.395h1.382V3.527Z" fill="#1C1372"/><path d="M19.852 2.133H18.47v1.395h1.382V2.133ZM21.235 4.923h-1.383v1.395h1.383V4.923Z" fill="#ECEAFD"/><path d="M4.646.738H3.263v1.395h1.383V.738ZM6.028.738H4.646v1.395h1.382V.738ZM7.41.738H6.029v1.395h1.383V.738Z" fill="#1C1372"/><path d="M8.793.738H7.41v1.395h1.383V.738ZM17.087.738h-1.382v1.395h1.382V.738ZM18.47.738h-1.383v1.395h1.383V.738ZM19.852.738H18.47v1.395h1.382V.738ZM21.235.738h-1.383v1.395h1.383V.738ZM3.264 2.133H1.88v1.395h1.383V2.133Z" fill="#1C1372"/><path d="M4.646 2.133H3.263v1.395h1.383V2.133ZM6.028 2.133H4.646v1.395h1.382V2.133ZM7.41 2.133H6.029v1.395h1.383V2.133Z" fill="#ECEAFD"/><path d="M8.793 2.133H7.41v1.395h1.383V2.133Z" fill="#ECEAFD"/><path d="M10.175 2.133H8.793v1.395h1.382V2.133ZM15.705 2.133h-1.383v1.395h1.383V2.133Z" fill="#1C1372"/><path d="M17.087 2.133h-1.382v1.395h1.382V2.133ZM18.47 2.133h-1.383v1.395h1.383V2.133ZM21.235 2.133h-1.383v1.395h1.383V2.133Z" fill="#ECEAFD"/><path d="M22.617 2.133h-1.383v1.395h1.383V2.133ZM1.881 3.527H.499v1.395H1.88V3.527Z" fill="#1C1372"/><path d="M3.264 3.527H1.88v1.395h1.383V3.527Z" fill="#ECEAFD"/><path d="M4.646 3.527H3.263v1.395h1.383V3.527Z" fill="#ECEAFD"/><path d="M6.028 3.527H4.646v1.395h1.382V3.527Z" fill="#DFDCFF"/><path d="M7.41 3.527H6.029v1.395h1.383V3.527Z" fill="#ADA7E0"/><path d="M8.793 3.527H7.41v1.395h1.383V3.527ZM10.175 3.527H8.793v1.395h1.382V3.527Z" fill="#ECEAFD"/><path d="M11.558 3.527h-1.383v1.395h1.383V3.527ZM14.323 3.527H12.94v1.395h1.383V3.527Z" fill="#1C1372"/><path d="M15.705 3.527h-1.383v1.395h1.383V3.527ZM17.087 3.527h-1.382v1.395h1.382V3.527ZM18.47 3.527h-1.383v1.395h1.383V3.527ZM21.235 3.527h-1.383v1.395h1.383V3.527Z" fill="#ECEAFD"/><path d="M22.617 3.527h-1.383v1.395h1.383V3.527Z" fill="#ECEAFD"/><path d="M1.881 4.923H.499v1.395H1.88V4.923Z" fill="#1C1372"/><path d="M3.264 4.923H1.88v1.395h1.383V4.923Z" fill="#ECEAFD"/><path d="M4.646 4.923H3.263v1.395h1.383V4.923Z" fill="#DFDCFF"/><path d="M6.028 4.923H4.646v1.395h1.382V4.923Z" fill="#ADA7E0"/><path d="M7.41 4.923H6.029v1.395h1.383V4.923Z" fill="#ECEAFD"/><path d="M8.793 4.923H7.41v1.395h1.383V4.923ZM10.175 4.923H8.793v1.395h1.382V4.923ZM11.558 4.923h-1.383v1.395h1.383V4.923ZM14.323 4.923H12.94v1.395h1.383V4.923Z" fill="#ECEAFD"/><path d="M15.705 4.923h-1.383v1.395h1.383V4.923ZM17.087 4.923h-1.382v1.395h1.382V4.923ZM18.47 4.923h-1.383v1.395h1.383V4.923ZM19.852 4.923H18.47v1.395h1.382V4.923ZM22.617 4.923h-1.383v1.395h1.383V4.923Z" fill="#ECEAFD"/><path d="M24 4.923h-1.383v1.395h1.382V4.923ZM1.882 6.315H.5V7.71h1.382V6.315Z" fill="#1C1372"/><path d="M3.264 6.315H1.883V7.71h1.383V6.315Z" fill="#ECEAFD"/><path d="M4.647 6.315H3.264V7.71h1.383V6.315Z" fill="#ECEAFD"/><path d="M6.03 6.315H4.646V7.71h1.382V6.315Z" fill="#ECEAFD"/><path d="M7.412 6.315H6.029V7.71h1.383V6.315Z" fill="#ECEAFD"/><path d="M8.794 6.315H7.41V7.71h1.383V6.315ZM10.176 6.315H8.794V7.71h1.382V6.315Z" fill="#ECEAFD"/><path d="M11.559 6.315h-1.383V7.71h1.383V6.315ZM12.941 6.315h-1.382V7.71h1.382V6.315Z" fill="#ECEAFD"/><path d="M14.324 6.315H12.94V7.71h1.383V6.315Z" fill="#ECEAFD"/><path d="M15.706 6.315h-1.383V7.71h1.383V6.315ZM17.088 6.315h-1.382V7.71h1.382V6.315Z" fill="#ECEAFD"/><path d="M18.47 6.315h-1.382V7.71h1.383V6.315ZM19.853 6.315h-1.382V7.71h1.382V6.315Z" fill="#ECEAFD"/><path d="M21.235 6.315h-1.382V7.71h1.382V6.315ZM22.618 6.315h-1.383V7.71h1.383V6.315Z" fill="#ECEAFD"/><path d="M24 6.315h-1.382V7.71H24V6.315ZM3.264 7.71H1.883v1.395h1.383V7.71Z" fill="#1C1372"/><path d="M4.647 7.71H3.264v1.395h1.383V7.71Z" fill="#ECEAFD"/><path d="M6.03 7.71H4.646v1.395h1.382V7.71Z" fill="#ECEAFD"/><path d="M7.412 7.71H6.029v1.395h1.383V7.71Z" fill="#ECEAFD"/><path d="M8.794 7.71H7.41v1.395h1.383V7.71ZM10.176 7.71H8.794v1.395h1.382V7.71Z" fill="#ECEAFD"/><path d="M11.559 7.71h-1.383v1.395h1.383V7.71ZM12.941 7.71H11.56v1.395h1.382V7.71Z" fill="#ECEAFD"/><path d="M14.324 7.71H12.94v1.395h1.383V7.71Z" fill="#ECEAFD"/><path d="M15.706 7.71h-1.383v1.395h1.383V7.71ZM18.47 7.71h-1.382v1.395h1.383V7.71ZM19.853 7.71h-1.382v1.395h1.382V7.71Z" fill="#ECEAFD"/><path d="M21.235 7.71h-1.382v1.395h1.382V7.71Z" fill="#ECEAFD"/><path d="M22.618 7.71h-1.383v1.395h1.383V7.71ZM3.264 9.105H1.883V10.5h1.383V9.105Z" fill="#1C1372"/><path d="M4.647 9.105H3.264V10.5h1.383V9.105Z" fill="#ECEAFD"/><path d="M6.03 9.105H4.646V10.5h1.382V9.105Z" fill="#ECEAFD"/><path d="M7.412 9.105H6.029V10.5h1.383V9.105Z" fill="#ECEAFD"/><path d="M8.794 9.105H7.41V10.5h1.383V9.105ZM10.176 9.105H8.794V10.5h1.382V9.105Z" fill="#ECEAFD"/><path d="M11.559 9.105h-1.383V10.5h1.383V9.105ZM12.941 9.105h-1.382V10.5h1.382V9.105Z" fill="#ECEAFD"/><path d="M14.324 9.105H12.94V10.5h1.383V9.105Z" fill="#ECEAFD"/><path d="M15.706 9.105h-1.383V10.5h1.383V9.105ZM17.088 9.105h-1.382V10.5h1.382V9.105Z" fill="#ECEAFD"/><path d="M18.47 9.105h-1.382V10.5h1.383V9.105ZM19.853 9.105h-1.382V10.5h1.382V9.105Z" fill="#ECEAFD"/><path d="M21.235 9.105h-1.382V10.5h1.382V9.105Z" fill="#ECEAFD"/><path d="M22.618 9.105h-1.383V10.5h1.383V9.105ZM4.647 10.5H3.264v1.395h1.383V10.5Z" fill="#1C1372"/><path d="M6.03 10.5H4.646v1.395h1.382V10.5Z" fill="#ECEAFD"/><path d="M7.412 10.5H6.029v1.395h1.383V10.5Z" fill="#ECEAFD"/><path d="M8.794 10.5H7.41v1.395h1.383V10.5ZM10.176 10.5H8.794v1.395h1.382V10.5Z" fill="#ECEAFD"/><path d="M11.559 10.5h-1.383v1.395h1.383V10.5ZM14.324 10.5H12.94v1.395h1.383V10.5ZM17.088 10.5h-1.382v1.395h1.382V10.5Z" fill="#ECEAFD"/><path d="M18.47 10.5h-1.382v1.395h1.383V10.5ZM19.853 10.5h-1.382v1.395h1.382V10.5Z" fill="#ECEAFD"/><path d="M21.235 10.5h-1.382v1.395h1.382V10.5ZM6.027 11.896H4.645v1.394h1.382v-1.394Z" fill="#1C1372"/><path d="M7.41 11.896H6.027v1.394H7.41v-1.394ZM8.792 11.896H7.41v1.394h1.382v-1.394ZM10.174 11.896H8.792v1.394h1.382v-1.394ZM11.557 11.896h-1.382v1.394h1.382v-1.394Z" fill="#ECEAFD"/><path d="M12.94 11.896h-1.383v1.394h1.382v-1.394Z" fill="#ECEAFD"/><path d="M14.322 11.896h-1.383v1.394h1.383v-1.394Z" fill="#ECEAFD"/><path d="M15.704 11.896h-1.383v1.394h1.383v-1.394ZM17.087 11.896h-1.383v1.394h1.383v-1.394Z" fill="#ECEAFD"/><path d="M18.469 11.896h-1.383v1.394h1.383v-1.394Z" fill="#ECEAFD"/><path d="M19.851 11.896H18.47v1.394h1.382v-1.394ZM7.41 13.291H6.027v1.395H7.41V13.29Z" fill="#1C1372"/><path d="M8.792 13.291H7.41v1.395h1.382V13.29ZM10.174 13.291H8.792v1.395h1.382V13.29ZM11.557 13.291h-1.382v1.395h1.382V13.29Z" fill="#ECEAFD"/><path d="M12.94 13.291h-1.383v1.395h1.382V13.29Z" fill="#ECEAFD"/><path d="M14.322 13.291h-1.383v1.395h1.383V13.29Z" fill="#ECEAFD"/><path d="M15.704 13.291h-1.383v1.395h1.383V13.29ZM17.087 13.291h-1.383v1.395h1.383V13.29Z" fill="#ECEAFD"/><path d="M18.469 13.291h-1.383v1.395h1.383V13.29ZM8.792 14.685H7.41v1.395h1.382v-1.394Z" fill="#1C1372"/><path d="M10.174 14.685H8.792v1.395h1.382v-1.394ZM11.557 14.685h-1.382v1.395h1.382v-1.394Z" fill="#ECEAFD"/><path d="M12.94 14.685h-1.383v1.395h1.382v-1.394Z" fill="#ECEAFD"/><path d="M14.322 14.685h-1.383v1.395h1.383v-1.394Z" fill="#ECEAFD"/><path d="M15.704 14.685h-1.383v1.395h1.383v-1.394Z" fill="#ECEAFD"/><path d="M17.087 14.685h-1.383v1.395h1.383v-1.394ZM10.174 16.08H8.792v1.395h1.382V16.08Z" fill="#1C1372"/><path d="M11.557 16.08h-1.382v1.395h1.382V16.08Z" fill="#ECEAFD"/><path d="M12.94 16.08h-1.383v1.395h1.382V16.08Z" fill="#ECEAFD"/><path d="M14.322 16.08h-1.383v1.395h1.383V16.08Z" fill="#ECEAFD"/><path d="M15.704 16.08h-1.383v1.395h1.383V16.08ZM11.558 17.473h-1.383v1.395h1.383v-1.395Z" fill="#1C1372"/><path d="M14.323 17.473H12.94v1.395h1.383v-1.395ZM12.94 18.868h-1.382v1.395h1.382v-1.395Z" fill="#1C1372"/><path d="M19.852 3.527H18.47v1.395h1.382V3.527Z" fill="#ECEAFD"/><path d="M12.94 4.923h-1.382v1.395h1.382V4.923Z" fill="#1C1372"/><path d="M12.941 10.5H11.56v1.395h1.382V10.5Z" fill="#ECEAFD"/></g><path d="M19.236 5.425h-1.382V6.82h1.382V5.425ZM20.62 6.816h-1.383v1.395h1.383V6.816ZM19.237 8.212h-1.382v1.395h1.382V8.212Z" fill="#ADA7E0"/><path d="M17.855 9.606h-1.383v1.395h1.383V9.606Z" fill="#ADA7E0"/><defs><clipPath id="clip0_227_32349"><path fill="#fff" transform="translate(.499 .738)" d="M0 0h23.502v19.524H0z"/></clipPath></defs></svg>