<svg width="25" height="21" fill="none" xmlns="http://www.w3.org/2000/svg"><g clip-path="url('#clip0_227_32049')"><path d="M16.028 10.499h-1.411v1.429h1.411v-1.429Z" fill="#E3462D"/><path d="M13.204 17.643h-1.412v1.428h1.412v-1.428Z" fill="#BE1622"/><path d="M17.44 7.642h-1.412V9.07h1.412V7.642Z" fill="#E3462D"/><path d="M24.498 3.357h-1.412v1.43h1.412v-1.43Z" fill="#1C1372"/><path d="M20.263 1.929H18.85v1.428h1.412V1.93Z" fill="#BE1622"/><path d="M21.674 4.786h-1.412v1.429h1.412V4.786Z" fill="#E3462D"/><path d="M4.734.5H3.322v1.429h1.412V.5ZM6.145.5H4.734v1.429h1.411V.5ZM7.557.5H6.146v1.429h1.411V.5ZM8.969.5H7.557v1.429H8.97V.5ZM17.44.5h-1.412v1.429h1.411V.5Z" fill="#1C1372"/><path d="M18.851.5h-1.412v1.429h1.412V.5Z" fill="#1C1372"/><path d="M20.263.5H18.85v1.429h1.412V.5Z" fill="#1C1372"/><path d="M21.674.5h-1.412v1.429h1.412V.5ZM3.322 1.929H1.91v1.428h1.412V1.93Z" fill="#1C1372"/><path d="M4.734 1.929H3.322v1.428h1.412V1.93ZM6.145 1.929H4.734v1.428h1.411V1.93ZM7.557 1.929H6.146v1.428h1.411V1.93ZM8.969 1.929H7.557v1.428H8.97V1.93Z" fill="#E3462D"/><path d="M10.38 1.929H8.97v1.428h1.412V1.93ZM16.027 1.929h-1.411v1.428h1.412V1.93Z" fill="#1C1372"/><path d="M17.44 1.929h-1.412v1.428h1.411V1.93Z" fill="#BE1622"/><path d="M18.851 1.929h-1.412v1.428h1.412V1.93ZM21.674 1.929h-1.412v1.428h1.412V1.93Z" fill="#BE1622"/><path d="M23.086 1.929h-1.412v1.428h1.412V1.93ZM1.91 3.357H.5v1.43H1.91v-1.43Z" fill="#1C1372"/><path d="M3.322 3.357H1.91v1.43h1.412v-1.43ZM4.734 3.357H3.322v1.43h1.412v-1.43Z" fill="#E3462D"/><path d="M6.145 3.357H4.734v1.43h1.411v-1.43Z" fill="#FCDDD1"/><path d="M7.557 3.357H6.146v1.43h1.411v-1.43Z" fill="#F7B8A1"/><path d="M8.969 3.357H7.557v1.43H8.97v-1.43ZM10.38 3.357H8.97v1.43h1.412v-1.43Z" fill="#E3462D"/><path d="M11.792 3.357h-1.411v1.43h1.411v-1.43ZM14.616 3.357h-1.412v1.43h1.412v-1.43Z" fill="#1C1372"/><path d="M16.027 3.357h-1.411v1.43h1.412v-1.43Z" fill="#BE1622"/><path d="M17.44 3.357h-1.412v1.43h1.411v-1.43Z" fill="#E3462D"/><path d="M18.851 3.357h-1.412v1.43h1.412v-1.43Z" fill="#E3462D"/><path d="M21.674 3.357h-1.412v1.43h1.412v-1.43ZM23.086 3.357h-1.412v1.43h1.412v-1.43Z" fill="#BE1622"/><path d="M1.91 4.786H.5v1.429H1.91V4.786Z" fill="#1C1372"/><path d="M3.322 4.786H1.91v1.429h1.412V4.786Z" fill="#E3462D"/><path d="M4.734 4.786H3.322v1.429h1.412V4.786Z" fill="#FCDDD1"/><path d="M6.145 4.786H4.734v1.429h1.411V4.786Z" fill="#F7B8A1"/><path d="M7.557 4.786H6.146v1.429h1.411V4.786ZM8.969 4.786H7.557v1.429H8.97V4.786ZM10.38 4.786H8.97v1.429h1.412V4.786Z" fill="#E3462D"/><path d="M11.792 4.786h-1.411v1.429h1.411V4.786Z" fill="#E3462D"/><path d="M14.616 4.786h-1.412v1.429h1.412V4.786Z" fill="#BE1622"/><path d="M16.027 4.786h-1.411v1.429h1.412V4.786ZM17.44 4.786h-1.412v1.429h1.411V4.786Z" fill="#E3462D"/><path d="M18.851 4.786h-1.412v1.429h1.412V4.786Z" fill="#E3462D"/><path d="M20.263 4.786H18.85v1.429h1.412V4.786Z" fill="#E3462D"/><path d="M23.086 4.786h-1.412v1.429h1.412V4.786Z" fill="#BE1622"/><path d="M24.498 4.786h-1.412v1.429h1.412V4.786ZM1.911 6.213H.5v1.429H1.91v-1.43Z" fill="#1C1372"/><path d="M3.323 6.213H1.911v1.429h1.412v-1.43ZM4.735 6.213H3.323v1.429h1.412v-1.43ZM6.147 6.213H4.735v1.429h1.412v-1.43Z" fill="#E3462D"/><path d="M7.558 6.213H6.146v1.429h1.412v-1.43ZM8.97 6.213H7.558v1.429H8.97v-1.43ZM10.382 6.213H8.97v1.429h1.412v-1.43Z" fill="#E3462D"/><path d="M11.793 6.213h-1.411v1.429h1.411v-1.43Z" fill="#E3462D"/><path d="M13.205 6.213h-1.412v1.429h1.412v-1.43Z" fill="#BE1622"/><path d="M14.617 6.213h-1.412v1.429h1.412v-1.43Z" fill="#E3462D"/><path d="M16.028 6.213h-1.411v1.429h1.411v-1.43ZM17.44 6.213h-1.412v1.429h1.412v-1.43ZM18.852 6.213H17.44v1.429h1.412v-1.43ZM20.264 6.213h-1.412v1.429h1.412v-1.43Z" fill="#E3462D"/><path d="M21.675 6.213h-1.412v1.429h1.412v-1.43Z" fill="#E3462D"/><path d="M23.087 6.213h-1.412v1.429h1.412v-1.43Z" fill="#BE1622"/><path d="M24.499 6.213h-1.412v1.429h1.412v-1.43ZM3.323 7.642H1.911V9.07h1.412V7.642Z" fill="#1C1372"/><path d="M4.735 7.642H3.323V9.07h1.412V7.642ZM6.147 7.642H4.735V9.07h1.412V7.642Z" fill="#E3462D"/><path d="M7.558 7.642H6.146V9.07h1.412V7.642ZM8.97 7.642H7.558V9.07H8.97V7.642ZM10.382 7.642H8.97V9.07h1.412V7.642Z" fill="#E3462D"/><path d="M11.793 7.642h-1.411V9.07h1.411V7.642ZM13.205 7.642h-1.412V9.07h1.412V7.642ZM14.617 7.642h-1.412V9.07h1.412V7.642Z" fill="#E3462D"/><path d="M16.028 7.642h-1.411V9.07h1.411V7.642ZM18.852 7.642H17.44V9.07h1.412V7.642ZM20.264 7.642h-1.412V9.07h1.412V7.642Z" fill="#E3462D"/><path d="M21.675 7.642h-1.412V9.07h1.412V7.642Z" fill="#BE1622"/><path d="M23.087 7.642h-1.412V9.07h1.412V7.642ZM3.323 9.07H1.911v1.43h1.412V9.07Z" fill="#1C1372"/><path d="M4.735 9.07H3.323v1.43h1.412V9.07ZM6.147 9.07H4.735v1.43h1.412V9.07Z" fill="#E3462D"/><path d="M7.558 9.07H6.146v1.43h1.412V9.07ZM8.97 9.07H7.558v1.43H8.97V9.07ZM10.382 9.07H8.97v1.43h1.412V9.07Z" fill="#E3462D"/><path d="M11.793 9.07h-1.411v1.43h1.411V9.07ZM13.205 9.07h-1.412v1.43h1.412V9.07ZM14.617 9.07h-1.412v1.43h1.412V9.07Z" fill="#E3462D"/><path d="M16.028 9.07h-1.411v1.43h1.411V9.07ZM17.44 9.07h-1.412v1.43h1.412V9.07ZM18.852 9.07H17.44v1.43h1.412V9.07ZM20.264 9.07h-1.412v1.43h1.412V9.07Z" fill="#E3462D"/><path d="M21.675 9.07h-1.412v1.43h1.412V9.07Z" fill="#BE1622"/><path d="M23.087 9.07h-1.412v1.43h1.412V9.07ZM4.735 10.499H3.323v1.429h1.412v-1.429Z" fill="#1C1372"/><path d="M6.147 10.499H4.735v1.429h1.412v-1.429Z" fill="#E3462D"/><path d="M7.558 10.499H6.146v1.429h1.412v-1.429ZM8.97 10.499H7.558v1.429H8.97v-1.429ZM10.382 10.499H8.97v1.429h1.412v-1.429Z" fill="#E3462D"/><path d="M11.793 10.499h-1.411v1.429h1.411v-1.429ZM14.617 10.499h-1.412v1.429h1.412v-1.429ZM17.44 10.499h-1.412v1.429h1.412v-1.429ZM18.852 10.499H17.44v1.429h1.412v-1.429Z" fill="#E3462D"/><path d="M20.264 10.499h-1.412v1.429h1.412v-1.429Z" fill="#BE1622"/><path d="M21.675 10.499h-1.412v1.429h1.412v-1.429ZM6.145 11.93H4.733v1.428h1.412V11.93Z" fill="#1C1372"/><path d="M7.556 11.93H6.145v1.428h1.411V11.93ZM8.968 11.93H7.556v1.428h1.412V11.93ZM10.38 11.93H8.968v1.428h1.412V11.93ZM11.791 11.93H10.38v1.428h1.411V11.93ZM13.203 11.93h-1.412v1.428h1.412V11.93ZM14.615 11.93h-1.412v1.428h1.412V11.93ZM16.026 11.93h-1.411v1.428h1.411V11.93ZM17.438 11.93h-1.411v1.428h1.411V11.93Z" fill="#E3462D"/><path d="M18.85 11.93h-1.412v1.428h1.412V11.93Z" fill="#BE1622"/><path d="M20.262 11.93H18.85v1.428h1.412V11.93ZM7.556 13.358H6.145v1.43h1.411v-1.43Z" fill="#1C1372"/><path d="M8.968 13.358H7.556v1.43h1.412v-1.43ZM10.38 13.358H8.968v1.43h1.412v-1.43ZM11.791 13.358H10.38v1.43h1.411v-1.43ZM13.203 13.358h-1.412v1.43h1.412v-1.43ZM14.615 13.358h-1.412v1.43h1.412v-1.43ZM16.026 13.358h-1.411v1.43h1.411v-1.43Z" fill="#E3462D"/><path d="M17.438 13.358h-1.411v1.43h1.411v-1.43Z" fill="#BE1622"/><path d="M18.85 13.358h-1.412v1.43h1.412v-1.43ZM8.968 14.787H7.556v1.429h1.412v-1.429Z" fill="#1C1372"/><path d="M10.38 14.787H8.968v1.429h1.412v-1.429ZM11.791 14.787H10.38v1.429h1.411v-1.429ZM13.203 14.787h-1.412v1.429h1.412v-1.429ZM14.615 14.787h-1.412v1.429h1.412v-1.429Z" fill="#E3462D"/><path d="M16.026 14.787h-1.411v1.429h1.411v-1.429Z" fill="#BE1622"/><path d="M17.438 14.787h-1.411v1.429h1.411v-1.429ZM10.38 16.216H8.968v1.429h1.412v-1.43Z" fill="#1C1372"/><path d="M11.791 16.216H10.38v1.429h1.411v-1.43ZM13.203 16.216h-1.412v1.429h1.412v-1.43Z" fill="#E3462D"/><path d="M14.615 16.216h-1.412v1.429h1.412v-1.43Z" fill="#BE1622"/><path d="M16.026 16.216h-1.411v1.429h1.411v-1.43ZM11.792 17.643h-1.411v1.428h1.411v-1.428Z" fill="#1C1372"/><path d="M14.616 17.643h-1.412v1.428h1.412v-1.428ZM13.204 19.071h-1.412v1.43h1.412v-1.43Z" fill="#1C1372"/><path d="M20.263 3.357H18.85v1.43h1.412v-1.43Z" fill="#E3462D"/><path d="M13.204 4.786h-1.412v1.429h1.412V4.786Z" fill="#1C1372"/><path d="M13.205 10.499h-1.412v1.429h1.412v-1.429Z" fill="#E3462D"/></g><defs><clipPath id="clip0_227_32049"><path fill="#fff" transform="translate(.499 .5)" d="M0 0h24v20H0z"/></clipPath></defs></svg>