<svg width="131" height="134" viewBox="0 0 131 134" fill="none" xmlns="http://www.w3.org/2000/svg">
<g clip-path="url('#clip0_215_19464')">
<path d="M27.9139 117.216C27.6861 116.705 27.8339 116.17 27.8218 115.648C27.7954 114.497 27.8132 114.497 26.6795 114.497C25.358 114.497 24.0372 114.5 22.7156 114.489C22.5736 114.488 22.3765 114.609 22.2858 114.378C24.0479 114.39 25.8099 114.398 27.5719 114.418C27.8539 114.421 27.8532 114.262 27.8525 114.063C27.8496 113.406 27.8311 112.749 27.8618 112.093C27.8789 111.729 27.7533 111.645 27.4091 111.647C25.6957 111.662 23.9815 111.652 22.268 111.65L22.2759 111.659C22.278 110.867 22.2594 110.076 22.2908 109.286C22.3058 108.915 22.1709 108.846 21.8346 108.85C20.2732 108.865 18.7104 108.844 17.149 108.865C16.787 108.87 16.6964 108.757 16.7106 108.412C16.7371 107.756 16.7049 107.099 16.7256 106.443C16.7349 106.151 16.6392 106.074 16.3565 106.076C14.6266 106.09 12.8974 106.087 11.1675 106.089L11.1775 106.097C11.1704 105.323 11.1418 104.548 11.1647 103.775C11.1761 103.389 11.089 103.257 10.6742 103.264C9.1278 103.291 7.58139 103.265 6.03498 103.281C5.69514 103.285 5.56092 103.21 5.5802 102.841C5.61161 102.237 5.56378 101.627 5.59662 101.023C5.61875 100.616 5.52237 100.446 5.08115 100.482C4.57996 100.522 4.07306 100.492 3.56901 100.492C3.05164 100.491 2.79295 100.234 2.79295 99.7203C2.79295 82.8732 2.79295 66.0262 2.79295 49.1792C2.79295 43.9401 2.79795 38.701 2.8008 33.4612L2.79224 33.4691C3.73036 33.4634 4.66777 33.4583 5.6059 33.4526C5.60233 34.2275 5.62018 35.0032 5.58734 35.7766C5.56949 36.1974 5.70157 36.3247 6.12351 36.3183C7.63708 36.2947 9.15065 36.3183 10.6642 36.3018C11.0398 36.2976 11.1733 36.4221 11.1583 36.7963C11.1354 37.3687 11.1833 37.9447 11.1433 38.515C11.1104 38.9801 11.2903 39.0781 11.7187 39.0709C13.2323 39.0473 14.7459 39.0709 16.2594 39.0538C16.6064 39.0502 16.7335 39.1432 16.7178 39.5053C16.6906 40.1278 16.7363 40.7538 16.7035 41.3756C16.6814 41.7856 16.8263 41.8901 17.2175 41.8851C18.7475 41.8658 20.2782 41.8872 21.8089 41.8715C22.1495 41.8679 22.2901 41.9502 22.2744 42.3173C22.2473 42.9398 22.2894 43.5651 22.2609 44.1876C22.2423 44.5819 22.358 44.7143 22.7678 44.7078C24.2478 44.6842 25.7285 44.7171 27.2078 44.6871C27.6776 44.6771 27.8768 44.7737 27.8346 45.286C27.7889 45.8384 27.8518 46.3993 27.8189 46.9532C27.7947 47.3689 27.9553 47.4612 28.3415 47.4562C29.8715 47.4368 31.4029 47.4655 32.9329 47.4376C33.3677 47.4297 33.4813 47.5692 33.457 47.9785C33.4256 48.4994 33.4513 49.0232 33.4513 49.5455C33.4517 50.0259 33.7002 50.2665 34.1966 50.2675C35.6595 50.2696 37.1231 50.2818 38.586 50.2675C38.923 50.2646 39.0236 50.3769 39.0122 50.7025C38.9922 51.2749 39.0429 51.8509 38.9986 52.4205C38.9594 52.9292 39.1564 53.0365 39.6269 53.028C41.1233 53.0001 42.6205 53.028 44.1176 53.0101C44.4703 53.0058 44.5867 53.1081 44.5724 53.4644C44.5467 54.0869 44.5896 54.713 44.5581 55.3348C44.5374 55.7398 44.6745 55.8507 45.0708 55.845C46.5672 55.8235 48.0643 55.8507 49.5615 55.8257C49.9849 55.8185 50.1719 55.8987 50.1341 56.3716C50.0898 56.924 50.1548 57.4857 50.1155 58.0388C50.0819 58.5139 50.2169 58.6785 50.7181 58.667C52.2309 58.6334 53.7452 58.662 55.2588 58.6477C55.5886 58.6448 55.7014 58.7472 55.6893 59.0799C55.6672 59.6859 55.7071 60.2941 55.6757 60.8995C55.655 61.3023 55.7885 61.4211 56.1876 61.4154C57.7012 61.3932 59.2155 61.4247 60.7283 61.3932C61.2152 61.3832 61.3373 61.5599 61.313 62.0071C61.2823 62.5788 61.3295 63.1541 61.2966 63.7258C61.2724 64.1401 61.4287 64.2517 61.8185 64.2317C62.3718 64.203 62.9309 64.2574 63.4827 64.2152C63.9547 64.1787 64.066 64.3404 64.0653 64.8019C64.0532 80.8827 64.0553 96.9634 64.0567 113.044C64.0567 114.274 64.0874 115.505 64.0682 116.735C64.0617 117.147 64.1995 117.257 64.5879 117.233C65.1077 117.203 65.6303 117.227 66.1515 117.224C66.9254 117.22 66.8704 117.342 66.8704 116.487C66.8704 99.3275 66.8704 82.1677 66.8704 65.0087C66.8704 64.8742 66.8826 64.7375 66.8676 64.6045C66.8333 64.2975 66.9554 64.188 67.2659 64.1973C67.9213 64.2159 68.5782 64.1902 69.2336 64.2088C69.5456 64.2181 69.6455 64.1064 69.637 63.8009C69.6191 63.1777 69.6519 62.553 69.6234 61.9305C69.6041 61.517 69.7326 61.3739 70.161 61.3803C71.6746 61.4039 73.1888 61.3696 74.7017 61.401C75.165 61.4103 75.2771 61.2608 75.25 60.8286C75.2143 60.2576 75.2621 59.6816 75.2343 59.1099C75.2157 58.7314 75.3428 58.6184 75.7198 58.6227C77.2498 58.6413 78.7812 58.6126 80.3112 58.6405C80.7296 58.6484 80.8295 58.5117 80.8095 58.1261C80.7817 57.5715 80.8024 57.0142 80.8031 56.4575C80.8036 56.031 81.0246 55.8171 81.4663 55.8157C82.9464 55.8149 84.4264 55.8056 85.9064 55.8228C86.2512 55.8271 86.384 55.7398 86.3683 55.3756C86.3412 54.7531 86.3833 54.1277 86.3533 53.5052C86.334 53.1074 86.459 52.9886 86.8602 52.9951C88.3738 53.0187 89.8881 52.9893 91.4009 53.0158C91.8293 53.023 91.9542 52.8877 91.9307 52.4727C91.8985 51.9017 91.9428 51.3257 91.9157 50.754C91.8971 50.3676 92.0042 50.2288 92.4183 50.2353C93.9483 50.261 95.479 50.2338 97.0097 50.2546C97.3909 50.2596 97.5095 50.1451 97.4923 49.7673C97.4638 49.1448 97.5059 48.5194 97.4759 47.8969C97.4566 47.5055 97.5994 47.419 97.9678 47.424C99.4814 47.4447 100.996 47.419 102.509 47.4433C102.948 47.4504 103.15 47.3667 103.108 46.8709C103.06 46.3185 103.122 45.7575 103.088 45.2037C103.063 44.7851 103.195 44.6563 103.62 44.6635C105.15 44.6878 106.681 44.662 108.212 44.6806C108.569 44.6849 108.678 44.5769 108.663 44.2241C108.638 43.5845 108.674 42.9426 108.648 42.303C108.634 41.9402 108.767 41.8486 109.113 41.8522C110.643 41.8679 112.174 41.8414 113.704 41.8693C114.142 41.8772 114.248 41.7305 114.224 41.3241C114.193 40.7696 114.251 40.2093 114.207 39.6569C114.167 39.1432 114.384 39.033 114.846 39.0394C116.342 39.0602 117.839 39.0394 119.336 39.0523C119.648 39.0552 119.797 38.9901 119.785 38.6388C119.762 37.9819 119.77 37.3243 119.782 36.6668C119.787 36.4006 119.72 36.2668 119.419 36.2689C117.805 36.2789 116.19 36.2789 114.575 36.2696C114.288 36.2682 114.191 36.3784 114.196 36.6567C114.208 37.3136 114.198 37.9712 114.202 38.6287C114.203 38.8434 114.208 39.0287 113.9 39.0273C112.235 39.0194 110.57 39.0244 108.904 39.0237C108.746 39.0237 108.625 39.0273 108.636 38.7819C108.668 38.1093 108.676 37.4345 108.661 36.7612C108.653 36.4178 108.747 36.2789 109.112 36.2954C109.716 36.3219 110.323 36.3011 110.928 36.3018C111.249 36.3018 111.415 36.1852 111.414 35.8224C111.404 33.311 111.405 30.7995 111.415 28.288C111.416 27.9667 111.287 27.8837 110.994 27.8908C110.406 27.9059 109.816 27.8687 109.229 27.9044C108.798 27.9309 108.631 27.8222 108.656 27.3549C108.695 26.5986 108.662 25.8387 108.659 25.0803C110.393 25.0838 112.128 25.0824 113.861 25.0967C114.116 25.0989 114.226 25.0137 114.225 24.7676C114.264 25.0602 114.464 25.0638 114.699 25.0631C116.22 25.0559 117.74 25.0559 119.261 25.0638C119.43 25.0645 119.63 24.9722 119.77 25.1575C118.039 25.1518 116.308 25.1518 114.576 25.1346C114.273 25.1318 114.214 25.2563 114.22 25.5246C114.234 26.1815 114.239 26.839 114.217 27.4959C114.208 27.7971 114.281 27.9037 114.604 27.9001C116.201 27.8837 117.799 27.8866 119.396 27.8994C119.677 27.9016 119.771 27.8322 119.767 27.5381C119.755 26.7818 119.78 26.024 119.79 25.267C119.928 26.14 119.795 27.0201 119.864 27.8944C119.702 28.6736 119.847 29.4629 119.787 30.2435C119.758 30.6199 119.925 30.6893 120.254 30.6871C121.811 30.6757 123.37 30.6771 124.928 30.69C125.238 30.6928 125.333 30.5784 125.327 30.2807C125.311 29.4922 125.316 28.7022 125.313 27.9137C125.529 28.1241 125.403 28.3881 125.412 28.625C125.432 29.163 125.433 29.7026 125.41 30.2399C125.396 30.5505 125.496 30.6521 125.807 30.642C126.427 30.6213 127.049 30.6299 127.67 30.6399C127.825 30.6428 128.01 30.5605 128.132 30.7394C127.342 30.7358 126.552 30.7401 125.762 30.7236C125.492 30.7179 125.37 30.788 125.376 31.0849C125.39 31.7754 125.383 32.4659 125.369 33.1564C125.365 33.3882 125.426 33.4905 125.678 33.4848C126.501 33.4669 127.324 33.4669 128.147 33.4605C128.145 33.5614 128.142 33.663 128.142 33.7639C128.138 53.8065 128.134 73.849 128.132 93.8916C128.132 95.9309 128.145 97.9701 128.132 100.009C128.13 100.36 128.223 100.477 128.58 100.46C129.184 100.432 129.793 100.422 130.396 100.464C130.837 100.494 130.919 100.328 130.917 99.9242C130.901 97.143 130.908 94.3617 130.907 91.5805C130.907 72.3972 130.907 53.2147 130.904 34.0315C130.904 33.8476 130.875 33.6644 130.86 33.4805C131.089 33.5979 130.977 33.8104 130.977 33.9728C130.983 53.3957 130.981 72.8194 130.981 92.2423C130.981 94.8368 130.976 97.4306 130.991 100.025C130.993 100.414 130.904 100.565 130.487 100.545C129.716 100.508 128.942 100.527 128.168 100.522C127.366 100.437 126.561 100.52 125.759 100.477C125.406 100.458 125.332 100.609 125.34 100.917C125.355 101.522 125.321 102.129 125.353 102.732C125.376 103.139 125.27 103.28 124.834 103.271C123.342 103.243 121.849 103.276 120.357 103.251C119.915 103.244 119.738 103.338 119.766 103.824C119.809 104.577 119.772 105.336 119.77 106.092C118.025 106.083 116.28 106.081 114.535 106.061C114.247 106.058 114.206 106.193 114.209 106.429C114.217 107.068 114.188 107.709 114.222 108.347C114.243 108.747 114.116 108.855 113.72 108.849C112.176 108.826 110.632 108.849 109.088 108.831C108.732 108.827 108.628 108.936 108.641 109.287C108.67 110.076 108.659 110.867 108.664 111.657L108.672 111.65C106.956 111.647 105.242 111.659 103.527 111.633C103.125 111.627 103.047 111.773 103.06 112.127C103.084 112.716 103.045 113.308 103.075 113.896C103.095 114.303 102.983 114.444 102.549 114.437C101.003 114.411 99.455 114.437 97.9078 114.424C97.5794 114.421 97.4695 114.522 97.483 114.856C97.508 115.495 97.473 116.137 97.4987 116.776C97.513 117.131 97.3988 117.233 97.0454 117.229C95.5318 117.211 94.0182 117.236 92.5054 117.21C92.0656 117.203 91.8828 117.29 91.9107 117.78C91.9528 118.536 91.9142 119.296 91.9107 120.054L91.92 120.046C90.1751 120.039 88.4295 120.037 86.6846 120.02C86.4026 120.017 86.3512 120.136 86.3555 120.381C86.3676 121.02 86.3383 121.66 86.3669 122.299C86.3847 122.686 86.2826 122.817 85.8714 122.81C84.3107 122.785 82.7493 122.809 81.1886 122.797C80.8831 122.795 80.7788 122.883 80.7881 123.195C80.8117 124.001 80.8052 124.809 80.8109 125.616L80.8188 125.608C79.0882 125.606 77.3576 125.612 75.627 125.593C75.2864 125.589 75.1936 125.699 75.2057 126.022C75.2279 126.628 75.1815 127.237 75.2257 127.84C75.26 128.31 75.0715 128.4 74.651 128.394C73.1224 128.373 71.5932 128.392 70.0646 128.379C69.7476 128.376 69.6148 128.452 69.6305 128.802C69.6591 129.458 69.6305 130.115 69.6441 130.772C69.6498 131.059 69.5855 131.186 69.2557 131.184C66.7355 131.17 64.216 131.171 61.6957 131.183C61.3752 131.184 61.2988 131.07 61.3066 130.773C61.3245 130.134 61.2881 129.493 61.3188 128.854C61.338 128.466 61.2024 128.374 60.8326 128.379C59.2869 128.396 57.7412 128.374 56.1955 128.391C55.8492 128.394 55.7157 128.301 55.7293 127.941C55.7528 127.32 55.7114 126.694 55.745 126.073C55.7657 125.685 55.6357 125.599 55.2645 125.604C53.551 125.622 51.8375 125.609 50.1241 125.607L50.1319 125.616C50.1341 124.825 50.1169 124.034 50.1462 123.244C50.1598 122.873 50.0234 122.803 49.6864 122.807C48.1593 122.824 46.6307 122.794 45.1043 122.827C44.6417 122.837 44.541 122.692 44.566 122.264C44.6024 121.643 44.5617 121.019 44.581 120.397C44.5903 120.106 44.4896 120.029 44.2097 120.031C42.4806 120.045 40.7521 120.042 39.0229 120.045L39.0329 120.053C39.0258 119.279 38.9958 118.504 39.0201 117.731C39.0322 117.339 38.9294 117.217 38.5224 117.222C36.8411 117.242 35.159 117.223 33.4777 117.219C33.4655 116.429 33.4456 115.638 33.4456 114.848C33.4456 114.59 33.412 114.448 33.0964 114.451C31.4822 114.465 29.8673 114.462 28.253 114.452C27.9988 114.451 27.8918 114.515 27.8982 114.789C27.9167 115.598 27.9132 116.407 27.9182 117.216H27.9139ZM89.177 107.503H89.1648C89.1648 106.239 89.1541 104.976 89.172 103.712C89.177 103.366 89.0842 103.238 88.7222 103.254C88.0675 103.281 87.4107 103.248 86.756 103.269C86.4511 103.279 86.3412 103.193 86.3533 102.875C86.3776 102.235 86.3419 101.594 86.3747 100.955C86.394 100.579 86.2769 100.458 85.9021 100.459C83.3969 100.472 80.8916 100.469 78.3864 100.459C78.0787 100.458 77.9752 100.557 77.9837 100.865C78.0023 101.538 77.9759 102.213 77.9973 102.887C78.0073 103.202 77.9002 103.291 77.5939 103.282C76.9385 103.262 76.2817 103.296 75.627 103.272C75.3028 103.26 75.2357 103.381 75.2365 103.679C75.245 106.189 75.2486 108.7 75.2307 111.211C75.2279 111.591 75.3692 111.656 75.6998 111.645C76.3381 111.622 76.9778 111.655 77.616 111.632C77.9302 111.621 78.023 111.725 78.0144 112.033C77.9944 112.724 78.0116 113.415 78.0044 114.105C78.0023 114.323 78.0451 114.443 78.3078 114.443C80.8802 114.439 83.4526 114.443 86.0249 114.454C86.2955 114.456 86.3712 114.353 86.3662 114.098C86.354 113.424 86.3812 112.749 86.3547 112.077C86.3412 111.731 86.4668 111.647 86.7874 111.657C87.4428 111.678 88.0996 111.647 88.7543 111.672C89.092 111.686 89.1863 111.571 89.1827 111.243C89.1677 109.997 89.1763 108.749 89.1763 107.502L89.177 107.503ZM105.873 82.3316H105.86C105.86 81.068 105.85 79.8036 105.867 78.54C105.871 78.2281 105.781 78.1322 105.47 78.1429C104.832 78.1651 104.191 78.1243 103.554 78.1572C103.159 78.178 103.07 78.0334 103.085 77.6671C103.113 77.0281 103.078 76.3863 103.098 75.7466C103.108 75.4447 103.028 75.3366 102.709 75.338C100.17 75.3495 97.6308 75.3509 95.0913 75.338C94.7565 75.3366 94.7043 75.4726 94.7115 75.7566C94.7272 76.397 94.6901 77.0388 94.7279 77.6771C94.7529 78.0971 94.5951 78.1937 94.2124 78.1765C93.5913 78.1486 92.968 78.178 92.3462 78.1594C92.057 78.1508 91.9271 78.2109 91.9285 78.5429C91.9407 81.0708 91.9399 83.5988 91.9285 86.1267C91.9271 86.4437 92.037 86.5332 92.3376 86.5267C93.0102 86.511 93.6827 86.5346 94.3552 86.521C94.6365 86.5153 94.7436 86.6047 94.7365 86.8952C94.7208 87.5349 94.7529 88.1767 94.7258 88.8157C94.7108 89.1763 94.7893 89.313 95.1884 89.3101C97.6772 89.2944 100.166 89.3001 102.654 89.3187C103.022 89.3216 103.108 89.1928 103.094 88.8522C103.069 88.2461 103.107 87.6379 103.076 87.0326C103.058 86.6634 103.151 86.5181 103.544 86.5425C104.114 86.5775 104.69 86.5246 105.259 86.5668C105.731 86.6026 105.9 86.4788 105.884 85.9707C105.845 84.7586 105.871 83.5444 105.871 82.3309L105.873 82.3316ZM119.796 57.2431H119.784C119.784 55.9623 119.775 54.6815 119.79 53.4015C119.794 53.0924 119.7 52.99 119.391 53.0001C118.786 53.0208 118.18 52.9829 117.576 53.0151C117.157 53.0373 116.97 52.9521 117.008 52.4741C117.057 51.8545 117.008 51.2277 117.022 50.6045C117.029 50.3226 116.937 50.2267 116.647 50.2274C114.108 50.2367 111.568 50.2353 109.03 50.2274C108.766 50.2267 108.629 50.2725 108.637 50.5816C108.656 51.2721 108.631 51.9633 108.647 52.6537C108.653 52.9392 108.563 53.038 108.274 53.0308C107.585 53.0129 106.895 53.0344 106.205 53.0201C105.949 53.0151 105.853 53.0859 105.853 53.3585C105.863 55.9201 105.863 58.4817 105.855 61.0433C105.854 61.3137 105.951 61.3917 106.207 61.3867C106.846 61.3746 107.485 61.4061 108.123 61.3767C108.522 61.3581 108.696 61.4461 108.668 61.8933C108.628 62.5309 108.672 63.1734 108.655 63.8138C108.648 64.0936 108.724 64.1973 109.019 64.1966C111.558 64.1894 114.097 64.1937 116.636 64.2038C116.919 64.2052 117.024 64.11 117.018 63.8245C117.004 63.1677 117.032 62.5094 117.004 61.8533C116.989 61.4891 117.122 61.3925 117.466 61.4053C118.087 61.4289 118.711 61.3867 119.331 61.4211C119.725 61.4425 119.808 61.2987 119.802 60.9331C119.782 59.7031 119.795 58.4731 119.795 57.2424L119.796 57.2431ZM39.0222 82.3709H39.0093C39.0093 81.1066 38.9986 79.8423 39.0165 78.5787C39.0208 78.2488 38.9287 78.1422 38.5938 78.1551C37.9391 78.1808 37.2816 78.1443 36.6269 78.1701C36.2828 78.1837 36.1957 78.057 36.2064 77.7336C36.2271 77.0768 36.2007 76.4185 36.2171 75.7616C36.2242 75.4733 36.17 75.3473 35.8366 75.3495C33.3142 75.3638 30.7911 75.3645 28.268 75.3495C27.9096 75.3473 27.8511 75.4854 27.8596 75.7938C27.8782 76.4507 27.8468 77.109 27.8746 77.7658C27.8896 78.1136 27.7561 78.1951 27.4398 78.1858C26.7844 78.1672 26.1276 78.193 25.4722 78.173C25.1866 78.1644 25.1009 78.2509 25.1017 78.54C25.1116 81.0851 25.1109 83.6303 25.1017 86.1754C25.1009 86.4487 25.1973 86.5196 25.4508 86.5145C26.0898 86.5009 26.7309 86.5396 27.367 86.4974C27.8097 86.468 27.9103 86.6348 27.8925 87.0397C27.8653 87.6622 27.8946 88.2869 27.8882 88.9101C27.8853 89.1663 27.9346 89.2987 28.2444 89.2979C30.7832 89.2886 33.3228 89.2951 35.8615 89.3058C36.1221 89.3072 36.2157 89.23 36.2078 88.9616C36.1893 88.322 36.2142 87.6809 36.1885 87.0412C36.1743 86.6927 36.2321 86.5138 36.6433 86.536C37.2802 86.5696 37.922 86.5188 38.5588 86.5525C38.9537 86.5732 39.035 86.4294 39.0286 86.0631C39.0072 84.8331 39.0201 83.6024 39.0201 82.3724L39.0222 82.3709ZM122.538 36.2417V36.2396C123.328 36.2396 124.118 36.2267 124.908 36.246C125.243 36.2539 125.349 36.1308 125.34 35.8067C125.322 35.1498 125.326 34.4923 125.338 33.8354C125.344 33.5542 125.244 33.4512 124.959 33.4533C123.362 33.4626 121.765 33.4612 120.168 33.4533C119.867 33.4519 119.743 33.5685 119.749 33.8719C119.76 34.5288 119.764 35.1863 119.748 35.8432C119.74 36.158 119.87 36.251 120.167 36.246C120.957 36.2324 121.747 36.2417 122.538 36.2417Z" fill="#ECEAFD"></path>
<path d="M2.79869 33.4609C2.79584 38.7 2.79155 43.9391 2.79084 49.1789C2.79013 66.0259 2.79084 82.873 2.79084 99.72C2.79084 100.233 3.04953 100.49 3.5669 100.491C4.07095 100.492 4.57785 100.522 5.07904 100.481C5.52026 100.446 5.61736 100.616 5.59451 101.022C5.56096 101.627 5.6095 102.236 5.57809 102.841C5.55881 103.21 5.69304 103.285 6.03287 103.281C7.57928 103.265 9.12641 103.291 10.6721 103.264C11.0876 103.257 11.1747 103.389 11.1626 103.775C11.139 104.548 11.1683 105.323 11.1754 106.097C9.46125 106.089 7.74706 106.072 6.03359 106.082C5.69018 106.085 5.56524 106.009 5.5838 105.644C5.6145 105.022 5.55881 104.395 5.60094 103.775C5.63092 103.329 5.466 103.24 5.06333 103.263C4.44291 103.295 3.81892 103.249 3.1985 103.28C2.8501 103.298 2.78085 103.17 2.79155 102.853C2.81297 102.197 2.78085 101.539 2.80512 100.883C2.81654 100.575 2.73444 100.472 2.4203 100.483C1.73206 100.506 1.04167 100.479 0.352712 100.498C0.0856953 100.505 -0.0121154 100.422 0.00858904 100.156C0.0257238 99.939 0.0100169 99.7186 0.0100169 99.4996C0.0100169 85.0603 0.0100169 70.6217 0.0100169 56.1824C0.0100169 48.7861 0.0143006 41.3897 0.000735624 33.9933C2.16765e-05 33.5654 0.118537 33.4552 0.531912 33.4702C1.28655 33.4989 2.04334 33.4674 2.79941 33.4609H2.79869Z" fill="#28226B"></path>
<path d="M130.856 33.4829C130.872 33.6668 130.9 33.85 130.9 34.0339C130.902 53.2171 130.902 72.3996 130.903 91.5829C130.903 94.3641 130.897 97.1454 130.913 99.9266C130.915 100.33 130.832 100.496 130.392 100.466C129.789 100.425 129.18 100.434 128.576 100.463C128.219 100.479 128.126 100.363 128.128 100.012C128.141 97.9725 128.128 95.9333 128.128 93.894C128.131 73.8514 128.134 53.8089 128.138 33.7663C128.138 33.6654 128.141 33.5638 128.143 33.4629L128.134 33.4722C128.166 33.4722 128.199 33.4736 128.232 33.4743C129.107 33.4772 129.981 33.4808 130.855 33.4836L130.856 33.4829Z" fill="#28226B"></path>
<path d="M50.1205 125.607C51.834 125.609 53.5474 125.622 55.2609 125.604C55.6322 125.599 55.7621 125.685 55.7414 126.073C55.7085 126.694 55.75 127.319 55.7257 127.941C55.7121 128.302 55.8449 128.394 56.1919 128.391C57.7376 128.375 59.2833 128.397 60.829 128.378C61.1988 128.374 61.3337 128.466 61.3152 128.854C61.2838 129.493 61.3202 130.134 61.303 130.773C61.2952 131.07 61.3716 131.184 61.6921 131.183C64.2124 131.171 66.7319 131.17 69.2521 131.184C69.582 131.186 69.6462 131.059 69.6405 130.772C69.6269 130.116 69.6562 129.457 69.6269 128.802C69.6112 128.452 69.744 128.377 70.061 128.379C71.5896 128.392 73.1189 128.373 74.6474 128.394C75.0679 128.4 75.2557 128.309 75.2221 127.84C75.1786 127.236 75.2243 126.628 75.2022 126.022C75.1907 125.699 75.2835 125.589 75.6234 125.593C77.354 125.612 79.0846 125.606 80.8152 125.608C80.8095 126.383 80.7724 127.159 80.8088 127.932C80.8295 128.368 80.6567 128.418 80.2905 128.415C78.7769 128.398 77.2633 128.434 75.7505 128.393C75.2721 128.381 75.195 128.54 75.2179 128.955C75.2507 129.56 75.2114 130.169 75.2343 130.775C75.2471 131.106 75.1436 131.198 74.8088 131.195C73.2452 131.175 71.681 131.198 70.1174 131.178C69.7533 131.173 69.6141 131.247 69.6377 131.644C69.6748 132.282 69.6348 132.925 69.6519 133.565C69.6598 133.87 69.6105 134.002 69.2464 133.999C66.7412 133.979 64.2352 133.98 61.73 133.997C61.368 133.999 61.2773 133.892 61.2916 133.546C61.318 132.89 61.283 132.232 61.3052 131.575C61.3159 131.263 61.2209 131.176 60.9089 131.178C59.194 131.189 57.4798 131.176 55.7649 131.171C55.7485 130.285 55.7321 129.399 55.715 128.512C55.7214 128.48 55.7114 128.454 55.6843 128.435C55.5201 128.307 55.3302 128.376 55.1531 128.373C53.4846 128.343 51.8147 128.426 50.1469 128.328C50.1383 127.42 50.1298 126.514 50.1212 125.606L50.1205 125.607Z" fill="#28226B"></path>
<path d="M91.9078 120.055C91.9121 119.297 91.9506 118.537 91.9078 117.781C91.8799 117.291 92.0634 117.204 92.5025 117.211C94.0153 117.236 95.5296 117.211 97.0425 117.23C97.3959 117.234 97.5101 117.132 97.4958 116.777C97.4694 116.137 97.5051 115.496 97.4801 114.857C97.4666 114.523 97.5765 114.422 97.9049 114.425C99.452 114.438 100.999 114.412 102.546 114.438C102.98 114.445 103.092 114.304 103.072 113.897C103.042 113.309 103.08 112.717 103.057 112.128C103.043 111.773 103.122 111.628 103.524 111.634C105.239 111.66 106.954 111.648 108.669 111.65C108.663 112.407 108.622 113.165 108.664 113.919C108.691 114.393 108.521 114.466 108.099 114.459C106.572 114.433 105.044 114.461 103.517 114.439C103.159 114.434 103.06 114.533 103.075 114.883C103.102 115.521 103.06 116.163 103.09 116.8C103.107 117.167 102.975 117.242 102.636 117.237C101.075 117.22 99.5134 117.244 97.9528 117.218C97.5594 117.211 97.4766 117.334 97.4937 117.698C97.523 118.336 97.4851 118.977 97.5073 119.615C97.5187 119.938 97.4344 120.043 97.0925 120.039C95.5318 120.018 93.9704 120.03 92.4097 120.032C92.2426 120.032 92.0748 120.046 91.9078 120.054V120.055Z" fill="#28226B"></path>
<path d="M69.6119 2.77299L69.6105 2.77084C69.6112 2.80233 69.6005 2.82952 69.5777 2.85098C67.1224 2.8474 64.6671 2.84311 62.2112 2.84168C61.9106 2.84168 61.6064 2.81735 61.3144 2.92397C61.2573 2.89105 61.2009 2.83023 61.1438 2.83023C59.4453 2.82379 57.7468 2.82522 56.0484 2.8195C55.7785 2.81878 55.7614 2.98407 55.7621 3.18442C55.7642 3.82481 55.7799 4.46592 55.7549 5.1056C55.7414 5.45049 55.8335 5.57212 56.1969 5.56282C56.9686 5.54279 57.7418 5.57356 58.515 5.58286C58.5086 6.32414 58.4758 7.06614 58.5051 7.80599C58.5222 8.23531 58.4244 8.38915 57.9589 8.38342C56.4467 8.36482 54.9346 8.41705 53.4225 8.40203C52.9984 8.39773 52.9177 8.55157 52.9334 8.92508C52.9584 9.51395 52.9227 10.105 52.9455 10.6939C52.9584 11.0309 52.8363 11.1289 52.51 11.1217C51.7204 11.1046 50.9301 11.1203 50.1397 11.1232C50.1362 10.1916 50.1333 9.25923 50.1297 8.32761C50.1226 7.53767 50.1297 6.74773 50.1026 5.95922C50.0912 5.62794 50.1997 5.5249 50.5296 5.52776C52.0902 5.54136 53.6509 5.51846 55.2109 5.54207C55.6007 5.5478 55.6942 5.42974 55.6764 5.06052C55.6464 4.43945 55.69 3.81551 55.66 3.19443C55.6414 2.80376 55.7906 2.71217 56.154 2.71646C57.6812 2.73292 59.2083 2.71145 60.7347 2.7322C61.1245 2.73721 61.2673 2.64062 61.2423 2.23062C61.2059 1.64461 61.2266 1.05358 61.2373 0.46542C61.2402 0.310151 61.1538 0.12483 61.3351 0.00390625C61.3316 0.743044 61.358 1.48361 61.3144 2.21989C61.2873 2.67568 61.4365 2.7687 61.8699 2.76583C64.4508 2.75009 67.0317 2.76727 69.6119 2.77371V2.77299Z" fill="#ECEAFD"></path>
<path d="M80.8081 125.617C80.8024 124.81 80.8095 124.002 80.7852 123.195C80.7759 122.883 80.8802 122.795 81.1858 122.797C82.7464 122.81 84.3078 122.786 85.8685 122.811C86.2798 122.818 86.3819 122.687 86.364 122.299C86.3347 121.661 86.364 121.021 86.3526 120.382C86.3483 120.136 86.3997 120.018 86.6817 120.021C88.4266 120.038 90.1722 120.04 91.9171 120.047C91.9207 120.821 91.8964 121.597 91.9385 122.369C91.9614 122.784 91.795 122.825 91.4502 122.821C89.9216 122.804 88.393 122.831 86.8652 122.801C86.429 122.792 86.329 122.927 86.3526 123.336C86.3883 123.957 86.3433 124.582 86.3704 125.204C86.3847 125.542 86.2741 125.62 85.9478 125.617C84.235 125.602 82.5215 125.614 80.8081 125.617Z" fill="#28226B"></path>
<path d="M39.0193 120.046C40.7485 120.043 42.477 120.046 44.2062 120.032C44.486 120.03 44.5867 120.107 44.5774 120.398C44.5574 121.02 44.5988 121.644 44.5624 122.265C44.5374 122.692 44.6388 122.839 45.1007 122.829C46.6279 122.795 48.1557 122.824 49.6829 122.808C50.0205 122.804 50.1569 122.874 50.1426 123.245C50.1126 124.035 50.1298 124.826 50.1284 125.617C48.4313 125.615 46.7342 125.6 45.0379 125.62C44.6588 125.624 44.5481 125.528 44.5688 125.148C44.6024 124.526 44.5553 123.901 44.586 123.279C44.6038 122.912 44.5174 122.796 44.1262 122.803C42.5812 122.83 41.0348 122.798 39.4898 122.826C39.0765 122.833 38.9915 122.7 39.0065 122.32C39.0365 121.563 39.0179 120.805 39.02 120.047L39.0193 120.046Z" fill="#28226B"></path>
<path d="M108.662 111.659C108.657 110.869 108.668 110.077 108.639 109.288C108.626 108.938 108.73 108.829 109.085 108.832C110.63 108.85 112.174 108.827 113.718 108.85C114.114 108.856 114.24 108.749 114.219 108.348C114.186 107.71 114.215 107.07 114.207 106.43C114.204 106.195 114.244 106.06 114.533 106.063C116.278 106.082 118.023 106.085 119.768 106.093L119.759 106.085C119.768 106.963 119.778 107.843 119.788 108.721C119.683 108.972 119.463 108.847 119.303 108.848C117.773 108.859 116.244 108.873 114.716 108.841C114.275 108.832 114.185 108.972 114.207 109.374C114.241 109.995 114.198 110.62 114.225 111.242C114.24 111.579 114.131 111.662 113.805 111.659C112.091 111.645 110.377 111.656 108.663 111.658L108.662 111.659Z" fill="#28226B"></path>
<path d="M11.1655 106.088C12.8954 106.086 14.6252 106.089 16.3544 106.075C16.6371 106.073 16.7328 106.15 16.7235 106.442C16.7028 107.098 16.735 107.755 16.7085 108.411C16.695 108.756 16.7849 108.868 17.1469 108.864C18.7083 108.844 20.2704 108.865 21.8325 108.849C22.1688 108.845 22.3037 108.914 22.2888 109.285C22.2573 110.075 22.2759 110.867 22.2738 111.658C20.5603 111.656 18.8475 111.645 17.1341 111.659C16.8049 111.662 16.7014 111.577 16.7157 111.243C16.7421 110.621 16.6971 109.996 16.7321 109.375C16.7549 108.968 16.6593 108.833 16.2209 108.841C14.6931 108.872 13.1638 108.836 11.6359 108.864C11.2197 108.872 11.1376 108.738 11.1519 108.36C11.1804 107.604 11.1626 106.845 11.164 106.088H11.1655Z" fill="#28226B"></path>
<path d="M5.60382 33.452C4.66569 33.4577 3.72828 33.4628 2.79015 33.4685C2.79301 32.7458 2.83942 32.0203 2.78373 31.3019C2.74232 30.7609 2.93723 30.6565 3.42128 30.6915C4.02171 30.7345 4.62857 30.6851 5.23114 30.7073C5.52528 30.718 5.60382 30.6157 5.59668 30.3366C5.57954 29.6984 5.61595 29.058 5.58097 28.4212C5.55884 28.0147 5.65451 27.8831 6.09144 27.891C7.75066 27.9189 9.4113 27.8988 11.0712 27.8967C11.1069 27.901 11.1426 27.9046 11.1776 27.9088L11.169 27.9003L11.1298 30.6922C10.2002 30.703 9.27136 30.7144 8.3418 30.7252C7.52148 30.7151 6.70115 30.7116 5.88154 30.6908C5.61738 30.6837 5.58383 30.8175 5.5874 31.0314C5.59882 31.8378 5.60096 32.6435 5.60596 33.4499L5.60382 33.4527V33.452Z" fill="#28226B"></path>
<path d="M119.767 106.095C119.77 105.338 119.807 104.581 119.763 103.826C119.735 103.341 119.912 103.247 120.354 103.254C121.846 103.279 123.339 103.245 124.831 103.274C125.266 103.283 125.373 103.142 125.351 102.735C125.318 102.131 125.352 101.525 125.337 100.92C125.329 100.611 125.403 100.46 125.756 100.479C126.558 100.522 127.364 100.439 128.166 100.525C128.158 101.249 128.11 101.975 128.157 102.696C128.191 103.21 128.012 103.317 127.544 103.282C126.976 103.239 126.401 103.293 125.83 103.263C125.466 103.245 125.321 103.331 125.344 103.729C125.381 104.351 125.326 104.978 125.364 105.599C125.39 106.019 125.23 106.086 124.853 106.082C123.188 106.067 121.523 106.082 119.858 106.087C119.825 106.087 119.792 106.085 119.758 106.085L119.767 106.094V106.095Z" fill="#28226B"></path>
<path d="M69.612 2.77292C67.0311 2.76648 64.4502 2.74931 61.87 2.76505C61.4366 2.76791 61.2867 2.67489 61.3145 2.21911C61.3588 1.48283 61.3323 0.741545 61.3352 0.00312314C64.0903 0.00240761 66.8454 0.00169209 69.6006 0.000976562C69.6191 0.877495 69.6384 1.75401 69.6577 2.63053L69.6127 2.77364L69.612 2.77292Z" fill="#28226B"></path>
<path d="M28.0202 16.7332C28.6 16.6165 29.1861 16.6917 29.7687 16.6838C30.841 16.6695 31.9141 16.6695 32.9865 16.6867C33.2977 16.6917 33.3948 16.5908 33.3856 16.2845C33.3663 15.6635 33.3734 15.0417 33.3841 14.4206C33.387 14.2668 33.2992 14.0807 33.4827 13.9612C33.4791 14.7676 33.4791 15.5747 33.4698 16.3811C33.4677 16.5908 33.4912 16.7303 33.759 16.7282C35.4189 16.7153 37.0788 16.7138 38.7394 16.7081C38.8822 16.7081 39.0107 16.6888 39.0015 16.4935C38.9629 15.6427 39.0936 14.7869 38.9279 13.9398C38.9551 13.806 38.9829 13.6722 39.01 13.5391C38.9886 13.861 39.135 13.9512 39.4527 13.9448C40.2216 13.9283 40.9905 13.9555 41.7602 13.9648C41.7573 14.7397 41.7345 15.5161 41.7602 16.2903C41.7737 16.6788 41.6374 16.7704 41.269 16.7689C39.7568 16.7618 38.2433 16.8083 36.7311 16.7847C36.2592 16.7775 36.1664 16.9414 36.1885 17.3607C36.2192 17.9488 36.1857 18.5399 36.2014 19.1295C36.2092 19.415 36.1064 19.5158 35.8223 19.5094C35.0326 19.4915 34.2423 19.4944 33.452 19.4887C33.447 18.7996 33.4412 18.1106 33.4362 17.4215C33.4305 16.6595 33.4877 16.7833 32.7966 16.7725C31.2044 16.7482 29.6116 16.8197 28.0195 16.7339L28.0202 16.7332Z" fill="#ECEAFD"></path>
<path d="M103.048 16.7695C103.216 17.4793 103.116 18.1992 103.112 18.9132C103.109 19.3483 103.188 19.515 103.676 19.5028C105.187 19.4649 106.699 19.5 108.209 19.4799C108.581 19.4749 108.713 19.5751 108.694 19.9601C108.664 20.5811 108.707 21.2058 108.678 21.8276C108.661 22.1946 108.797 22.2762 109.137 22.2719C110.446 22.2547 111.756 22.2633 113.066 22.2676C113.248 22.2676 113.437 22.2247 113.61 22.322C111.943 22.3292 110.275 22.337 108.608 22.3442C107.046 22.3528 105.485 22.3635 103.924 22.3699C103.006 22.3735 103.033 22.3699 102.996 21.4283C102.972 20.7972 103.111 20.1561 102.901 19.5343C103.1 19.4313 103.032 19.2431 103.034 19.0864C103.043 18.3143 103.044 17.5416 103.048 16.7695H103.048Z" fill="#ECEAFD"></path>
<path d="M33.4741 117.219C35.1555 117.223 36.8375 117.242 38.5189 117.222C38.9258 117.217 39.0286 117.338 39.0165 117.731C38.9922 118.504 39.0222 119.279 39.0293 120.053C37.1845 120.043 35.3397 120.033 33.4948 120.023C33.4905 119.085 33.4855 118.147 33.4813 117.209L33.4741 117.218V117.219Z" fill="#28226B"></path>
<path d="M22.2787 22.3479C22.2823 21.543 22.3022 20.738 22.2815 19.9337C22.273 19.5967 22.3801 19.5116 22.7071 19.5137C24.4134 19.5245 26.1197 19.5109 27.8261 19.5059C27.8568 20.4468 27.8889 21.3877 27.8118 22.3279C26.9079 22.3329 26.0034 22.3379 25.0995 22.3436C24.1564 22.3422 23.2125 22.3401 22.2694 22.3386L22.2787 22.3479Z" fill="#28226B"></path>
<path d="M75.3556 5.55859C77.1376 5.56074 78.9196 5.56217 80.7009 5.56432C80.7331 5.5958 80.7652 5.62657 80.7973 5.65805C80.7995 6.50023 80.8016 7.34311 80.8038 8.18529C80.7374 8.2504 80.671 8.31551 80.6053 8.38063C78.9546 8.37848 77.304 8.37919 75.6526 8.36918C75.4948 8.36846 75.265 8.47937 75.2107 8.19173C75.2235 7.60428 75.2228 7.01612 75.2543 6.4301C75.27 6.1396 75.1386 5.8262 75.3563 5.55859H75.3556Z" fill="#28226B"></path>
<path d="M86.3683 11.0488C86.384 11.1605 86.4682 11.1418 86.5432 11.1404C86.7253 11.154 86.9073 11.1783 87.0894 11.1798C88.6986 11.1876 90.3071 11.1919 91.9164 11.1969L91.9228 11.212C91.9164 11.7343 91.9271 12.2574 91.8985 12.7783C91.8771 13.1711 92.0106 13.5775 91.8114 13.9567C90.1308 13.9539 88.4502 13.9431 86.7695 13.9567C86.4447 13.9596 86.3354 13.8816 86.3476 13.541C86.3726 12.8011 86.3519 12.0591 86.3497 11.3179C86.3633 11.2284 86.4875 11.1476 86.369 11.0488H86.3683Z" fill="#28226B"></path>
<path d="M11.1562 25.375C11.1619 25.3049 11.1676 25.2355 11.1733 25.1661C12.9203 25.1582 14.6681 25.1554 16.4151 25.1368C16.7171 25.1339 16.7242 25.2927 16.7214 25.5167C16.7121 26.3081 16.7135 27.1002 16.7114 27.8915C15.7768 27.9015 14.8423 27.9123 13.9084 27.9223C12.9953 27.9151 12.0829 27.9073 11.1697 27.9001L11.1783 27.9087C11.1697 27.8722 11.1612 27.835 11.1526 27.7985C11.154 27.4973 11.1547 27.196 11.1562 26.8948C11.2004 26.4898 11.2004 26.0841 11.1562 25.6791C11.1562 25.6126 11.1562 25.546 11.1562 25.4795V25.3757V25.375Z" fill="#28226B"></path>
<path d="M16.7042 25.0747C16.7106 24.2697 16.7285 23.4655 16.7185 22.6605C16.7156 22.3965 16.792 22.3192 17.0576 22.3213C18.7982 22.3392 20.5388 22.3407 22.2787 22.3471L22.2694 22.3378C22.2752 23.2522 22.2801 24.1667 22.2859 25.0811L22.1816 25.1183C21.9989 25.1054 21.8161 25.0818 21.6333 25.0811C19.9905 25.0761 18.347 25.0754 16.7042 25.0732V25.0747Z" fill="#28226B"></path>
<path d="M108.608 22.3439C110.275 22.3368 111.943 22.3289 113.61 22.3217C113.709 22.3217 113.808 22.321 113.908 22.3203C114.005 22.3303 114.101 22.3411 114.197 22.3511C114.205 23.1568 114.214 23.9624 114.222 24.7681C114.223 25.0143 114.113 25.0994 113.858 25.0973C112.124 25.083 110.39 25.0844 108.656 25.0808L108.655 25.0779C108.65 25.0064 108.645 24.9341 108.64 24.8626C108.628 24.0233 108.689 23.1825 108.608 22.3439Z" fill="#28226B"></path>
<path d="M119.788 25.2682C119.777 26.0252 119.752 26.7822 119.765 27.5392C119.769 27.8333 119.675 27.9027 119.394 27.9006C117.797 27.8877 116.199 27.8848 114.602 27.9013C114.279 27.9049 114.205 27.7983 114.215 27.497C114.236 26.8402 114.232 26.1826 114.218 25.5258C114.212 25.2574 114.271 25.1329 114.574 25.1358C116.306 25.153 118.037 25.153 119.768 25.1587C119.775 25.1952 119.782 25.2317 119.789 25.2682H119.788Z" fill="#28226B"></path>
<path d="M27.9139 117.215C27.9089 116.406 27.9125 115.597 27.8939 114.789C27.8875 114.515 27.9946 114.45 28.2488 114.452C29.863 114.461 31.478 114.464 33.0922 114.45C33.4085 114.447 33.4413 114.59 33.4413 114.847C33.4413 115.638 33.4613 116.428 33.4734 117.219L33.4806 117.209C31.6614 117.219 29.8423 117.228 28.0239 117.237L27.9132 117.214L27.9139 117.215Z" fill="#28226B"></path>
<path d="M22.2673 111.649C23.9808 111.651 25.695 111.661 27.4084 111.647C27.7526 111.644 27.8782 111.728 27.8611 112.092C27.8304 112.748 27.849 113.405 27.8518 114.062C27.8525 114.261 27.8532 114.421 27.5712 114.417C25.8092 114.396 24.0472 114.389 22.2852 114.377C22.2787 113.468 22.273 112.559 22.2666 111.649H22.2673Z" fill="#28226B"></path>
<path d="M92.0078 13.9395C93.8241 13.9459 95.6403 13.9523 97.4559 13.9588C97.4609 14.763 97.4573 15.568 97.4745 16.3715C97.4802 16.632 97.3981 16.7221 97.1332 16.7164C96.4314 16.7007 95.7282 16.7214 95.0256 16.7093C93.9904 16.6914 92.9538 16.7672 91.92 16.6678C91.9171 15.7948 91.9143 14.9219 91.9121 14.0489L92.0071 13.9395H92.0078Z" fill="#28226B"></path>
<path d="M41.7602 13.9641C40.9913 13.9548 40.2217 13.9283 39.4527 13.9441C39.135 13.9505 38.988 13.8603 39.0101 13.5384C39.0101 12.9674 39.0101 12.3957 39.0101 11.8247V11.7209C39.0158 11.5492 39.0222 11.3775 39.0287 11.2057C40.7736 11.1993 42.5177 11.1972 44.2626 11.1807C44.561 11.1778 44.5746 11.3345 44.5725 11.5606C44.5639 12.3513 44.5675 13.142 44.566 13.9326C43.6308 13.9433 42.6962 13.9534 41.7609 13.9641H41.7602Z" fill="#28226B"></path>
<path d="M28.0202 16.7334C29.6116 16.8193 31.2051 16.7477 32.7973 16.772C33.4891 16.7828 33.4319 16.659 33.4369 17.421C33.4419 18.1101 33.4477 18.7991 33.4527 19.4882C32.5231 19.5053 31.5928 19.5218 30.6633 19.539C29.8929 19.5297 29.1226 19.4953 28.3536 19.5225C27.961 19.5361 27.8767 19.408 27.891 19.041C27.9203 18.2861 27.9017 17.5298 27.9024 16.7742L28.0202 16.7334Z" fill="#28226B"></path>
<path d="M86.369 8.46286L86.3676 11.0352C86.1977 11.1983 85.9864 11.1167 85.7957 11.1189C84.1608 11.1382 82.5259 11.1482 80.8916 11.1604C80.7124 11.038 80.8003 10.8527 80.796 10.6982C80.7767 9.92754 80.7717 9.15692 80.761 8.38629L80.8067 8.39273L80.8167 8.34766C82.6322 8.35338 84.4471 8.35911 86.2627 8.36483C86.2976 8.39774 86.3333 8.42994 86.369 8.46286Z" fill="#28226B"></path>
<path d="M50.129 8.32617L50.139 11.1217C50.1076 11.1353 50.0762 11.1482 50.0448 11.1618C49.8791 11.1496 49.7135 11.126 49.5479 11.126C48.075 11.126 46.6028 11.1353 45.13 11.1296C44.9436 11.1296 44.7259 11.214 44.5717 11.0208C44.5717 10.6788 44.5731 10.3375 44.5731 9.99549C44.5838 9.58764 44.5931 9.17908 44.6052 8.77123C44.6095 8.61524 44.5488 8.43135 44.7708 8.36338C46.1859 8.36338 47.6009 8.36338 49.0153 8.36338C49.2516 8.40703 49.4879 8.40559 49.7242 8.36338L50.1283 8.32617H50.129Z" fill="#28226B"></path>
<path d="M103.048 16.7692C103.045 17.5412 103.044 18.314 103.035 19.086C103.033 19.2427 103.1 19.4309 102.902 19.534C102.704 19.5332 102.507 19.5318 102.309 19.5311C102.272 19.5311 102.234 19.5325 102.197 19.5325C100.645 19.5268 99.0945 19.5211 97.5431 19.5154C97.5381 18.792 97.5581 18.0671 97.5181 17.3459C97.4931 16.8973 97.6087 16.752 98.0842 16.7584C99.6942 16.7799 101.305 16.7463 102.915 16.7334C102.959 16.7448 103.004 16.757 103.048 16.7685V16.7692Z" fill="#28226B"></path>
<path d="M69.6149 2.76855C69.6762 2.77213 69.7376 2.77643 69.7983 2.78C69.9647 2.79145 70.1303 2.8122 70.2967 2.8122C71.7888 2.81506 73.2803 2.81149 74.7724 2.81793C74.9466 2.81864 75.2036 2.71561 75.1943 3.06621C75.1722 3.90481 75.2429 4.74412 75.1579 5.58128C73.3367 5.57341 71.5154 5.56554 69.6941 5.55839C69.6877 5.37521 69.682 5.19204 69.6734 5.00958C69.6377 4.26329 69.7498 3.5127 69.6141 2.76927L69.6149 2.76855Z" fill="#28226B"></path>
<path d="M38.9272 13.9395C39.0928 14.7866 38.9622 15.6424 39.0007 16.4932C39.0093 16.6885 38.8815 16.7071 38.7387 16.7078C37.0788 16.7135 35.4189 16.715 33.7582 16.7279C33.4905 16.73 33.4662 16.5905 33.4691 16.3808C33.4784 15.5744 33.4784 14.7673 33.4819 13.9609C35.2968 13.9538 37.1116 13.9466 38.9272 13.9402V13.9395Z" fill="#28226B"></path>
<path d="M125.311 27.9148C125.313 28.7041 125.308 29.4933 125.324 30.2818C125.33 30.5794 125.236 30.6939 124.925 30.6911C123.367 30.6782 121.809 30.6768 120.251 30.6882C119.922 30.6904 119.755 30.6209 119.785 30.2446C119.845 29.4632 119.7 28.674 119.861 27.8955C121.677 27.9019 123.494 27.9084 125.311 27.9148Z" fill="#28226B"></path>
<path d="M44.5725 11.0212C44.7267 11.2151 44.9444 11.1293 45.1308 11.13C46.6036 11.1357 48.0758 11.1271 49.5487 11.1264C49.7143 11.1264 49.8799 11.1493 50.0456 11.1622C49.3045 11.2981 48.557 11.2008 47.8131 11.2144C47.4954 11.2201 47.3654 11.2988 47.379 11.638C47.4026 12.2419 47.3669 12.8472 47.3926 13.4511C47.4075 13.8096 47.3262 13.9649 46.9271 13.9484C46.141 13.9162 45.3528 13.9356 44.5653 13.9327C44.5668 13.142 44.5632 12.3514 44.5718 11.5607C44.5739 11.3339 44.5603 11.1779 44.2619 11.1808C42.5177 11.1972 40.7728 11.1994 39.028 11.2058C39.1629 11.0091 39.3649 11.1078 39.532 11.1064C40.9849 11.0985 42.4378 11.1064 43.8914 11.1006C44.1184 11.0999 44.3597 11.1643 44.5725 11.0205V11.0212Z" fill="#ECEAFD"></path>
<path d="M16.7042 25.0753C18.347 25.0774 19.9905 25.0782 21.6333 25.0832C21.816 25.0832 21.9988 25.1075 22.1816 25.1204C21.4327 25.2499 20.678 25.1619 19.9269 25.1719C19.6199 25.1762 19.5157 25.2706 19.525 25.5783C19.5436 26.218 19.5186 26.8584 19.5371 27.4981C19.5464 27.8072 19.44 27.9095 19.1316 27.9023C18.3256 27.8837 17.5188 27.8938 16.712 27.8923C16.7142 27.101 16.712 26.3089 16.722 25.5175C16.7249 25.2928 16.7177 25.134 16.4158 25.1376C14.6687 25.1554 12.921 25.1583 11.174 25.1669C11.2375 25.0216 11.3703 25.0617 11.4788 25.0617C13.2208 25.0646 14.9629 25.0703 16.7049 25.0753H16.7042Z" fill="#ECEAFD"></path>
<path d="M27.9024 16.7744C27.901 17.53 27.9203 18.2863 27.891 19.0412C27.8767 19.4083 27.9617 19.5363 28.3537 19.5227C29.1226 19.4956 29.8936 19.5299 30.6633 19.5392C30.6561 20.327 30.6354 21.1155 30.649 21.9026C30.6547 22.2317 30.5505 22.3426 30.2199 22.334C29.4174 22.3147 28.6142 22.3283 27.8118 22.3283C27.8889 21.3881 27.8567 20.4472 27.826 19.5063C27.8218 18.6842 27.8161 17.8627 27.8139 17.0406C27.8139 16.9447 27.7911 16.8352 27.9024 16.7744Z" fill="#ECEAFD"></path>
<path d="M128.144 33.4618C127.32 33.4682 126.497 33.4682 125.674 33.4861C125.423 33.4919 125.361 33.3895 125.366 33.1577C125.379 32.4672 125.386 31.776 125.372 31.0863C125.366 30.7893 125.488 30.7192 125.759 30.7249C126.549 30.7414 127.339 30.7371 128.129 30.7407C128.134 31.6158 128.141 32.4916 128.146 33.3666C128.142 33.4017 128.138 33.4368 128.134 33.4711L128.143 33.4618H128.144Z" fill="#28226B"></path>
<path d="M102.915 16.7335C101.304 16.7464 99.6941 16.78 98.0841 16.7586C97.6086 16.7521 97.493 16.8967 97.518 17.346C97.5587 18.0673 97.538 18.7921 97.543 19.5155C97.3609 19.3946 97.4487 19.2085 97.4466 19.0547C97.4352 18.4486 97.4216 17.8412 97.4494 17.2358C97.4666 16.8702 97.3309 16.7858 96.9882 16.7908C95.5096 16.8122 94.0303 16.8144 92.5518 16.8051C92.3426 16.8037 92.0827 16.926 91.9199 16.667C92.9537 16.7664 93.9904 16.6906 95.0256 16.7085C95.7281 16.7207 96.4306 16.6999 97.1332 16.7156C97.3988 16.7214 97.4801 16.6312 97.4744 16.3708C97.4573 15.5665 97.4602 14.7623 97.4559 13.958C97.6436 14.0746 97.5544 14.2621 97.5572 14.4152C97.5687 15.0027 97.5837 15.5916 97.5537 16.1783C97.5337 16.5668 97.6415 16.6963 98.0499 16.6892C99.4906 16.6634 100.932 16.677 102.373 16.6813C102.553 16.6813 102.742 16.6326 102.914 16.7335H102.915Z" fill="#ECEAFD"></path>
<path d="M75.1579 5.58146C75.2429 4.74429 75.1722 3.90426 75.1943 3.06638C75.2036 2.71649 74.9466 2.81881 74.7724 2.8181C73.2803 2.81166 71.7888 2.81523 70.2967 2.81237C70.1303 2.81237 69.9647 2.79162 69.7983 2.78017C70.1746 2.6571 70.5615 2.72937 70.9428 2.72651C72.2172 2.71578 73.4916 2.73581 74.7653 2.71435C75.1529 2.70791 75.305 2.80236 75.2814 3.21808C75.2458 3.83772 75.2679 4.46094 75.2757 5.08273C75.2779 5.2423 75.2115 5.42118 75.3557 5.55927C75.1379 5.82688 75.2693 6.14028 75.2536 6.43078C75.2222 7.01752 75.2229 7.60568 75.2101 8.19241C75.0723 7.32448 75.1851 6.45153 75.1579 5.58074V5.58146Z" fill="#ECEAFD"></path>
<path d="M28.0245 117.238C29.8437 117.229 31.6628 117.219 33.4812 117.21C33.4855 118.148 33.4905 119.086 33.4948 120.024C33.3027 119.912 33.387 119.724 33.3834 119.57C33.3727 119.032 33.3791 118.494 33.3784 117.956C33.3779 117.515 33.1657 117.294 32.7416 117.294C31.3494 117.294 29.9579 117.296 28.5657 117.292C28.3843 117.292 28.1959 117.337 28.0238 117.238H28.0245Z" fill="#ECEAFD"></path>
<path d="M80.8916 11.1604C82.5265 11.1482 84.1615 11.1382 85.7957 11.1189C85.9863 11.1167 86.1977 11.1983 86.3676 11.0352V11.0495C86.4868 11.1482 86.3619 11.2298 86.349 11.3185C86.152 11.1933 85.9306 11.2233 85.7157 11.2226C84.2307 11.2212 82.7457 11.2241 81.2607 11.2183C81.1393 11.2183 80.9944 11.3013 80.8916 11.1597V11.1604Z" fill="#ECEAFD"></path>
<path d="M50.147 128.328C51.8148 128.427 53.4847 128.343 55.1532 128.374C55.3302 128.377 55.5201 128.308 55.6843 128.435C53.9337 128.441 52.1839 128.447 50.4333 128.45C50.3269 128.45 50.1898 128.49 50.147 128.327V128.328Z" fill="#ECEAFD"></path>
<path d="M91.9156 11.1974C90.3064 11.1924 88.6979 11.1881 87.0886 11.1803C86.9066 11.1796 86.7245 11.1545 86.5425 11.1409C88.2959 11.0579 90.0501 11.1144 91.8036 11.1152C91.8407 11.1152 91.8778 11.1688 91.9156 11.1967V11.1974Z" fill="#ECEAFD"></path>
<path d="M44.7716 8.36349C44.5496 8.43146 44.6102 8.61535 44.606 8.77134C44.5938 9.17919 44.5845 9.58775 44.5738 9.9956C44.471 9.51405 44.5474 9.02749 44.5303 8.5438C44.5253 8.39926 44.571 8.26117 44.7716 8.36349Z" fill="#ECEAFD"></path>
<path d="M92.0077 13.939C91.9763 13.9755 91.9442 14.012 91.9128 14.0485C91.8792 14.0185 91.845 13.9877 91.8114 13.9576C92.0099 13.5784 91.8764 13.172 91.8985 12.7792C91.9271 12.2583 91.9164 11.7352 91.9228 11.2129C92.0863 11.9005 91.9492 12.5989 91.9913 13.2908C92.0042 13.5061 92.0027 13.723 92.0085 13.939H92.0077Z" fill="#ECEAFD"></path>
<path d="M69.6148 2.76855C69.7504 3.51199 69.6383 4.26257 69.674 5.00886C69.6826 5.19204 69.6876 5.3745 69.6947 5.55767C69.4977 5.49614 69.5926 5.33514 69.5912 5.21923C69.5812 4.42929 69.5812 3.64006 69.5784 2.85012C69.6012 2.82866 69.6126 2.80147 69.6112 2.76999L69.6148 2.76855Z" fill="#ECEAFD"></path>
<path d="M119.758 106.085C119.792 106.085 119.825 106.086 119.858 106.086C119.795 106.964 119.926 107.847 119.787 108.722C119.777 107.843 119.767 106.964 119.758 106.085Z" fill="#ECEAFD"></path>
<path d="M69.6577 2.62956C69.6384 1.75304 69.6199 0.876519 69.6006 0C69.8033 0.16958 69.7062 0.40141 69.702 0.59961C69.687 1.27578 69.7705 1.95482 69.6577 2.62884V2.62956Z" fill="#ECEAFD"></path>
<path d="M55.715 128.513C55.7314 129.399 55.7486 130.285 55.765 131.172C55.5608 130.85 55.6793 130.495 55.6772 130.159C55.6736 129.611 55.6122 129.059 55.7157 128.513H55.715Z" fill="#ECEAFD"></path>
<path d="M11.1555 25.6787C11.1997 26.0837 11.1997 26.4894 11.1555 26.8944C11.0641 26.4894 11.0641 26.0837 11.1555 25.6787Z" fill="#ECEAFD"></path>
<path d="M49.7249 8.36396C49.4886 8.40617 49.2523 8.40689 49.016 8.36396C49.2523 8.27451 49.4886 8.27451 49.7249 8.36396Z" fill="#ECEAFD"></path>
<path d="M80.6046 8.38088C80.671 8.31577 80.7374 8.25066 80.8031 8.18555C80.8074 8.23993 80.8124 8.29359 80.8167 8.34797L80.8067 8.39305L80.761 8.38661C80.7088 8.38518 80.6567 8.38303 80.6046 8.3816V8.38088Z" fill="#ECEAFD"></path>
<path d="M114.197 22.3508C114.1 22.3408 114.004 22.3301 113.908 22.3201C114.012 22.2578 114.114 22.2192 114.197 22.3508Z" fill="#ECEAFD"></path>
<path d="M86.3691 8.4632C86.3334 8.43028 86.2984 8.39809 86.2627 8.36517C86.3755 8.31437 86.3848 8.37519 86.3691 8.4632Z" fill="#ECEAFD"></path>
<path d="M128.134 33.4717C128.139 33.4366 128.143 33.4015 128.147 33.3672C128.176 33.403 128.205 33.4387 128.234 33.4738C128.201 33.4738 128.168 33.4724 128.135 33.4717H128.134Z" fill="#ECEAFD"></path>
<path d="M80.7974 5.65846C80.7653 5.62698 80.7332 5.59621 80.701 5.56473C80.7767 5.55113 80.8103 5.58047 80.7974 5.65846Z" fill="#ECEAFD"></path>
<path d="M39.0087 11.7207V11.8245C38.9994 11.8001 38.9865 11.7758 38.9815 11.7508C38.9801 11.7429 38.9994 11.7307 39.0087 11.7207Z" fill="#ECEAFD"></path>
<path d="M11.1518 27.7988C11.1604 27.8353 11.169 27.8725 11.1775 27.909C11.1418 27.9047 11.1062 27.9011 11.0712 27.8969C11.0983 27.8639 11.1247 27.831 11.1518 27.7988Z" fill="#ECEAFD"></path>
<path d="M11.1561 25.375C11.1561 25.4101 11.1561 25.4444 11.1561 25.4787C11.1461 25.4544 11.134 25.4301 11.129 25.4051C11.1276 25.3972 11.1468 25.385 11.1568 25.375H11.1561Z" fill="#ECEAFD"></path>
<path d="M80.6047 8.38066C80.6568 8.38209 80.7089 8.38424 80.761 8.38567C80.771 9.15629 80.7767 9.92691 80.796 10.6975C80.7996 10.8528 80.7118 11.0374 80.8917 11.1598C80.9945 11.3014 81.1394 11.2177 81.2608 11.2184C82.7458 11.2242 84.2308 11.2213 85.7158 11.2227C85.9307 11.2227 86.152 11.1934 86.3491 11.3186C86.3512 12.0599 86.3719 12.8012 86.347 13.5417C86.3355 13.8816 86.4448 13.9596 86.7689 13.9575C88.4495 13.9439 90.1301 13.9553 91.8108 13.9575C91.8443 13.9875 91.8786 14.0183 91.9122 14.0483C91.915 14.9213 91.9179 15.7942 91.92 16.6672C92.0821 16.9262 92.3427 16.8038 92.5519 16.8053C94.0304 16.8146 95.5097 16.8124 96.9883 16.7909C97.3303 16.7859 97.4667 16.8704 97.4495 17.236C97.421 17.8413 97.4353 18.4488 97.4467 19.0549C97.4495 19.2094 97.3617 19.3947 97.5431 19.5157C99.0945 19.5214 100.645 19.5271 102.197 19.5328C102.235 19.5865 102.272 19.5815 102.309 19.5314C102.507 19.5321 102.704 19.5336 102.902 19.5343C103.111 20.1561 102.972 20.7972 102.997 21.4283C103.033 22.3699 103.007 22.3742 103.924 22.3699C105.486 22.3635 107.047 22.3527 108.609 22.3441C108.69 23.1827 108.629 24.0235 108.64 24.8628C108.58 24.8878 108.519 24.9122 108.459 24.9372C108.524 24.9844 108.589 25.0309 108.654 25.0782L108.656 25.081C108.659 25.8395 108.691 26.5994 108.652 27.3557C108.628 27.8229 108.795 27.931 109.225 27.9052C109.812 27.8694 110.403 27.9066 110.991 27.8916C111.284 27.8844 111.413 27.9682 111.411 28.2887C111.401 30.8002 111.4 33.3117 111.41 35.8232C111.411 36.1853 111.245 36.3026 110.925 36.3026C110.319 36.3026 109.713 36.3234 109.108 36.2962C108.743 36.2797 108.649 36.4185 108.657 36.762C108.673 37.4353 108.665 38.11 108.633 38.7826C108.621 39.028 108.742 39.0245 108.901 39.0245C110.565 39.0245 112.23 39.0202 113.896 39.028C114.204 39.0295 114.199 38.8442 114.198 38.6295C114.194 37.9719 114.204 37.3144 114.192 36.6575C114.187 36.3792 114.284 36.269 114.571 36.2704C116.186 36.279 117.801 36.2797 119.416 36.2697C119.716 36.2675 119.783 36.4013 119.778 36.6675C119.767 37.3244 119.758 37.9827 119.781 38.6395C119.793 38.9908 119.645 39.0559 119.333 39.0531C117.836 39.0402 116.339 39.061 114.842 39.0402C114.38 39.0338 114.163 39.144 114.204 39.6577C114.248 40.2101 114.189 40.7711 114.221 41.3249C114.244 41.7313 114.139 41.878 113.7 41.8701C112.17 41.8422 110.64 41.8694 109.109 41.8529C108.763 41.8494 108.631 41.9409 108.645 42.3037C108.671 42.9434 108.634 43.5852 108.66 44.2249C108.674 44.5777 108.566 44.6857 108.208 44.6814C106.678 44.6628 105.147 44.6886 103.617 44.6642C103.192 44.6571 103.06 44.7859 103.085 45.2045C103.118 45.759 103.057 46.3192 103.104 46.8716C103.146 47.3675 102.945 47.4512 102.505 47.444C100.991 47.419 99.4779 47.4455 97.9643 47.4247C97.5959 47.4197 97.4531 47.5063 97.4724 47.8977C97.5031 48.5202 97.4602 49.1456 97.4888 49.7681C97.5059 50.1459 97.3874 50.2604 97.0062 50.2553C95.4762 50.2346 93.9448 50.2618 92.4148 50.236C92.0007 50.2289 91.8943 50.3684 91.9122 50.7548C91.9393 51.3265 91.895 51.9018 91.9272 52.4735C91.9507 52.8885 91.8258 53.0237 91.3974 53.0166C89.8838 52.9908 88.3703 53.0194 86.8567 52.9958C86.4555 52.9894 86.3305 53.1089 86.3498 53.506C86.3798 54.1285 86.3377 54.7539 86.3648 55.3764C86.3805 55.7413 86.2477 55.8279 85.9029 55.8236C84.4229 55.8064 82.9428 55.815 81.4628 55.8164C81.0216 55.8164 80.8005 56.0303 80.7996 56.4582C80.7989 57.0142 80.7782 57.5716 80.806 58.1268C80.8253 58.5125 80.726 58.6492 80.3077 58.6413C78.7777 58.6134 77.247 58.642 75.7163 58.6234C75.3393 58.6191 75.2122 58.7322 75.2308 59.1107C75.2586 59.6824 75.2101 60.2584 75.2465 60.8294C75.2736 61.2623 75.1615 61.4118 74.6982 61.4018C73.1853 61.3703 71.6711 61.4047 70.1575 61.3811C69.7291 61.3746 69.6006 61.5177 69.6199 61.9313C69.6484 62.5538 69.6156 63.1784 69.6334 63.8017C69.642 64.1072 69.5413 64.2188 69.2301 64.2095C68.5747 64.1902 67.9178 64.2167 67.2624 64.1981C66.9519 64.1888 66.8298 64.2982 66.864 64.6052C66.879 64.7383 66.8669 64.875 66.8669 65.0095C66.8669 82.1692 66.8669 113.282 66.8669 130.441C66.8669 131.296 66.9219 131.173 66.148 131.178C65.6268 131.181 65.1035 131.155 64.5844 131.187C64.196 131.21 64.0575 131.1 64.0647 130.688C64.0839 129.458 64.0532 128.228 64.0532 126.998C64.0518 110.917 64.0497 80.8834 64.0618 64.8027C64.0618 64.3412 63.9511 64.1795 63.4792 64.216C62.9273 64.2582 62.369 64.2038 61.815 64.2324C61.4252 64.2525 61.2696 64.1408 61.2931 63.7265C61.3267 63.1556 61.2788 62.5796 61.3095 62.0079C61.3338 61.5614 61.2117 61.3839 60.7248 61.3939C59.212 61.4254 57.6977 61.3939 56.1841 61.4161C55.7843 61.4218 55.6515 61.3031 55.6722 60.9002C55.7029 60.2949 55.6636 59.6867 55.6858 59.0806C55.6979 58.7479 55.5844 58.6449 55.2553 58.6485C53.7417 58.6635 52.2274 58.6349 50.7146 58.6678C50.2141 58.6785 50.0784 58.5147 50.112 58.0395C50.1513 57.4864 50.0863 56.9248 50.1306 56.3724C50.1684 55.8994 49.9821 55.8193 49.558 55.8264C48.0615 55.8515 46.5644 55.8243 45.0672 55.8457C44.671 55.8515 44.5346 55.7406 44.5546 55.3356C44.586 54.7138 44.5432 54.0877 44.5689 53.4652C44.5839 53.1089 44.4668 53.0065 44.1141 53.0108C42.6177 53.0287 41.1198 53.0008 39.6234 53.0287C39.1529 53.0373 38.9559 52.9307 38.9951 52.4212C39.0394 51.8517 38.988 51.275 39.0087 50.7033C39.0201 50.3784 38.9194 50.2654 38.5825 50.2682C37.1196 50.2818 35.656 50.2704 34.1931 50.2682C33.6967 50.2673 33.4482 50.0266 33.4478 49.5463C33.4478 49.0239 33.4221 48.4994 33.4535 47.9793C33.4785 47.57 33.3642 47.4305 32.9294 47.4383C31.3994 47.4662 29.8687 47.4383 28.338 47.4569C27.9525 47.4619 27.7912 47.3696 27.8154 46.9539C27.8483 46.3994 27.7854 45.8391 27.8311 45.2867C27.8733 44.7737 27.6741 44.6778 27.2043 44.6878C25.725 44.7186 24.2443 44.685 22.7643 44.7086C22.3544 44.715 22.2388 44.5827 22.2573 44.1884C22.2859 43.5659 22.2438 42.9405 22.2709 42.318C22.2866 41.9502 22.146 41.8687 21.8054 41.8723C20.2747 41.8873 18.744 41.8665 17.214 41.8858C16.8228 41.8909 16.6779 41.7864 16.7 41.3764C16.7335 40.7546 16.6878 40.1285 16.7143 39.506C16.73 39.1447 16.6029 39.0509 16.2559 39.0545C14.7423 39.0717 13.2281 39.0474 11.7152 39.0717C11.2861 39.0781 11.1069 38.9808 11.1398 38.5157C11.1797 37.9454 11.1319 37.3695 11.1548 36.797C11.1698 36.4228 11.0362 36.2983 10.6607 36.3026C9.14714 36.3198 7.63286 36.2954 6.12 36.3191C5.69806 36.3255 5.56527 36.1981 5.58383 35.7774C5.61739 35.0039 5.59954 34.2283 5.60239 33.4534L5.60453 33.4505C6.37417 33.4527 7.1438 33.4441 7.91273 33.4634C8.23257 33.4713 8.35751 33.3783 8.34752 33.0391C8.32539 32.2685 8.34038 31.4971 8.34038 30.7265C9.26994 30.7158 10.1988 30.7043 11.1283 30.6936C11.913 30.7015 12.699 30.6972 13.4829 30.7244C13.8214 30.7358 13.9106 30.6077 13.9035 30.2858C13.8863 29.4994 13.9035 28.7116 13.9063 27.9245C14.8409 27.9145 15.7754 27.9038 16.7093 27.8938C17.516 27.8952 18.3228 27.8852 19.1288 27.9038C19.4373 27.9109 19.5429 27.8086 19.5344 27.4995C19.5158 26.8598 19.5415 26.2194 19.5222 25.5797C19.5129 25.2721 19.6172 25.1776 19.9242 25.1733C20.676 25.1633 21.4306 25.2506 22.1788 25.1218L22.2831 25.0846C23.0491 25.2256 23.8223 25.1032 24.5905 25.154C24.9596 25.1783 25.0996 25.0474 25.0903 24.6667C25.0717 23.894 25.0931 23.1198 25.0974 22.3463C26.0013 22.3413 26.9059 22.3363 27.8097 22.3305C28.6129 22.3305 29.4161 22.3169 30.2186 22.3363C30.5491 22.3441 30.6534 22.2339 30.6477 21.9048C30.6334 21.117 30.6548 20.3292 30.6619 19.5414C31.5915 19.5242 32.5218 19.5078 33.4513 19.4906C34.2417 19.4963 35.032 19.4935 35.8216 19.5114C36.1058 19.5178 36.2086 19.4169 36.2007 19.1314C36.185 18.5418 36.2186 17.9508 36.1879 17.3626C36.1658 16.9441 36.2586 16.7795 36.7305 16.7867C38.2426 16.8095 39.7555 16.7638 41.2683 16.7709C41.6367 16.7723 41.7724 16.6808 41.7595 16.2922C41.7331 15.518 41.7567 14.7424 41.7595 13.9668C42.6948 13.956 43.6294 13.946 44.5646 13.9353C45.3521 13.9374 46.1403 13.9181 46.9264 13.951C47.3247 13.9675 47.4068 13.8122 47.3919 13.4537C47.3661 12.8505 47.4018 12.2445 47.3783 11.6406C47.3647 11.3014 47.4947 11.222 47.8124 11.217C48.5563 11.2041 49.3038 11.3007 50.0449 11.1648C50.0763 11.1512 50.1077 11.1383 50.1391 11.1247C50.9295 11.1218 51.7198 11.1061 52.5094 11.1233C52.8357 11.1304 52.9578 11.0324 52.9449 10.6954C52.9228 10.1065 52.9578 9.51548 52.9328 8.92661C52.9171 8.5531 52.9978 8.39926 53.4219 8.40356C54.934 8.41858 56.4468 8.36635 57.9583 8.38495C58.4245 8.39068 58.5216 8.23684 58.5044 7.80752C58.4752 7.06767 58.508 6.32567 58.5144 5.58439C59.3869 5.58296 60.2586 5.58152 61.1311 5.58009C61.4687 5.63304 61.3638 5.43126 61.3145 5.26097C61.3145 4.48248 61.3145 3.70399 61.3145 2.92549C61.6058 2.81888 61.9107 2.84321 62.2113 2.84321C64.6665 2.84464 67.1218 2.84893 69.5778 2.85251C69.5806 3.64245 69.5806 4.43168 69.5906 5.22162C69.592 5.33753 69.4971 5.49852 69.6941 5.56006C71.5154 5.56793 73.3367 5.5758 75.158 5.58296C75.1858 6.45303 75.073 7.32598 75.2101 8.19462C75.2643 8.48226 75.4949 8.37064 75.652 8.37207C77.3027 8.38209 78.9533 8.38137 80.6047 8.38352V8.38066ZM83.5676 37.1412C83.5676 37.1877 83.5676 37.2335 83.5676 37.28C83.5076 37.4038 83.5104 37.5269 83.574 37.6485C83.5725 37.7945 83.5704 37.9404 83.569 38.0864C83.4962 38.3118 83.4862 38.5365 83.5761 38.7597L83.5733 38.8992C83.5297 38.9658 83.5418 39.013 83.6218 39.0359L83.7239 39.0667C83.7689 39.1382 83.8089 39.1304 83.8446 39.0588C84.6428 39.061 85.4417 39.0631 86.2399 39.0645C86.4048 39.2062 86.3662 39.3994 86.3662 39.5804C86.3676 40.2044 86.3805 40.8283 86.3619 41.4508C86.3527 41.7621 86.464 41.8579 86.7689 41.8565C89.2913 41.8486 91.8144 41.8486 94.3367 41.8608C94.668 41.8622 94.728 41.7206 94.7223 41.4351C94.7087 40.8118 94.7408 40.1872 94.7123 39.5647C94.6923 39.1311 94.8693 39.0044 95.2749 39.0216C95.8453 39.0459 96.4193 39.0044 96.9898 39.0359C97.3803 39.0574 97.4674 38.9107 97.4652 38.5429C97.451 36.0822 97.4467 33.6215 97.4688 31.1608C97.4731 30.705 97.2953 30.5913 96.9084 30.66C96.1901 30.7873 95.4669 30.7172 94.7458 30.7287C94.7408 29.9029 94.723 29.0779 94.7373 28.2529C94.7422 27.961 94.653 27.8787 94.3689 27.8866C93.6799 27.9059 92.9902 27.8802 92.3013 27.8995C92.0221 27.9073 91.9179 27.8351 91.9272 27.5396C91.9471 26.8663 91.9165 26.1915 91.94 25.5182C91.9514 25.1962 91.8772 25.0832 91.5302 25.0853C89.0085 25.0996 86.4862 25.0989 83.9645 25.0839C83.6175 25.0817 83.5411 25.2019 83.5518 25.5225C83.5747 26.1958 83.5447 26.8706 83.5654 27.5439C83.574 27.8336 83.4826 27.9152 83.1992 27.9073C82.5102 27.888 81.8205 27.9124 81.1316 27.8952C80.8695 27.8887 80.7889 27.9596 80.7903 28.23C80.801 30.7909 80.8017 33.3525 80.7917 35.9134C80.791 36.1967 80.8645 36.289 81.1551 36.284C81.944 36.2718 82.7337 36.2926 83.5226 36.3012C83.5319 36.5809 83.4719 36.8643 83.5661 37.1391L83.5676 37.1412ZM41.7909 39.0803C41.7838 39.8716 41.7881 40.663 41.7645 41.4544C41.7552 41.7628 41.8566 41.8615 42.1658 41.8601C44.6867 41.8501 47.2069 41.8494 49.7279 41.8601C50.0392 41.8615 50.1384 41.7549 50.1306 41.4508C50.1134 40.8111 50.1406 40.1707 50.1213 39.5311C50.1099 39.1669 50.2269 39.0102 50.6103 39.0252C51.1979 39.0488 51.7876 39.0051 52.3738 39.0402C52.8007 39.0652 52.9735 38.9615 52.9485 38.4921C52.9078 37.7365 52.9407 36.9766 52.9407 36.2189C52.9407 34.5345 52.9407 32.8502 52.9407 31.1666C52.9407 30.9326 52.9771 30.6206 52.6215 30.6714C51.8033 30.7881 50.9866 30.6879 50.1698 30.7179L50.1591 30.5455C50.2612 30.2707 50.2619 29.9952 50.1598 29.7198V29.5316C50.2634 29.0207 50.2669 28.5098 50.157 27.9996C50.0392 27.8108 49.8521 27.9031 49.6986 27.9002C49.0939 27.8887 48.4856 27.8616 47.8838 27.9066C47.4404 27.9395 47.3533 27.78 47.3754 27.3757C47.4104 26.7546 47.3726 26.1293 47.389 25.506C47.3969 25.2213 47.3497 25.0867 47.0127 25.0882C44.4575 25.1011 41.9023 25.0968 39.3471 25.0882C39.0865 25.0875 38.9951 25.1619 39.0016 25.4309C39.018 26.1214 38.988 26.8133 39.0158 27.5031C39.0301 27.8487 38.9102 27.9245 38.5889 27.9124C37.9342 27.888 37.2774 27.9174 36.6227 27.8988C36.3364 27.8909 36.2093 27.9367 36.2114 28.2751C36.2272 30.8188 36.2279 33.3632 36.2136 35.9069C36.2114 36.2432 36.3407 36.2947 36.6262 36.2869C37.2481 36.2704 37.8735 36.3205 38.4911 36.2683C38.9701 36.2275 39.0487 36.4121 39.0265 36.8292C38.9937 37.451 39.0301 38.0757 39.0108 38.6989C39.0015 38.9815 39.0815 39.071 39.3728 39.066C40.1788 39.0524 40.9849 39.0738 41.7917 39.081L41.7909 39.0803Z" fill="white"></path>
<path d="M89.177 107.502C89.177 108.749 89.1677 109.996 89.1834 111.243C89.1877 111.57 89.0935 111.686 88.7551 111.672C88.1004 111.646 87.4436 111.678 86.7881 111.657C86.4683 111.647 86.3419 111.73 86.3555 112.076C86.3819 112.75 86.3555 113.424 86.3669 114.098C86.3712 114.353 86.2962 114.455 86.0257 114.454C83.4533 114.443 80.8809 114.438 78.3086 114.443C78.0452 114.443 78.003 114.324 78.0052 114.105C78.0123 113.414 77.9952 112.722 78.0152 112.033C78.0237 111.726 77.9309 111.62 77.6168 111.631C76.9785 111.653 76.3388 111.622 75.7006 111.644C75.37 111.656 75.2286 111.59 75.2315 111.21C75.2493 108.7 75.2458 106.189 75.2372 103.678C75.2365 103.381 75.3036 103.26 75.6277 103.272C76.2824 103.296 76.9392 103.262 77.5947 103.282C77.9009 103.291 78.008 103.201 77.998 102.887C77.9766 102.213 78.003 101.539 77.9845 100.865C77.9759 100.557 78.0794 100.458 78.3871 100.459C80.8924 100.469 83.3976 100.47 85.9029 100.459C86.2777 100.457 86.3948 100.578 86.3755 100.954C86.3419 101.593 86.3783 102.235 86.3541 102.875C86.3419 103.192 86.4526 103.278 86.7567 103.268C87.4114 103.247 88.0683 103.281 88.7229 103.253C89.0849 103.237 89.1777 103.365 89.1727 103.712C89.1549 104.975 89.1656 106.239 89.1656 107.503H89.1777L89.177 107.502Z" fill="#28226B"></path>
<path d="M105.872 82.3307C105.872 83.5443 105.845 84.7585 105.885 85.9706C105.901 86.4794 105.731 86.6024 105.259 86.5666C104.69 86.5237 104.115 86.5767 103.545 86.5423C103.151 86.518 103.058 86.6632 103.077 87.0325C103.107 87.6378 103.069 88.246 103.095 88.852C103.109 89.1926 103.023 89.3207 102.655 89.3186C100.166 89.3 97.6772 89.2942 95.1891 89.31C94.7907 89.3121 94.7115 89.1762 94.7265 88.8155C94.7529 88.1766 94.7215 87.5348 94.7372 86.8951C94.7443 86.6046 94.6372 86.5151 94.3559 86.5209C93.6834 86.5352 93.0101 86.5116 92.3383 86.5266C92.0377 86.5337 91.9278 86.4436 91.9292 86.1266C91.9406 83.5986 91.9414 81.0707 91.9292 78.5427C91.9278 78.2107 92.0577 78.1506 92.3469 78.1592C92.9687 78.1778 93.592 78.1485 94.2131 78.1764C94.5958 78.1936 94.7536 78.097 94.7286 77.677C94.6908 77.0387 94.7286 76.3962 94.7122 75.7565C94.705 75.4717 94.7572 75.3358 95.092 75.3379C97.6315 75.3508 100.17 75.3501 102.71 75.3379C103.029 75.3365 103.109 75.4445 103.099 75.7465C103.079 76.3862 103.114 77.028 103.086 77.6669C103.07 78.0333 103.16 78.1778 103.554 78.1571C104.192 78.1235 104.832 78.165 105.471 78.1428C105.782 78.132 105.872 78.2279 105.868 78.5399C105.851 79.8035 105.86 81.0678 105.86 82.3315H105.873L105.872 82.3307Z" fill="#28226B"></path>
<path d="M119.795 57.2426C119.795 58.4726 119.783 59.7033 119.803 60.9332C119.81 61.2982 119.725 61.4427 119.332 61.4212C118.712 61.3869 118.088 61.4291 117.466 61.4055C117.123 61.3926 116.99 61.4892 117.005 61.8534C117.033 62.5095 117.005 63.1678 117.019 63.8247C117.025 64.1102 116.919 64.2046 116.637 64.2039C114.098 64.1932 111.559 64.1896 109.02 64.1968C108.724 64.1975 108.649 64.0937 108.656 63.8139C108.673 63.1743 108.629 62.5317 108.669 61.8935C108.697 61.4463 108.523 61.3583 108.124 61.3769C107.486 61.4062 106.846 61.3747 106.208 61.3869C105.952 61.3919 105.855 61.3139 105.856 61.0434C105.863 58.4819 105.863 55.9203 105.854 53.3587C105.853 53.0861 105.95 53.0145 106.206 53.0203C106.895 53.0346 107.585 53.0131 108.274 53.031C108.564 53.0381 108.654 52.9394 108.648 52.6539C108.631 51.9634 108.656 51.2715 108.638 50.5817C108.629 50.2733 108.766 50.2268 109.03 50.2276C111.569 50.2354 114.109 50.2369 116.648 50.2276C116.937 50.2261 117.03 50.3227 117.023 50.6046C117.01 51.2279 117.057 51.8547 117.009 52.4743C116.972 52.953 117.159 53.0374 117.576 53.0152C118.18 52.983 118.787 53.021 119.392 53.0002C119.701 52.9895 119.795 53.0918 119.791 53.4016C119.776 54.6817 119.785 55.9625 119.785 57.2433H119.797L119.795 57.2426Z" fill="#28226B"></path>
<path d="M39.0222 82.3706C39.0222 83.6013 39.0086 84.8313 39.0307 86.0612C39.0372 86.4276 38.9565 86.5714 38.561 86.5507C37.9241 86.517 37.2823 86.5678 36.6454 86.5342C36.2342 86.5127 36.1771 86.6916 36.1907 87.0394C36.2164 87.679 36.1914 88.3202 36.2099 88.9598C36.2178 89.2274 36.1243 89.3047 35.8637 89.304C33.3249 89.2933 30.7854 89.2868 28.2466 89.2961C27.936 89.2976 27.8875 89.1645 27.8903 88.9083C27.8975 88.2851 27.8675 87.6604 27.8946 87.0379C27.9124 86.6337 27.8118 86.4669 27.3691 86.4956C26.733 86.5378 26.0912 86.4991 25.4529 86.5127C25.1994 86.5177 25.1023 86.4469 25.1038 86.1736C25.1131 83.6285 25.1138 81.0833 25.1038 78.5382C25.1023 78.2491 25.1887 78.1626 25.4743 78.1711C26.1297 78.1905 26.7866 78.1654 27.442 78.184C27.7582 78.1933 27.891 78.1118 27.8767 77.764C27.8489 77.1079 27.8796 76.4496 27.8618 75.792C27.8532 75.4836 27.9117 75.3455 28.2701 75.3477C30.7925 75.3634 33.3156 75.3627 35.8387 75.3477C36.1721 75.3455 36.2264 75.4715 36.2192 75.7598C36.2028 76.4167 36.2299 77.075 36.2085 77.7318C36.1978 78.0559 36.2856 78.1819 36.629 78.1683C37.2837 78.1432 37.9413 78.179 38.5959 78.1533C38.9301 78.1404 39.0229 78.2463 39.0186 78.5768C39.0008 79.8405 39.0115 81.1048 39.0115 82.3691H39.0243L39.0222 82.3706Z" fill="#28226B"></path>
<path d="M122.538 36.2415C121.747 36.2415 120.957 36.233 120.167 36.2458C119.87 36.2508 119.74 36.1578 119.748 35.843C119.764 35.1861 119.76 34.5286 119.749 33.8717C119.744 33.5683 119.867 33.4517 120.168 33.4531C121.765 33.4603 123.362 33.4617 124.959 33.4531C125.245 33.4517 125.344 33.554 125.338 33.8352C125.326 34.4921 125.322 35.1497 125.34 35.8065C125.348 36.1314 125.242 36.2544 124.908 36.2458C124.118 36.2265 123.328 36.2394 122.538 36.2394V36.2415Z" fill="white"></path>
<path d="M61.1317 5.5784C60.2592 5.57983 59.3875 5.58127 58.515 5.5827C57.7426 5.57268 56.9694 5.54191 56.1969 5.56266C55.8328 5.57196 55.7407 5.45032 55.7549 5.10544C55.7806 4.46576 55.7642 3.82465 55.7621 3.18426C55.7621 2.98319 55.7785 2.81862 56.0484 2.81934C57.7468 2.82506 59.4453 2.82363 61.1438 2.83007C61.2009 2.83007 61.2573 2.89161 61.3144 2.9238C61.3144 3.7023 61.3144 4.48079 61.3144 5.25928C61.2502 5.36375 61.2745 5.51973 61.131 5.57912L61.1317 5.5784Z" fill="#28226B"></path>
<path d="M13.9077 27.9223C13.9049 28.7094 13.8877 29.4965 13.9049 30.2835C13.912 30.6055 13.8228 30.7343 13.4844 30.7222C12.6997 30.695 11.9144 30.7 11.1298 30.6914C11.1426 29.7605 11.1562 28.8303 11.169 27.8994C12.0822 27.9066 12.9946 27.9144 13.9077 27.9216V27.9223Z" fill="#ECEAFD"></path>
<path d="M8.34173 30.7258C8.34173 31.4971 8.32673 32.2684 8.34887 33.0383C8.35886 33.3775 8.23392 33.4712 7.91407 33.4626C7.14515 33.4426 6.37552 33.4519 5.60588 33.4498C5.60017 32.6434 5.59874 31.8377 5.58732 31.0313C5.58446 30.8173 5.6173 30.6835 5.88146 30.6907C6.70108 30.7122 7.52211 30.715 8.34173 30.725V30.7258Z" fill="#ECEAFD"></path>
<path d="M25.0995 22.3439C25.0945 23.1174 25.0738 23.8916 25.0923 24.6643C25.1016 25.045 24.9617 25.1759 24.5926 25.1516C23.8244 25.1008 23.0512 25.2231 22.2851 25.0822C22.2794 24.1677 22.2744 23.2533 22.2687 22.3389C23.2118 22.3403 24.1556 22.3424 25.0988 22.3439H25.0995Z" fill="#ECEAFD"></path>
<path d="M108.654 25.0777C108.589 25.0305 108.524 24.9839 108.459 24.9367C108.519 24.9117 108.58 24.8873 108.64 24.8623C108.645 24.9339 108.65 25.0061 108.655 25.0777H108.654Z" fill="#ECEAFD"></path>
<path d="M102.309 19.5312C102.272 19.5813 102.235 19.5863 102.197 19.5327L102.309 19.5312Z" fill="#ECEAFD"></path>
<path d="M50.1598 29.5306V29.7181C50.1106 29.9928 50.1106 30.2683 50.1591 30.5438C50.1627 30.601 50.1663 30.659 50.1698 30.7162C50.1598 32.0285 50.152 33.3408 50.1391 34.6538C50.1341 35.1739 50.3162 35.8687 50.0542 36.1685C49.7536 36.512 49.0439 36.2687 48.5128 36.2751C47.3519 36.2902 47.359 36.2787 47.3476 37.4171C47.3426 37.9366 47.5661 38.6235 47.2634 38.9297C46.9371 39.2603 46.2467 39.0185 45.7155 39.0335C44.4083 39.0707 43.0989 38.9805 41.7917 39.0807C40.9856 39.0728 40.1789 39.0521 39.3728 39.0657C39.0822 39.0707 39.0023 38.9805 39.0108 38.6986C39.0308 38.0761 38.9944 37.4507 39.0265 36.829C39.0487 36.4118 38.9694 36.2272 38.4911 36.268C37.8735 36.3209 37.2481 36.2701 36.6263 36.2866C36.3414 36.2945 36.2122 36.2429 36.2136 35.9066C36.2279 33.363 36.2272 30.8185 36.2115 28.2749C36.2093 27.9371 36.3364 27.8906 36.6227 27.8985C37.2781 27.9164 37.9342 27.887 38.5889 27.9121C38.9102 27.9242 39.0301 27.8484 39.0158 27.5028C38.988 26.813 39.018 26.1211 39.0016 25.4306C38.9951 25.1623 39.0865 25.0872 39.3471 25.0879C41.9023 25.0965 44.4575 25.1008 47.0128 25.0879C47.3497 25.0865 47.3969 25.221 47.389 25.5058C47.3726 26.129 47.4097 26.7536 47.3754 27.3754C47.3526 27.7797 47.4404 27.9393 47.8838 27.9064C48.4856 27.862 49.0932 27.8885 49.6986 27.8999C49.8521 27.9028 50.0392 27.8105 50.157 27.9994C50.1127 28.5103 50.1084 29.0204 50.1598 29.5313V29.5306Z" fill="#28226B"></path>
<path d="M83.5239 36.3033C82.7343 36.2954 81.9454 36.2739 81.1565 36.2861C80.8659 36.2904 80.7916 36.1981 80.7931 35.9154C80.8024 33.3546 80.8016 30.793 80.7916 28.2321C80.7902 27.9617 80.8716 27.8908 81.1329 27.8973C81.8219 27.9152 82.5115 27.8908 83.2005 27.9094C83.4839 27.9173 83.5753 27.8357 83.5668 27.5459C83.5461 26.8726 83.576 26.1979 83.5532 25.5246C83.5425 25.204 83.6189 25.0838 83.9659 25.086C86.4875 25.1003 89.0099 25.1017 91.5316 25.0874C91.8785 25.0852 91.9528 25.1983 91.9414 25.5203C91.9171 26.1936 91.9478 26.8683 91.9285 27.5416C91.9199 27.8372 92.0235 27.9087 92.3026 27.9016C92.9916 27.883 93.6812 27.908 94.3702 27.8887C94.6551 27.8808 94.7443 27.9631 94.7386 28.255C94.7236 29.08 94.7415 29.9057 94.7472 30.7307C94.7379 30.8137 94.7207 30.8975 94.7207 30.9805C94.7193 32.5983 94.71 34.2168 94.7272 35.8346C94.7308 36.1845 94.6408 36.3033 94.2802 36.2875C93.6256 36.2589 92.968 36.299 92.3133 36.2718C91.9678 36.2575 91.8842 36.3855 91.8957 36.704C91.9164 37.31 91.8742 37.9189 91.9142 38.5235C91.9428 38.9564 91.7929 39.0502 91.3823 39.0466C89.6689 39.0323 87.9547 39.0559 86.2405 39.0659C85.4423 39.0638 84.6434 39.0616 83.8452 39.0602C83.8052 39.063 83.7645 39.0652 83.7245 39.068C83.6903 39.058 83.656 39.0473 83.6224 39.0373C83.606 38.9915 83.5903 38.9457 83.5739 38.9006C83.5746 38.8541 83.576 38.8076 83.5768 38.7611C83.6317 38.5357 83.6603 38.311 83.5696 38.0878C83.571 37.9418 83.5732 37.7958 83.5746 37.6499C83.6524 37.5254 83.646 37.403 83.5682 37.2814C83.5682 37.2349 83.5682 37.1891 83.5682 37.1426C83.6167 36.8599 83.7095 36.5752 83.5246 36.3047L83.5239 36.3033Z" fill="#28226B"></path>
<path d="M41.7909 39.0806C43.0981 38.9804 44.4068 39.0705 45.7147 39.0333C46.2459 39.0183 46.9363 39.2602 47.2626 38.9296C47.5653 38.6233 47.3418 37.9357 47.3468 37.417C47.3583 36.2793 47.3518 36.29 48.512 36.275C49.0432 36.2678 49.7528 36.5111 50.0534 36.1684C50.3154 35.8693 50.1334 35.1738 50.1384 34.6536C50.1512 33.3413 50.1591 32.0291 50.1691 30.7161C50.9858 30.686 51.8026 30.7862 52.6208 30.6696C52.9756 30.6188 52.9399 30.9307 52.9399 31.1647C52.9406 32.849 52.9406 34.5334 52.9399 36.217C52.9399 36.9748 52.907 37.7347 52.9477 38.4903C52.9727 38.9596 52.8007 39.0634 52.373 39.0383C51.7869 39.004 51.1964 39.0469 50.6096 39.0233C50.2262 39.0083 50.1098 39.165 50.1205 39.5292C50.1398 40.1689 50.1134 40.8093 50.1298 41.4489C50.1376 41.753 50.0391 41.8597 49.7271 41.8582C47.2062 41.8482 44.6859 41.8489 42.165 41.8582C41.8559 41.8597 41.7545 41.7609 41.7638 41.4525C41.7873 40.6619 41.783 39.8698 41.7902 39.0784L41.7909 39.0806Z" fill="#ECEAFD"></path>
<path d="M86.2405 39.0658C87.9547 39.0558 89.6681 39.0322 91.3823 39.0465C91.7936 39.0501 91.9428 38.9564 91.9142 38.5235C91.8742 37.9196 91.9164 37.3099 91.8957 36.7039C91.8849 36.3855 91.9678 36.2567 92.3133 36.2717C92.968 36.2996 93.6256 36.2588 94.2802 36.2875C94.6408 36.3032 94.7307 36.1844 94.7272 35.8345C94.7093 34.2167 94.7186 32.5989 94.7207 30.9804C94.7207 30.8974 94.7379 30.8137 94.7472 30.7307C95.4682 30.7192 96.1915 30.7894 96.9097 30.662C97.296 30.5933 97.4737 30.7071 97.4702 31.1629C97.4473 33.6236 97.4523 36.0843 97.4666 38.5449C97.4687 38.912 97.3816 39.0594 96.9911 39.0379C96.4214 39.0065 95.8474 39.048 95.2762 39.0236C94.8707 39.0065 94.6936 39.1324 94.7136 39.5667C94.7422 40.1892 94.71 40.8139 94.7236 41.4371C94.73 41.7226 94.6693 41.8643 94.3381 41.8628C91.8157 41.8507 89.2926 41.8507 86.7702 41.8585C86.4654 41.8593 86.354 41.7641 86.3633 41.4528C86.3826 40.8296 86.3697 40.2057 86.3676 39.5825C86.3676 39.4007 86.4054 39.2082 86.2412 39.0666L86.2405 39.0658Z" fill="#ECEAFD"></path>
<path d="M50.1598 29.53C50.1076 29.0191 50.1126 28.5089 50.1569 27.998C50.2669 28.5082 50.2633 29.0191 50.1598 29.53Z" fill="#ECEAFD"></path>
<path d="M83.5239 36.3027C83.7088 36.5732 83.616 36.858 83.5675 37.1406C83.4732 36.8651 83.5339 36.5818 83.5239 36.3027Z" fill="#ECEAFD"></path>
<path d="M50.1591 30.5435C50.1106 30.268 50.1106 29.9933 50.1598 29.7178C50.2619 29.9933 50.2612 30.268 50.1591 30.5435Z" fill="#ECEAFD"></path>
<path d="M61.1317 5.57863C61.2752 5.51996 61.2509 5.36397 61.3152 5.25879C61.3645 5.42908 61.4694 5.63158 61.1317 5.57863Z" fill="#ECEAFD"></path>
<path d="M83.569 38.0869C83.6604 38.3102 83.6318 38.5348 83.5761 38.7602C83.4854 38.537 83.4962 38.3123 83.569 38.0869Z" fill="#ECEAFD"></path>
<path d="M83.5675 37.2803C83.6453 37.4019 83.6517 37.525 83.5739 37.6488C83.5103 37.5271 83.5075 37.4041 83.5675 37.2803Z" fill="#ECEAFD"></path>
<path d="M83.5732 38.8994C83.5896 38.9452 83.6053 38.991 83.6218 39.0361C83.5418 39.0132 83.5296 38.966 83.5732 38.8994Z" fill="#ECEAFD"></path>
<path d="M83.7239 39.0674C83.7639 39.0646 83.8046 39.0624 83.8445 39.0596C83.8088 39.1311 83.7689 39.139 83.7239 39.0674Z" fill="#ECEAFD"></path>
</g>
<defs>
<clipPath id="clip0_215_19464">
<rect width="131" height="134" fill="white"></rect>
</clipPath>
</defs>
</svg>
