<svg width="131" height="134" fill="none" xmlns="http://www.w3.org/2000/svg"><g clip-path="url('#clip0_215_19464')"><path d="M27.914 117.216c-.228-.511-.08-1.046-.092-1.568-.027-1.151-.009-1.151-1.142-1.151-1.322 0-2.643.003-3.964-.008-.142-.001-.34.12-.43-.111 1.762.012 3.524.02 5.286.04.282.003.281-.156.28-.355-.002-.657-.02-1.314.01-1.97.017-.364-.109-.448-.453-.446-1.713.015-3.427.005-5.141.003l.008.009c.002-.792-.017-1.583.015-2.373.015-.371-.12-.44-.456-.436-1.562.015-3.125-.006-4.686.015-.362.005-.453-.108-.438-.453.026-.656-.006-1.313.015-1.969.009-.292-.087-.369-.37-.367-1.73.014-3.459.011-5.189.013l.01.008c-.007-.774-.035-1.549-.012-2.322.011-.386-.076-.518-.49-.511-1.547.027-3.094.001-4.64.017-.34.004-.474-.071-.455-.44.032-.604-.016-1.214.017-1.818.022-.407-.075-.577-.516-.541-.501.04-1.008.01-1.512.01-.517-.001-.776-.258-.776-.772V49.18c0-5.24.005-10.479.008-15.719l-.009.008 2.814-.016c-.004.774.014 1.55-.019 2.324-.018.42.115.548.537.541 1.513-.023 3.027 0 4.54-.016.376-.004.51.12.494.494-.023.573.025 1.149-.015 1.719-.033.465.147.563.576.556 1.513-.024 3.027 0 4.54-.017.347-.004.474.09.459.451-.027.623.018 1.249-.015 1.87-.022.41.123.515.515.51 1.53-.02 3.06.002 4.59-.014.341-.003.482.08.466.446-.027.623.015 1.248-.013 1.87-.019.395.097.527.507.52 1.48-.023 2.96.01 4.44-.02.47-.01.669.087.627.599-.046.552.017 1.113-.016 1.667-.024.416.136.508.523.503 1.53-.02 3.06.01 4.59-.018.436-.008.55.131.525.54-.031.521-.006 1.045-.006 1.567 0 .48.25.721.746.722 1.462.003 2.926.015 4.389 0 .337-.002.438.11.426.435-.02.573.03 1.149-.013 1.718-.04.51.157.616.628.608 1.496-.028 2.993 0 4.49-.018.353-.004.47.098.455.454-.025.623.018 1.249-.014 1.87-.02.406.117.517.513.511 1.496-.021 2.993.006 4.49-.02.424-.007.61.074.573.547-.044.552.02 1.114-.019 1.667-.033.475.102.64.603.628 1.513-.034 3.027-.005 4.54-.02.33-.002.443.1.431.433-.022.606.018 1.214-.013 1.82-.021.402.112.521.512.515 1.513-.022 3.027.01 4.54-.022.487-.01.61.167.585.614-.03.572.017 1.147-.016 1.719-.025.414.132.526.522.506.553-.029 1.112.025 1.664-.017.472-.036.583.125.582.587-.012 16.08-.01 32.161-.008 48.242 0 1.23.03 2.461.011 3.691-.006.412.132.522.52.498.52-.03 1.042-.006 1.564-.009.773-.004.718.118.718-.737V65.009c0-.135.013-.272-.002-.404-.035-.308.087-.417.398-.408.655.019 1.312-.007 1.968.012.312.01.412-.103.403-.408-.018-.623.015-1.248-.014-1.87-.019-.414.11-.557.538-.55 1.514.023 3.028-.011 4.54.02.464.01.576-.14.549-.572-.036-.571.012-1.147-.016-1.72-.018-.378.109-.49.486-.486 1.53.018 3.061-.01 4.591.018.419.007.518-.13.498-.515-.027-.554-.007-1.112-.006-1.668 0-.427.222-.64.663-.642 1.48-.001 2.96-.01 4.44.007.345.004.478-.083.462-.447-.027-.623.015-1.248-.015-1.87-.019-.399.106-.517.507-.51 1.514.023 3.028-.007 4.54.02.43.007.554-.128.53-.543-.032-.571.013-1.147-.014-1.719-.019-.386.088-.525.502-.519 1.53.026 3.061-.001 4.592.02.38.005.5-.11.482-.488-.028-.622.014-1.248-.016-1.87-.02-.392.123-.478.492-.473 1.513.02 3.028-.005 4.541.02.439.006.641-.077.599-.573-.048-.553.014-1.114-.02-1.667-.025-.419.107-.548.532-.54 1.53.024 3.061-.002 4.592.017.357.004.466-.104.451-.457-.025-.64.011-1.281-.015-1.921-.014-.363.119-.454.465-.45 1.53.015 3.061-.012 4.591.016.438.008.544-.139.52-.545-.031-.554.027-1.115-.017-1.667-.04-.514.177-.624.639-.618 1.496.021 2.993 0 4.49.013.312.003.461-.062.449-.413a37.042 37.042 0 0 1-.003-1.972c.005-.266-.062-.4-.363-.398-1.614.01-3.229.01-4.844 0-.287 0-.384.11-.379.388.012.657.002 1.314.006 1.972.001.214.006.4-.302.398-1.665-.008-3.33-.003-4.996-.003-.158 0-.279.003-.268-.242.032-.673.04-1.347.025-2.02-.008-.344.086-.483.451-.467.604.027 1.211.006 1.816.007.321 0 .487-.117.486-.48-.01-2.511-.009-5.023.001-7.534.001-.321-.128-.404-.421-.397-.588.015-1.178-.022-1.765.013-.431.027-.598-.082-.573-.55.039-.755.006-1.515.003-2.274 1.734.004 3.469.002 5.202.017.255.002.365-.083.364-.33.039.293.239.297.474.296 1.521-.007 3.041-.007 4.562 0 .169.002.369-.09.509.095-1.731-.006-3.462-.006-5.194-.023-.303-.003-.362.121-.356.39.014.657.019 1.314-.003 1.97-.009.302.064.409.387.405 1.597-.016 3.195-.013 4.792 0 .281.002.375-.068.371-.362-.012-.756.013-1.514.023-2.271.138.873.005 1.753.074 2.627-.162.78-.017 1.569-.077 2.35-.029.376.138.445.467.443 1.557-.011 3.116-.01 4.674.003.31.003.405-.112.399-.41-.016-.788-.011-1.578-.014-2.366.216.21.09.474.099.711.02.538.021 1.078-.002 1.615-.014.31.086.412.397.402a37.69 37.69 0 0 1 1.863-.002c.155.003.34-.08.462.1-.79-.004-1.58 0-2.37-.016-.27-.006-.392.064-.386.36.014.691.007 1.382-.007 2.072-.004.232.057.334.309.329.823-.018 1.646-.018 2.469-.024-.002.1-.005.202-.005.303-.004 20.042-.008 40.085-.01 60.128 0 2.039.013 4.078 0 6.117-.002.351.091.468.448.451a15.717 15.717 0 0 1 1.816.004c.441.03.523-.136.521-.54-.016-2.781-.009-5.562-.01-8.344 0-19.183 0-38.365-.003-57.548 0-.184-.029-.368-.044-.551.229.117.117.33.117.492.006 19.423.004 38.846.004 58.27 0 2.594-.005 5.188.01 7.782.002.389-.087.54-.504.52-.771-.037-1.545-.018-2.319-.023-.802-.085-1.607-.002-2.409-.045-.353-.019-.427.132-.419.44.015.605-.019 1.212.013 1.815.023.407-.083.548-.519.539-1.492-.028-2.985.005-4.477-.02-.442-.007-.619.087-.591.573.043.753.006 1.512.004 2.268-1.745-.009-3.49-.011-5.235-.031-.288-.003-.329.132-.326.368.008.639-.021 1.28.013 1.918.021.4-.106.508-.502.502-1.544-.023-3.088 0-4.632-.018-.356-.004-.46.105-.447.456.029.789.018 1.58.023 2.37l.008-.007c-1.716-.003-3.43.009-5.145-.017-.402-.006-.48.14-.467.494.024.589-.015 1.181.015 1.769.02.407-.092.548-.526.541-1.546-.026-3.094 0-4.641-.013-.329-.003-.439.098-.425.432.025.639-.01 1.281.016 1.92.014.355-.1.457-.454.453-1.513-.018-3.027.007-4.54-.019-.44-.007-.622.08-.594.57.042.756.003 1.516 0 2.274l.009-.008c-1.745-.007-3.49-.009-5.235-.026-.282-.003-.334.116-.33.361.013.639-.017 1.279.012 1.918.018.387-.084.518-.496.511-1.56-.025-3.122-.001-4.682-.013-.306-.002-.41.086-.4.398.023.806.016 1.614.022 2.421l.008-.008c-1.73-.002-3.461.004-5.192-.015-.34-.004-.433.106-.421.429.022.606-.025 1.215.02 1.818.034.47-.154.56-.575.554-1.529-.021-3.058-.002-4.586-.015-.317-.003-.45.073-.434.423.028.656 0 1.313.013 1.97.006.287-.059.414-.388.412-2.52-.014-5.04-.013-7.56-.001-.32.001-.397-.113-.39-.41.019-.639-.018-1.28.013-1.919.019-.388-.117-.48-.486-.475-1.546.017-3.092-.005-4.637.012-.347.003-.48-.09-.467-.45.024-.621-.018-1.247.016-1.868.02-.388-.11-.474-.48-.469-1.714.018-3.428.005-5.14.003l.007.009c.002-.791-.015-1.582.014-2.372.014-.371-.123-.441-.46-.437-1.527.017-3.055-.013-4.582.02-.462.01-.563-.135-.538-.563.036-.621-.004-1.245.015-1.867.01-.291-.091-.368-.371-.366-1.73.014-3.458.011-5.187.014l.01.008c-.007-.774-.037-1.549-.013-2.322.012-.392-.09-.514-.498-.509-1.68.02-3.363.001-5.044-.003-.013-.79-.032-1.581-.032-2.371 0-.258-.034-.4-.35-.397-1.614.014-3.229.011-4.843.001-.254-.001-.361.063-.355.337.019.809.015 1.618.02 2.427h-.004Zm61.263-9.713h-.012c0-1.264-.01-2.527.007-3.791.005-.346-.088-.474-.45-.458-.654.027-1.311-.006-1.966.015-.305.01-.415-.076-.403-.394.025-.64-.011-1.281.022-1.92.019-.376-.098-.497-.473-.496-2.505.013-5.01.01-7.516 0-.307-.001-.41.098-.402.406.018.673-.008 1.348.013 2.022.01.315-.097.404-.403.395-.655-.02-1.312.014-1.967-.01-.324-.012-.391.109-.39.407.008 2.51.012 5.021-.006 7.532-.003.38.138.445.469.434.638-.023 1.278.01 1.916-.013.314-.011.407.093.398.401-.02.691-.002 1.382-.01 2.072-.002.218.041.338.304.338 2.572-.004 5.145 0 7.717.011.27.002.346-.101.341-.356-.012-.674.015-1.349-.011-2.021-.014-.346.112-.43.432-.42.656.021 1.313-.01 1.967.015.338.014.432-.101.429-.429-.015-1.246-.007-2.494-.007-3.741l.001.001Zm16.696-25.171h-.013c0-1.264-.01-2.528.007-3.792.004-.312-.086-.408-.397-.397-.638.022-1.279-.019-1.916.014-.395.021-.484-.124-.469-.49.028-.639-.007-1.28.013-1.92.01-.302-.07-.41-.389-.409-2.539.012-5.078.013-7.618 0-.334-.001-.387.135-.38.419.016.64-.02 1.282.017 1.92.025.42-.133.517-.516.5-.62-.028-1.244.001-1.866-.018-.289-.008-.419.052-.418.384a812.35 812.35 0 0 1 0 7.584c0 .317.109.406.41.4.672-.016 1.345.008 2.017-.006.281-.006.389.084.382.374-.016.64.016 1.282-.011 1.92-.015.361.063.498.462.495 2.49-.016 4.978-.01 7.466.009.368.003.454-.126.44-.467-.025-.606.013-1.214-.018-1.82-.018-.369.075-.514.468-.49.57.035 1.146-.017 1.715.025.472.036.641-.088.625-.596-.039-1.212-.013-2.427-.013-3.64h.002Zm13.923-25.089h-.012c0-1.28-.009-2.562.006-3.842.004-.309-.09-.411-.399-.4-.605.02-1.211-.018-1.815.014-.419.022-.606-.063-.568-.54.049-.62 0-1.247.014-1.87.007-.282-.085-.378-.375-.378-2.539.01-5.079.008-7.617 0-.264 0-.401.046-.393.355.019.69-.006 1.381.01 2.072.006.285-.084.384-.373.377-.689-.018-1.379.003-2.069-.01-.256-.006-.352.065-.352.337.01 2.562.01 5.124.002 7.685-.001.27.096.349.352.344.639-.012 1.278.02 1.916-.01.399-.019.573.07.545.516-.04.638.004 1.28-.013 1.92-.007.28.069.384.364.384 2.539-.008 5.078-.003 7.617.007.283.001.388-.094.382-.38-.014-.656.014-1.315-.014-1.97-.015-.365.118-.462.462-.449.621.024 1.245-.018 1.865.016.394.022.477-.122.471-.488-.02-1.23-.007-2.46-.007-3.69h.001ZM39.022 82.371h-.013c0-1.264-.01-2.529.008-3.792.004-.33-.088-.437-.423-.424-.655.026-1.312-.01-1.967.015-.344.014-.431-.113-.42-.436.02-.657-.006-1.316.01-1.972.007-.289-.047-.415-.38-.412-2.523.014-5.046.015-7.569 0-.358-.003-.417.135-.408.444.018.657-.013 1.315.015 1.972.015.348-.119.43-.435.42-.656-.019-1.312.007-1.968-.013-.285-.009-.371.078-.37.367.01 2.545.009 5.09 0 7.635-.001.274.095.345.349.34.639-.014 1.28.025 1.916-.018.443-.029.543.138.525.543-.027.622.003 1.247-.004 1.87-.003.256.047.389.356.388 2.54-.01 5.079-.003 7.617.008.261.001.355-.076.347-.344-.019-.64.006-1.281-.02-1.92-.014-.35.044-.528.455-.506.637.034 1.279-.017 1.916.016.395.021.476-.123.47-.489-.022-1.23-.009-2.46-.009-3.69l.002-.002Zm83.516-46.13v-.001c.79 0 1.58-.013 2.37.006.335.008.441-.115.432-.44a43.184 43.184 0 0 1-.002-1.97c.006-.282-.094-.385-.379-.383-1.597.01-3.194.008-4.791 0-.301-.001-.425.115-.419.419a47.98 47.98 0 0 1-.001 1.971c-.008.315.122.408.419.403.79-.014 1.58-.004 2.371-.004Z" fill="#ECEAFD"/><path d="M2.799 33.46c-.003 5.24-.007 10.48-.008 15.719V99.72c0 .513.259.77.776.771.504.001 1.01.031 1.512-.01.441-.035.538.135.516.541-.034.605.014 1.214-.017 1.819-.02.369.115.444.455.44 1.546-.016 3.093.01 4.64-.017.415-.007.502.125.49.511-.024.773.005 1.548.012 2.322-1.714-.008-3.428-.025-5.141-.015-.344.003-.469-.073-.45-.438.03-.622-.025-1.249.017-1.869.03-.446-.135-.535-.538-.512-.62.032-1.244-.014-1.864.017-.349.018-.418-.11-.407-.427.021-.656-.011-1.314.013-1.97.012-.308-.07-.411-.385-.4-.688.023-1.378-.004-2.067.015-.267.007-.365-.076-.344-.342.017-.217.001-.437.001-.656V56.182c0-7.396.004-14.792-.01-22.189 0-.428.119-.538.532-.523.755.029 1.511-.003 2.267-.01ZM130.856 33.483c.016.184.044.367.044.55l.003 57.55c0 2.781-.006 5.562.01 8.344.002.403-.081.569-.521.539a15.717 15.717 0 0 0-1.816-.003c-.357.016-.45-.1-.448-.451.013-2.04 0-4.079 0-6.118l.01-60.128c0-.1.003-.202.005-.303l-.009.01.098.001 2.623.01.001-.001ZM50.12 125.607c1.714.002 3.427.015 5.14-.003.372-.005.502.081.481.469-.032.621.009 1.246-.015 1.868-.014.361.119.453.466.45 1.546-.016 3.091.006 4.637-.013.37-.004.505.088.486.476-.031.639.005 1.28-.012 1.919-.008.297.069.411.39.41 2.52-.012 5.039-.013 7.56.001.329.002.393-.125.388-.412-.014-.656.015-1.315-.014-1.97-.016-.35.117-.425.434-.423 1.529.013 3.058-.006 4.586.015.42.006.609-.085.575-.554-.043-.604.002-1.212-.02-1.818-.011-.323.082-.433.421-.429 1.731.019 3.462.013 5.192.015-.005.775-.043 1.551-.006 2.324.02.436-.152.486-.519.483-1.513-.017-3.027.019-4.54-.022-.478-.012-.555.147-.532.562.033.605-.007 1.214.016 1.82.013.331-.09.423-.425.42-1.564-.02-3.128.003-4.692-.017-.364-.005-.503.069-.48.466.038.638-.002 1.281.015 1.921.008.305-.041.437-.406.434-2.505-.02-5.01-.019-7.516-.002-.362.002-.453-.105-.438-.451.026-.656-.009-1.314.013-1.971.01-.312-.084-.399-.396-.397-1.715.011-3.43-.002-5.144-.007l-.05-2.659a.07.07 0 0 0-.03-.077c-.165-.128-.355-.059-.532-.062-1.668-.03-3.338.053-5.006-.045l-.026-2.722v.001ZM91.908 120.055c.004-.758.043-1.518 0-2.274-.028-.49.155-.577.594-.57 1.513.025 3.028 0 4.54.019.354.004.468-.098.454-.453-.027-.64.01-1.281-.016-1.92-.013-.334.096-.435.425-.432 1.547.013 3.094-.013 4.641.013.434.007.546-.134.526-.541-.03-.588.008-1.18-.015-1.769-.014-.355.065-.5.467-.494 1.715.026 3.43.014 5.145.016-.006.757-.047 1.515-.005 2.269.027.474-.143.547-.565.54-1.527-.026-3.055.002-4.582-.02-.358-.005-.457.094-.442.444.027.638-.015 1.28.015 1.917.017.367-.115.442-.454.437-1.561-.017-3.123.007-4.683-.019-.394-.007-.476.116-.46.48.03.638-.008 1.279.014 1.917.012.323-.073.428-.415.424-1.56-.021-3.122-.009-4.682-.007-.167 0-.335.014-.502.022v.001Z" fill="#28226B"/><path d="m69.612 2.773-.001-.002c0 .031-.01.059-.033.08-2.456-.004-4.91-.008-7.367-.01-.3 0-.605-.024-.897.083-.057-.033-.113-.094-.17-.094-1.699-.006-3.397-.005-5.096-.01-.27-.001-.287.164-.286.364.002.64.018 1.282-.007 1.922-.014.344.078.466.442.457.772-.02 1.545.01 2.318.02-.006.741-.04 1.483-.01 2.223.017.43-.08.583-.546.577-1.512-.018-3.024.034-4.537.019-.424-.004-.504.15-.489.523.025.589-.01 1.18.013 1.769.012.337-.11.435-.436.428-.79-.017-1.58-.002-2.37.001l-.01-2.795c-.007-.79 0-1.58-.027-2.369-.012-.331.097-.434.427-.431 1.56.013 3.12-.01 4.68.014.39.006.484-.112.466-.481-.03-.622.014-1.245-.016-1.867-.019-.39.13-.482.494-.478 1.527.017 3.054-.005 4.58.016.39.005.533-.091.508-.501-.036-.586-.015-1.177-.005-1.766.003-.155-.083-.34.098-.461-.003.739.023 1.48-.02 2.216-.028.456.122.549.555.546 2.58-.016 5.162.001 7.742.008v-.001Z" fill="#ECEAFD"/><path d="M80.808 125.617c-.006-.807.001-1.615-.023-2.422-.01-.312.095-.4.4-.398 1.561.013 3.123-.011 4.683.014.412.007.514-.124.496-.512-.03-.638 0-1.278-.011-1.917-.005-.246.047-.364.329-.361 1.745.017 3.49.019 5.235.026.004.774-.02 1.55.022 2.322.022.415-.144.456-.489.452-1.528-.017-3.057.01-4.585-.02-.436-.009-.536.126-.512.535.035.621-.01 1.246.017 1.868.015.338-.096.416-.422.413-1.713-.015-3.426-.003-5.14 0ZM39.02 120.046c1.728-.003 3.457 0 5.186-.014.28-.002.38.075.371.366-.02.622.022 1.246-.015 1.867-.025.427.077.574.539.564 1.527-.034 3.055-.005 4.582-.021.337-.004.474.066.46.437-.03.79-.013 1.581-.015 2.372-1.697-.002-3.394-.017-5.09.003-.38.004-.49-.092-.47-.472.034-.622-.013-1.247.018-1.869.018-.367-.069-.483-.46-.476-1.545.027-3.091-.005-4.636.023-.413.007-.498-.126-.483-.506.03-.757.01-1.515.013-2.273v-.001ZM108.662 111.659c-.005-.79.006-1.582-.023-2.371-.013-.35.091-.459.446-.456 1.545.018 3.089-.005 4.633.018.396.006.522-.101.501-.502-.033-.638-.004-1.278-.012-1.918-.003-.235.037-.37.326-.367 1.745.019 3.49.022 5.235.03l-.009-.008.029 2.636c-.105.251-.325.126-.485.127-1.53.011-3.059.025-4.587-.007-.441-.009-.531.131-.509.533.034.621-.009 1.246.018 1.868.015.337-.094.42-.42.417-1.714-.014-3.428-.003-5.142-.001l-.001.001ZM11.165 106.088c1.73-.002 3.46.001 5.19-.013.282-.002.378.075.369.367-.021.656.011 1.313-.015 1.969-.014.345.076.457.438.453 1.561-.02 3.123.001 4.686-.015.336-.004.47.065.456.436-.032.79-.013 1.582-.015 2.373-1.714-.002-3.427-.013-5.14.001-.33.003-.433-.082-.418-.416.026-.622-.019-1.247.016-1.868.023-.407-.073-.542-.511-.534-1.528.031-3.057-.005-4.585.023-.416.008-.498-.126-.484-.504.028-.756.01-1.515.012-2.272h.002ZM5.604 33.452c-.938.006-1.876.01-2.814.017.003-.723.05-1.449-.006-2.167-.042-.541.153-.645.637-.61.6.043 1.208-.007 1.81.015.294.011.373-.091.366-.37-.017-.639.019-1.279-.016-1.916-.022-.406.074-.538.51-.53 1.66.028 3.32.008 4.98.006l.107.012-.009-.009-.04 2.792-2.787.033c-.82-.01-1.64-.013-2.46-.034-.265-.007-.298.127-.295.34.012.807.014 1.613.019 2.419l-.002.003v-.001Z" fill="#28226B"/><path d="M119.767 106.095c.003-.757.04-1.514-.004-2.269-.028-.485.149-.579.591-.572 1.492.025 2.985-.009 4.477.02.435.009.542-.132.52-.539-.033-.604.001-1.21-.014-1.815-.008-.309.066-.46.419-.441.802.043 1.608-.04 2.41.046-.008.724-.056 1.45-.009 2.171.034.514-.145.621-.613.586-.568-.043-1.143.011-1.714-.019-.364-.018-.509.068-.486.466.037.622-.018 1.249.02 1.87.026.42-.134.487-.511.483-1.665-.015-3.33 0-4.995.005l-.1-.002.009.009v.001ZM69.612 2.773c-2.58-.007-5.162-.024-7.742-.008-.433.003-.583-.09-.555-.546.044-.736.017-1.477.02-2.216l8.266-.002.057 2.63-.045.143-.001-.001Z" fill="#28226B"/><path d="M28.02 16.733c.58-.117 1.166-.041 1.749-.05 1.072-.014 2.145-.014 3.218.004.31.005.408-.096.399-.402a38.607 38.607 0 0 1-.002-1.864c.003-.154-.085-.34.099-.46-.004.807-.004 1.614-.013 2.42-.002.21.021.35.289.347 1.66-.013 3.32-.014 4.98-.02.143 0 .272-.02.263-.214-.04-.851.092-1.707-.074-2.554l.082-.4c-.021.321.125.411.443.405.769-.017 1.537.01 2.307.02-.003.775-.026 1.551 0 2.325.014.389-.123.48-.491.479-1.512-.007-3.026.04-4.538.016-.472-.008-.565.156-.543.576.031.588-.002 1.179.013 1.768.008.286-.095.387-.379.38-.79-.018-1.58-.015-2.37-.02l-.016-2.067c-.005-.762.052-.639-.64-.65-1.592-.024-3.184.048-4.776-.038ZM103.048 16.77c.168.71.068 1.43.064 2.143-.003.435.076.602.564.59 1.511-.038 3.023-.003 4.533-.023.372-.005.504.095.485.48-.03.621.013 1.246-.016 1.868-.017.367.119.448.459.444 1.309-.017 2.619-.009 3.929-.004.182 0 .371-.043.544.054l-5.002.022c-1.562.009-3.123.02-4.684.026-.918.003-.891 0-.928-.942-.024-.63.115-1.272-.095-1.894.199-.103.131-.29.133-.448.009-.772.01-1.544.014-2.316Z" fill="#ECEAFD"/><path d="M33.474 117.219c1.682.004 3.364.023 5.045.003.407-.005.51.116.498.509-.025.773.005 1.548.012 2.322l-5.534-.03-.014-2.814-.007.009v.001ZM22.279 22.348c.003-.805.023-1.61.003-2.414-.009-.337.098-.422.425-.42 1.706.01 3.413-.003 5.12-.008.03.94.062 1.882-.015 2.822l-2.713.016-2.83-.005.01.009ZM75.356 5.559l5.345.005.096.094.007 2.527-.199.196c-1.65-.003-3.301-.002-4.952-.012-.158 0-.388.11-.442-.177.013-.588.012-1.176.043-1.762.016-.29-.115-.604.102-.871ZM86.368 11.049c.016.112.1.093.175.091.182.014.364.038.546.04 1.61.008 3.218.012 4.827.017l.007.015c-.007.522.004 1.045-.025 1.566-.02.393.113.8-.087 1.179-1.68-.003-3.36-.014-5.042 0-.324.003-.434-.075-.421-.416.025-.74.004-1.482.002-2.223.013-.09.138-.17.019-.27ZM11.156 25.375l.017-.209c1.747-.008 3.495-.01 5.242-.03.302-.002.31.157.306.38-.009.792-.008 1.584-.01 2.376l-2.803.03-2.738-.022.008.009-.025-.11.003-.904a5.59 5.59 0 0 0 0-1.216v-.304Z" fill="#28226B"/><path d="M16.704 25.075c.007-.805.024-1.61.014-2.415-.002-.264.074-.34.34-.339 1.74.018 3.48.02 5.22.026l-.009-.01.017 2.744-.104.037c-.183-.013-.366-.036-.549-.037-1.642-.005-3.286-.006-4.929-.008v.002ZM108.608 22.344l5.002-.022.298-.002.289.031.025 2.417c.001.246-.109.331-.364.33-1.734-.015-3.468-.014-5.202-.017l-.001-.003-.015-.215c-.012-.84.049-1.68-.032-2.52ZM119.788 25.268c-.011.757-.036 1.514-.023 2.271.004.294-.09.364-.371.362a260.36 260.36 0 0 0-4.792 0c-.323.004-.397-.103-.387-.404.021-.657.017-1.314.003-1.971-.006-.269.053-.393.356-.39 1.732.017 3.463.017 5.194.023l.021.11h-.001ZM27.914 117.215c-.005-.809-.002-1.618-.02-2.426-.006-.274.1-.339.355-.337 1.614.009 3.229.012 4.843-.002.316-.003.35.14.35.397 0 .791.02 1.581.031 2.372l.008-.01-5.457.028-.11-.023v.001ZM22.267 111.649c1.714.002 3.428.012 5.141-.002.345-.003.47.081.453.445-.03.656-.012 1.313-.01 1.97.002.199.002.359-.28.355-1.762-.021-3.524-.028-5.286-.04l-.018-2.728ZM92.008 13.94l5.448.019c.005.804.001 1.609.019 2.413.005.26-.077.35-.342.344-.702-.015-1.405.005-2.107-.007-1.036-.018-2.072.058-3.106-.041l-.008-2.62.095-.108ZM41.76 13.964c-.769-.01-1.538-.036-2.307-.02-.318.006-.465-.084-.443-.406V11.721l.019-.515c1.745-.007 3.489-.009 5.234-.025.298-.003.312.154.31.38-.01.79-.005 1.581-.007 2.372l-2.805.031ZM28.02 16.733c1.592.086 3.185.015 4.777.039.692.01.635-.113.64.649l.016 2.067-2.79.051c-.77-.01-1.54-.044-2.31-.017-.392.014-.476-.114-.462-.481.03-.755.01-1.511.011-2.267l.118-.04ZM86.369 8.463l-.001 2.572c-.17.163-.382.082-.572.084-1.635.02-3.27.03-4.904.041-.18-.122-.092-.307-.096-.462-.02-.77-.024-1.541-.035-2.312l.046.007.01-.045 5.446.017.106.098ZM50.129 8.326l.01 2.796-.094.04c-.166-.012-.331-.036-.497-.036-1.473 0-2.945.01-4.418.004-.186 0-.404.084-.558-.11l.001-1.025c.01-.407.02-.816.032-1.224.005-.156-.056-.34.166-.408h4.244c.237.044.473.043.71 0l.403-.037h.001ZM103.048 16.77c-.003.771-.004 1.544-.013 2.316-.002.157.065.345-.133.448-.198 0-.395-.002-.593-.003l-.112.002-4.654-.018c-.005-.723.015-1.448-.025-2.17-.025-.448.09-.593.566-.587 1.61.022 3.221-.012 4.831-.025l.133.035v.001ZM69.615 2.769l.183.011c.167.011.332.032.499.032 1.492.003 2.983 0 4.475.006.175 0 .432-.102.422.248-.022.839.049 1.678-.036 2.515l-5.464-.023c-.006-.183-.012-.366-.02-.548-.036-.747.076-1.497-.06-2.24v-.001ZM38.927 13.94c.166.847.035 1.702.074 2.553.008.196-.12.214-.262.215-1.66.006-3.32.007-4.98.02-.269.002-.293-.138-.29-.347.01-.807.01-1.614.013-2.42l5.445-.02v-.002ZM125.311 27.915c.002.79-.003 1.578.013 2.367.006.297-.088.412-.399.41a299.68 299.68 0 0 0-4.674-.004c-.329.002-.496-.067-.466-.443.06-.782-.085-1.571.076-2.35l5.45.02Z" fill="#28226B"/><path d="M44.572 11.021c.155.194.372.108.559.109 1.473.006 2.945-.003 4.418-.004.165 0 .33.023.497.036-.742.136-1.489.039-2.233.052-.318.006-.448.085-.434.424.024.604-.012 1.21.014 1.813.014.359-.067.514-.466.497-.786-.032-1.574-.012-2.362-.015.002-.791-.002-1.582.007-2.372.002-.227-.012-.383-.31-.38-1.744.016-3.49.018-5.234.025.135-.197.337-.098.504-.1 1.453-.008 2.906 0 4.36-.005.226-.001.468.063.68-.08ZM16.704 25.075c1.643.002 3.287.003 4.93.008.182 0 .365.025.548.037-.75.13-1.504.042-2.255.052-.307.004-.411.099-.402.406.019.64-.006 1.28.012 1.92.01.31-.097.412-.405.404-.806-.018-1.613-.008-2.42-.01.002-.791 0-1.583.01-2.375.003-.224-.004-.383-.306-.38-1.747.018-3.495.021-5.242.03.064-.145.196-.105.305-.105 1.742.003 3.484.008 5.226.013ZM27.902 16.774c-.001.756.018 1.512-.011 2.267-.014.367.07.495.463.482.769-.027 1.54.007 2.31.016-.008.788-.029 1.576-.015 2.364.006.329-.099.44-.43.431-.802-.02-1.605-.006-2.407-.006.077-.94.045-1.88.014-2.822-.004-.822-.01-1.643-.012-2.465 0-.096-.023-.206.088-.267Z" fill="#ECEAFD"/><path d="M128.144 33.462c-.824.006-1.647.006-2.47.024-.251.006-.313-.096-.308-.328.013-.69.02-1.382.006-2.072-.006-.297.116-.367.387-.361.79.016 1.58.012 2.37.016l.017 2.626-.012.104.009-.01h.001Z" fill="#28226B"/><path d="M102.915 16.733c-1.611.013-3.22.047-4.83.026-.476-.007-.592.138-.567.587.04.721.02 1.446.025 2.17-.182-.121-.094-.307-.096-.461-.012-.606-.025-1.214.002-1.82.018-.365-.118-.45-.46-.444a213.71 213.71 0 0 1-4.437.014c-.21-.001-.47.121-.632-.138 1.034.1 2.07.024 3.106.041.702.013 1.405-.008 2.107.008.266.005.347-.085.341-.345-.017-.804-.014-1.609-.018-2.413.188.117.098.304.101.457.012.588.027 1.177-.003 1.763-.02.389.087.518.496.511 1.44-.026 2.882-.012 4.323-.008.18 0 .369-.048.541.052h.001ZM75.158 5.581c.085-.837.014-1.677.036-2.515.01-.35-.247-.247-.422-.248-1.492-.006-2.983-.003-4.475-.006-.167 0-.332-.02-.499-.032.377-.123.763-.05 1.145-.053 1.274-.011 2.549.009 3.822-.013.388-.006.54.088.516.504-.035.62-.013 1.243-.005 1.865.002.16-.064.338.08.476-.218.268-.087.581-.102.872-.032.587-.031 1.175-.044 1.761-.138-.868-.025-1.74-.052-2.611ZM28.024 117.238l5.457-.028.014 2.814c-.192-.112-.108-.3-.112-.454-.01-.538-.004-1.076-.005-1.614 0-.441-.212-.662-.636-.662-1.393 0-2.784.002-4.176-.002-.182 0-.37.045-.542-.054ZM80.892 11.16c1.635-.012 3.27-.022 4.904-.041.19-.002.402.08.572-.084v.014c.119.1-.006.18-.019.27-.197-.126-.418-.096-.633-.096-1.485-.002-2.97.001-4.455-.005-.122 0-.267.083-.37-.058ZM50.147 128.328c1.668.099 3.338.015 5.006.046.177.003.367-.066.531.061-1.75.006-3.5.012-5.25.015-.107 0-.244.04-.287-.123v.001ZM91.916 11.197c-1.61-.005-3.218-.009-4.827-.017-.182 0-.364-.025-.546-.04 1.753-.082 3.507-.026 5.26-.025.038 0 .075.054.113.082ZM44.772 8.363c-.222.068-.162.252-.166.408-.012.408-.022.817-.032 1.225-.103-.482-.027-.969-.044-1.452-.005-.145.041-.283.242-.18ZM92.008 13.939l-.095.11-.102-.091c.199-.38.065-.786.087-1.179.03-.52.018-1.044.025-1.566.163.688.026 1.386.068 2.078.013.215.012.432.017.648ZM69.615 2.769c.135.743.023 1.494.059 2.24.009.183.014.365.02.549-.196-.062-.101-.223-.103-.339-.01-.79-.01-1.579-.013-2.369a.1.1 0 0 0 .033-.08l.004-.001ZM119.758 106.085l.1.001c-.063.878.068 1.761-.071 2.636l-.029-2.637ZM69.658 2.63 69.6 0c.202.17.105.401.101.6-.015.676.069 1.355-.044 2.029ZM55.715 128.513l.05 2.659c-.204-.322-.086-.677-.088-1.013-.003-.548-.065-1.1.039-1.646h-.001ZM11.155 25.679c.045.405.045.81 0 1.215a2.73 2.73 0 0 1 0-1.215ZM49.725 8.364a1.983 1.983 0 0 1-.709 0 .97.97 0 0 1 .709 0ZM80.605 8.38l.198-.194.014.162-.01.045-.046-.006-.156-.005V8.38ZM114.197 22.35l-.289-.03c.104-.062.206-.1.289.03ZM86.37 8.463l-.107-.098c.112-.05.122.01.106.098ZM128.134 33.472l.013-.105.087.107-.099-.002h-.001ZM80.797 5.658l-.096-.093c.076-.014.11.015.096.093ZM39.009 11.72v.104c-.01-.024-.023-.048-.028-.073 0-.008.018-.02.028-.03ZM11.152 27.799l.026.11-.107-.012.08-.098ZM11.156 25.375v.104c-.01-.025-.022-.049-.027-.074-.001-.008.018-.02.028-.03Z" fill="#ECEAFD"/><path d="m80.605 8.38.156.006c.01.77.016 1.54.035 2.312.004.155-.084.34.096.462.103.141.247.058.369.058 1.485.006 2.97.003 4.455.005.215 0 .436-.03.633.096.002.74.023 1.482-.002 2.223-.011.34.098.418.422.415 1.68-.013 3.361-.002 5.042 0l.101.091.008 2.62c.162.258.423.136.632.137 1.478.01 2.958.007 4.436-.014.342-.005.479.08.462.445-.029.605-.015 1.213-.003 1.819.002.154-.085.34.096.46l4.654.018c.038.053.075.048.112-.002.198.001.395.003.593.003.209.622.07 1.263.095 1.894.036.942.01.946.927.942 1.562-.007 3.123-.017 4.685-.026.081.839.02 1.68.031 2.519l-.181.074.195.141.002.003c.003.759.035 1.518-.004 2.275-.024.467.143.575.573.55.587-.037 1.178 0 1.766-.014.293-.008.422.076.42.397-.01 2.511-.011 5.023-.001 7.534.001.362-.165.48-.485.48-.606 0-1.212.02-1.817-.007-.365-.016-.459.123-.451.466.016.673.008 1.348-.024 2.02-.012.246.109.243.268.243 1.664 0 3.329-.005 4.995.003.308.002.303-.184.302-.398-.004-.658.006-1.316-.006-1.973-.005-.278.092-.388.379-.387 1.615.009 3.23.01 4.845 0 .3-.003.367.131.362.397-.011.657-.02 1.316.003 1.972.012.352-.136.417-.448.414-1.497-.013-2.994.008-4.491-.013-.462-.006-.679.104-.638.618.044.552-.015 1.113.017 1.667.023.406-.082.553-.521.545-1.53-.028-3.06 0-4.591-.017-.346-.004-.478.088-.464.45.026.64-.011 1.282.015 1.922.014.353-.094.46-.452.456-1.53-.018-3.061.008-4.591-.017-.425-.007-.557.122-.532.54.033.555-.028 1.115.019 1.668.042.495-.159.58-.599.572-1.514-.025-3.027.002-4.54-.02-.37-.004-.512.082-.493.474.031.622-.012 1.248.017 1.87.017.378-.102.492-.483.487-1.53-.02-3.061.007-4.591-.019-.414-.007-.52.132-.503.519.027.572-.017 1.147.015 1.718.024.416-.101.55-.53.544-1.513-.026-3.027.002-4.54-.021-.401-.007-.526.113-.507.51.03.623-.012 1.248.015 1.87.016.365-.117.452-.462.448-1.48-.018-2.96-.009-4.44-.008-.441 0-.662.214-.663.642-.001.556-.022 1.114.006 1.669.02.386-.08.522-.498.514-1.53-.028-3.061.001-4.592-.018-.377-.004-.504.11-.485.488.028.571-.02 1.147.016 1.718.027.433-.085.583-.549.573-1.513-.032-3.027.003-4.54-.02-.429-.007-.557.136-.538.55.028.622-.004 1.246.013 1.87.009.305-.092.417-.403.408-.655-.02-1.312.007-1.968-.012-.31-.01-.432.1-.398.407.015.133.003.27.003.404v65.432c0 .855.055.732-.719.737-.521.003-1.044-.023-1.564.009-.388.023-.526-.087-.52-.499.02-1.23-.01-2.46-.01-3.69-.002-16.081-.004-46.115.008-62.195 0-.462-.11-.623-.583-.587-.552.042-1.11-.012-1.664.016-.39.02-.545-.091-.522-.505.034-.571-.014-1.147.017-1.72.024-.446-.098-.623-.585-.613-1.513.031-3.027 0-4.54.022-.4.006-.534-.113-.513-.516.03-.605-.008-1.213.014-1.82.012-.332-.102-.435-.43-.431-1.514.014-3.029-.014-4.541.019-.5.01-.637-.153-.603-.629.04-.553-.026-1.114.019-1.667.037-.473-.149-.553-.573-.546-1.496.026-2.994-.002-4.49.02-.397.006-.533-.105-.513-.51.031-.622-.012-1.248.014-1.87.015-.357-.102-.46-.455-.455-1.496.018-2.994-.01-4.49.018-.471.008-.668-.098-.629-.608.044-.57-.007-1.146.014-1.718.011-.325-.09-.438-.426-.435-1.463.014-2.927.002-4.39 0-.496 0-.745-.241-.745-.722 0-.522-.026-1.047.005-1.567.025-.409-.089-.548-.524-.54-1.53.027-3.06 0-4.591.018-.386.005-.547-.087-.523-.503.033-.555-.03-1.115.016-1.667.042-.513-.157-.61-.627-.6-1.479.032-2.96-.002-4.44.022-.41.006-.525-.126-.507-.52.029-.623-.013-1.248.014-1.871.016-.368-.125-.45-.466-.446-1.53.015-3.061-.005-4.591.014-.391.005-.536-.1-.514-.51.034-.621-.012-1.247.014-1.87.016-.361-.111-.455-.458-.452-1.514.018-3.028-.007-4.54.018-.43.006-.61-.091-.576-.556.04-.57-.008-1.146.015-1.719.015-.374-.119-.499-.494-.494-1.514.017-3.028-.008-4.541.016-.422.006-.555-.12-.536-.542.033-.773.016-1.549.018-2.324l.003-.003c.77.003 1.539-.006 2.308.013.32.008.445-.085.435-.424-.023-.77-.008-1.542-.008-2.313l2.788-.032c.785.008 1.571.003 2.355.03.338.012.428-.116.42-.438-.017-.787 0-1.574.003-2.362l2.803-.03c.807.001 1.614-.009 2.42.01.308.007.414-.095.405-.404-.018-.64.008-1.28-.012-1.92-.01-.308.095-.402.402-.407.752-.01 1.507.078 2.255-.051l.104-.037c.766.14 1.54.018 2.307.069.37.024.51-.107.5-.487-.018-.773.003-1.547.007-2.32.904-.006 1.809-.01 2.713-.017.803 0 1.606-.013 2.409.006.33.008.434-.102.429-.431-.015-.788.007-1.576.014-2.364l2.79-.05c.79.005 1.58.003 2.37.02.284.007.387-.094.379-.38-.016-.59.018-1.18-.013-1.768-.022-.419.07-.584.542-.576 1.513.023 3.026-.023 4.538-.016.369.001.504-.09.492-.479-.027-.774-.003-1.55 0-2.325l2.805-.032c.787.002 1.575-.017 2.361.016.399.016.48-.139.466-.497-.026-.604.01-1.21-.014-1.813-.013-.34.117-.419.434-.424.744-.013 1.492.084 2.233-.052l.094-.04c.79-.003 1.58-.019 2.37-.002.327.007.449-.09.436-.428-.022-.588.013-1.18-.012-1.768-.016-.374.065-.528.489-.523 1.512.015 3.025-.038 4.536-.02.467.007.564-.147.546-.576-.029-.74.004-1.482.01-2.224l2.617-.004c.338.053.233-.149.184-.319V2.925c.29-.106.596-.082.896-.082 2.456.002 4.91.006 7.367.01.003.79.003 1.579.013 2.369.001.116-.094.277.103.338l5.464.023c.028.87-.085 1.743.052 2.612.054.287.285.176.442.177 1.65.01 3.301.01 4.953.012V8.38Zm2.963 28.761v.139a.39.39 0 0 0 .006.368l-.005.438a.96.96 0 0 0 .007.674l-.003.14c-.043.066-.031.113.049.136l.102.03c.045.072.085.064.12-.007l2.396.006c.165.141.126.334.126.515.002.624.014 1.248-.004 1.87-.01.312.102.408.407.406a949.78 949.78 0 0 1 7.568.005c.331.001.391-.14.385-.426-.013-.623.019-1.248-.01-1.87-.02-.434.157-.56.563-.543.57.024 1.144-.018 1.715.014.39.021.477-.125.475-.493-.014-2.46-.018-4.922.004-7.382.004-.456-.174-.57-.56-.501-.719.127-1.442.057-2.163.069-.005-.826-.023-1.651-.009-2.476.005-.292-.084-.374-.368-.366-.69.019-1.379-.007-2.068.012-.279.008-.383-.064-.374-.36.02-.673-.01-1.348.013-2.02.011-.323-.063-.436-.41-.434-2.522.015-5.044.014-7.566-.001-.346-.002-.423.118-.412.439.023.673-.007 1.348.013 2.02.009.29-.082.372-.366.364-.689-.019-1.379.005-2.067-.012-.263-.006-.343.065-.342.335.011 2.56.012 5.122.002 7.683-.001.284.073.376.363.371.789-.012 1.579.009 2.368.017.009.28-.051.563.043.838l.002.002Zm-41.777 1.94c-.007.79-.003 1.582-.026 2.373-.01.309.092.407.4.406 2.522-.01 5.042-.01 7.563 0 .311.002.41-.105.403-.41-.018-.639.01-1.28-.01-1.919-.011-.364.106-.52.49-.506.587.024 1.177-.02 1.763.015.427.025.6-.078.575-.548-.041-.755-.008-1.515-.008-2.273v-5.052c0-.234.036-.546-.32-.496-.818.117-1.634.017-2.451.047l-.01-.172c.101-.275.102-.55 0-.826v-.188A3.704 3.704 0 0 0 50.157 28c-.118-.19-.305-.097-.458-.1-.605-.011-1.213-.038-1.815.007-.444.032-.53-.127-.509-.531.035-.621-.002-1.247.014-1.87.008-.285-.04-.42-.376-.418-2.555.013-5.11.009-7.666 0-.26 0-.352.074-.345.343.016.69-.014 1.382.014 2.072.014.346-.106.421-.427.41-.655-.025-1.312.004-1.966-.014-.287-.008-.414.038-.412.376.016 2.544.017 5.088.003 7.632-.003.336.127.388.412.38.622-.017 1.248.034 1.865-.019.48-.04.558.144.535.561-.032.622.004 1.247-.015 1.87-.01.282.07.372.362.367.806-.014 1.612.008 2.419.015h-.001Z" fill="#fff"/><path d="M89.177 107.502c0 1.247-.01 2.494.006 3.741.005.327-.09.443-.428.429-.655-.026-1.311.006-1.967-.015-.32-.01-.446.073-.432.419.026.674 0 1.348.01 2.022.005.255-.07.357-.34.356-2.573-.011-5.145-.016-7.717-.011-.264 0-.306-.119-.304-.338.007-.691-.01-1.383.01-2.072.009-.307-.084-.413-.398-.402-.639.022-1.278-.009-1.916.013-.331.012-.472-.054-.47-.434.018-2.51.015-5.021.006-7.532 0-.297.067-.418.39-.406.655.024 1.312-.01 1.968.01.306.009.413-.081.403-.395-.021-.674.005-1.348-.014-2.022-.008-.308.095-.407.403-.406 2.505.01 5.01.011 7.516 0 .375-.002.492.119.472.495-.033.639.003 1.281-.02 1.921-.013.317.098.403.402.393.654-.021 1.311.013 1.966-.015.362-.016.455.112.45.459-.018 1.263-.007 2.527-.007 3.791h.012l-.001-.001ZM105.872 82.33c0 1.214-.027 2.428.013 3.64.016.51-.154.632-.626.597-.569-.043-1.144.01-1.714-.025-.394-.024-.487.121-.468.49.03.606-.008 1.214.018 1.82.014.34-.072.469-.44.467a540.137 540.137 0 0 0-7.466-.009c-.398.002-.477-.134-.462-.495.026-.638-.005-1.28.01-1.92.007-.29-.1-.38-.381-.374-.673.014-1.346-.01-2.018.006-.3.007-.41-.083-.409-.4a812.37 812.37 0 0 0 0-7.584c-.001-.332.129-.392.418-.384.622.019 1.245-.01 1.866.017.383.018.54-.079.516-.499-.038-.638 0-1.28-.017-1.92-.007-.285.045-.421.38-.42 2.54.014 5.078.013 7.618 0 .319 0 .399.108.389.41-.02.64.015 1.281-.013 1.92-.016.366.074.51.468.49.638-.033 1.278.008 1.917-.014.311-.011.401.085.397.397-.017 1.263-.008 2.528-.008 3.791h.013-.001ZM119.795 57.243c0 1.23-.012 2.46.008 3.69.007.365-.078.51-.471.488-.62-.034-1.244.008-1.866-.015-.343-.013-.476.083-.461.447.028.657 0 1.315.014 1.972.006.285-.1.38-.382.379-2.539-.01-5.078-.014-7.617-.007-.296 0-.371-.103-.364-.383.017-.64-.027-1.282.013-1.92.028-.448-.146-.536-.545-.517-.638.03-1.278-.002-1.916.01-.256.005-.353-.073-.352-.344.007-2.561.007-5.123-.002-7.684-.001-.273.096-.345.352-.339.689.015 1.379-.007 2.068.011.29.007.38-.092.374-.377-.017-.69.008-1.383-.01-2.072-.009-.309.128-.355.392-.354 2.539.007 5.079.009 7.618 0 .289-.002.382.095.375.377-.013.623.034 1.25-.014 1.87-.037.478.15.562.567.54.604-.032 1.211.006 1.816-.015.309-.01.403.092.399.402-.015 1.28-.006 2.56-.006 3.841h.012-.002ZM39.022 82.37c0 1.231-.013 2.461.009 3.691.006.367-.075.51-.47.49-.637-.034-1.279.017-1.916-.017-.41-.021-.468.158-.454.505.025.64 0 1.281.019 1.92.008.268-.086.346-.346.345-2.54-.01-5.079-.017-7.617-.008-.311.002-.36-.132-.357-.388.008-.623-.023-1.248.005-1.87.017-.404-.083-.571-.526-.542-.636.042-1.278.003-1.916.017-.254.005-.35-.066-.35-.34.01-2.544.01-5.09 0-7.635 0-.289.086-.375.371-.367.656.02 1.313-.006 1.968.013.316.01.449-.072.435-.42-.028-.656.003-1.314-.015-1.972-.009-.308.05-.447.408-.444 2.523.015 5.046.015 7.569 0 .333-.002.387.124.38.412-.016.657.01 1.315-.01 1.972-.011.324.077.45.42.436.655-.025 1.312.011 1.967-.015.334-.013.427.093.423.424-.018 1.264-.008 2.528-.008 3.792h.013l-.002.002Z" fill="#28226B"/><path d="M122.538 36.242c-.791 0-1.581-.009-2.371.004-.297.005-.427-.088-.419-.403a47.98 47.98 0 0 0 .001-1.971c-.005-.304.118-.42.419-.419 1.597.007 3.194.009 4.791 0 .286-.001.385.101.379.382-.012.657-.016 1.315.002 1.971.008.325-.098.448-.432.44-.79-.02-1.58-.007-2.37-.007v.003Z" fill="#fff"/><path d="m61.132 5.578-2.617.005c-.772-.01-1.546-.041-2.318-.02-.364.009-.456-.113-.442-.458.026-.64.01-1.28.007-1.92 0-.202.017-.366.286-.366 1.699.006 3.397.005 5.096.011.057 0 .113.062.17.094v2.335c-.064.105-.04.26-.183.32Z" fill="#28226B"/><path d="M13.908 27.922c-.003.787-.02 1.575-.003 2.361.007.322-.082.451-.42.44-.785-.028-1.57-.023-2.355-.032l.039-2.792 2.739.023ZM8.342 30.726c0 .771-.015 1.542.007 2.312.01.34-.115.433-.435.425-.769-.02-1.538-.011-2.308-.013-.006-.807-.007-1.612-.019-2.419-.003-.214.03-.348.294-.34.82.021 1.641.024 2.46.034ZM25.1 22.344c-.006.773-.026 1.548-.008 2.32.01.381-.13.512-.5.488-.768-.051-1.54.071-2.307-.07l-.016-2.743 2.83.005ZM108.654 25.078l-.195-.141.181-.075.015.216h-.001ZM102.309 19.531c-.037.05-.074.055-.112.002l.112-.002Z" fill="#ECEAFD"/><path d="M50.16 29.53v.188c-.05.275-.05.55 0 .826l.01.172c-.01 1.313-.018 2.625-.03 3.938-.006.52.176 1.215-.086 1.514-.3.344-1.01.1-1.541.107-1.161.015-1.154.004-1.165 1.142-.005.52.218 1.206-.085 1.513-.326.33-1.016.089-1.547.103-1.308.038-2.617-.053-3.924.048-.806-.008-1.613-.029-2.42-.015-.29.005-.37-.086-.361-.367.02-.623-.017-1.248.015-1.87.023-.417-.057-.602-.535-.561-.617.053-1.243.002-1.865.019-.285.008-.414-.044-.412-.38.014-2.544.013-5.088-.002-7.632-.003-.338.124-.384.41-.377.656.018 1.312-.011 1.967.014.321.012.441-.064.427-.41-.028-.689.002-1.38-.014-2.071-.007-.269.084-.344.345-.343 2.555.008 5.11.013 7.666 0 .337-.002.384.133.376.418-.016.623.02 1.248-.014 1.87-.022.404.065.563.509.53.602-.044 1.21-.017 1.815-.006.153.003.34-.09.458.1a8.192 8.192 0 0 0 .003 1.531ZM83.524 36.303c-.79-.008-1.579-.03-2.368-.017-.29.004-.364-.088-.363-.37.01-2.561.009-5.123-.001-7.684-.002-.27.08-.341.34-.335.69.018 1.38-.006 2.069.012.283.008.374-.073.366-.363-.02-.673.009-1.348-.014-2.021-.01-.321.066-.441.413-.439 2.522.014 5.044.016 7.566.001.347-.002.42.111.41.433-.025.674.006 1.348-.013 2.022-.01.295.094.367.374.36.689-.019 1.378.006 2.067-.013.285-.008.374.074.369.366-.015.825.002 1.65.008 2.476-.01.083-.026.166-.026.25-.002 1.617-.011 3.236.006 4.854.004.35-.086.468-.447.453-.654-.03-1.312.011-1.967-.016-.345-.014-.429.114-.417.432.02.606-.022 1.215.018 1.82.029.432-.121.526-.532.523-1.713-.015-3.427.009-5.142.019l-2.395-.006-.12.008-.103-.03-.048-.137c0-.047.002-.093.003-.14.055-.225.083-.45-.007-.673l.005-.438a.32.32 0 0 0-.007-.369v-.138c.049-.283.142-.568-.043-.838l-.001-.002Z" fill="#28226B"/><path d="M41.79 39.08c1.308-.1 2.617-.01 3.925-.047.53-.015 1.221.227 1.548-.103.302-.307.079-.994.084-1.513.011-1.138.005-1.127 1.165-1.142.531-.007 1.24.236 1.541-.107.262-.299.08-.994.085-1.514.013-1.313.021-2.625.031-3.938.817-.03 1.634.07 2.452-.046.355-.051.319.26.319.495v5.052c0 .758-.033 1.518.008 2.273.025.47-.147.573-.575.548-.586-.034-1.177.009-1.763-.015-.384-.015-.5.142-.49.506.02.64-.007 1.28.01 1.92.008.304-.09.41-.403.41-2.52-.01-5.041-.01-7.562 0-.31 0-.41-.098-.401-.407.023-.79.019-1.582.026-2.374v.003ZM86.24 39.066c1.715-.01 3.428-.034 5.142-.02.412.004.56-.09.532-.523-.04-.603.002-1.213-.018-1.82-.011-.318.072-.446.417-.431.655.028 1.313-.013 1.967.016.36.015.45-.104.447-.453-.018-1.618-.008-3.236-.006-4.855 0-.083.017-.166.026-.25.721-.01 1.445.06 2.163-.068.386-.069.564.045.56.5-.023 2.462-.018 4.922-.003 7.383.002.367-.085.514-.476.493-.57-.031-1.144.01-1.715-.014-.405-.017-.582.108-.562.543.028.622-.004 1.247.01 1.87.006.286-.055.427-.386.426a959.353 959.353 0 0 0-7.568-.005c-.305.001-.416-.094-.407-.405.02-.623.007-1.247.005-1.87 0-.182.037-.375-.127-.516v-.001ZM50.16 29.53a8.125 8.125 0 0 1-.003-1.532c.11.51.106 1.021.003 1.532ZM83.524 36.303c.185.27.092.555.043.838-.094-.276-.033-.56-.043-.838ZM50.16 30.544a2.344 2.344 0 0 1 0-.826c.102.275.101.55 0 .826ZM61.132 5.579c.143-.059.119-.215.183-.32.05.17.154.373-.183.32ZM83.569 38.087c.091.223.063.448.007.673a.955.955 0 0 1-.007-.673ZM83.567 37.28a.32.32 0 0 1 .007.369.39.39 0 0 1-.007-.369ZM83.573 38.9l.049.136c-.08-.023-.092-.07-.049-.137ZM83.724 39.067l.12-.007c-.035.071-.075.079-.12.007Z" fill="#ECEAFD"/></g><defs><clipPath id="clip0_215_19464"><path fill="#fff" d="M0 0h131v134H0z"/></clipPath></defs></svg>