<svg width="246" height="97" fill="none" xmlns="http://www.w3.org/2000/svg"><g clip-path="url('#clip0_207_1721')" fill="#fff"><path d="m52.184 31.907-1.361-1.382v-.238h-4.896c-.91 0-1.648-.738-1.648-1.65V10.24c0-.436-.174-.857-.486-1.164l-3.232-3.236v-.237h-7.91c-.911 0-1.649.738-1.649 1.65v30.581h.238l3.237 3.196c.307.303.723.476 1.159.476h17.206c.911 0 1.649-.738 1.649-1.65V34.93c0-.436-.174-.852-.476-1.16l-1.831-1.858v-.005Zm-5.128 3.8H34.77c-.911 0-1.649-.738-1.649-1.65V9.368c0-.911.738-1.65 1.648-1.65h2.025c.91 0 1.648.739 1.648 1.65v21.39c0 .912.738 1.65 1.649 1.65h6.965c.91 0 1.648.74 1.648 1.65 0 .912-.738 1.65-1.648 1.65Z"/><path d="M59.624 20.303v5.177c0 .496.4.897.896.897h3.148a.896.896 0 0 0 .896-.896v-5.178c0-.496-.4-.897-.896-.897H60.52a.896.896 0 0 0-.896.897Zm0 0v5.177c0 .496.4.897.896.897h3.148a.896.896 0 0 0 .896-.896v-5.178c0-.496-.4-.897-.896-.897H60.52a.896.896 0 0 0-.896.897Zm15.152-3.305L72 14.223v-.283H55.105a.896.896 0 0 0-.896.897v.278a.896.896 0 0 1-.896.897h-.233a.896.896 0 0 0-.896.896v18.988h.238l2.069 2.041 1.386 1.373a.909.909 0 0 0 .628.257h1.154c.232 0 .45.09.619.248l1.648 1.58a.907.907 0 0 0 .619.248H74.77a.896.896 0 0 0 .896-.896v-6.05c0-.228-.089-.451-.247-.62l-.649-.683a.896.896 0 0 0 .896-.897V18.26a.897.897 0 0 0-.262-.634l-.634-.634.005.005ZM68.99 27.6h-.233a.896.896 0 0 0-.896.897v.233c0 .495-.401.897-.896.897H60.52a.896.896 0 0 0-.896.897v1.124c0 .496.4.897.896.897h8.47c.495 0 .895.402.895.897v1.506a.896.896 0 0 1-.895.897H57.223a.896.896 0 0 1-.896-.897v-.277a.896.896 0 0 0-.896-.897H55.2a.896.896 0 0 1-.896-.897V19.03c0-.495.4-.897.896-.897h.232a.896.896 0 0 0 .896-.897v-.282c0-.495.401-.897.896-.897H68.99c.495 0 .895.401.895.897v9.751a.896.896 0 0 1-.895.897Zm-5.322-8.195H60.52a.896.896 0 0 0-.896.897v5.177c0 .496.4.897.896.897h3.148a.896.896 0 0 0 .896-.896v-5.178c0-.496-.4-.897-.896-.897Z"/><path d="M98.264 18.256a.878.878 0 0 0-.257-.62l-3.416-3.413v-.283H77.677a.875.875 0 0 0-.876.878v.317a.875.875 0 0 1-.877.877h-.272a.875.875 0 0 0-.876.877V27.65h.238l.658.659.624.624c.55.55.163 1.496-.62 1.496h-.024a.875.875 0 0 0-.876.878v6.659h.238l.658.649 2.802 2.775a.869.869 0 0 0 .614.253h16.27a.875.875 0 0 0 .877-.877v-.323c0-.485.39-.877.876-.877h.272a.875.875 0 0 0 .876-.877V28.572a.87.87 0 0 0-.252-.614l-1.248-1.268c-.544-.556-.153-1.492.624-1.492a.875.875 0 0 0 .876-.877v-6.065h.005Zm-6.663 1.15h-8.509a.875.875 0 0 0-.876.877v3.141c0 .486.391.877.876.877h6.485c.485 0 .876.392.876.877v.322c0 .486.391.877.876.877h.272c.486 0 .877.392.877.877v5.644a.875.875 0 0 1-.877.877h-.272a.875.875 0 0 0-.876.877v.317a.875.875 0 0 1-.876.877H77.77a.875.875 0 0 1-.876-.877v-1.546c0-.485.39-.877.876-.877h8.509a.875.875 0 0 0 .876-.877v-3.19a.875.875 0 0 0-.876-.878h-6.485a.875.875 0 0 1-.876-.877v-.317a.875.875 0 0 0-.876-.877h-.272a.875.875 0 0 1-.876-.877v-5.644c0-.485.39-.877.876-.877h.272a.875.875 0 0 0 .876-.877v-.322c0-.485.391-.877.876-.877h11.806c.486 0 .877.392.877.877v1.596a.875.875 0 0 1-.877.877ZM143.781 19.875l-5.698-5.703v-.282h-6.054a.928.928 0 0 1-.663-.278l-1.465-1.466v-.283h-16.855a.94.94 0 0 0-.941.942V37.92h.238l3.395 3.394a.939.939 0 0 0 .664.278h7.984a.94.94 0 0 0 .941-.942l.668.67a.953.953 0 0 0 .663.272h16.227a.94.94 0 0 0 .94-.942V19.92l-.044-.045Zm-6.732 15.926h-3.436a.94.94 0 0 1-.94-.942V20.297a.94.94 0 0 0-.941-.942h-.99a.94.94 0 0 0-.94.942v14.562a.94.94 0 0 1-.941.942h-3.485a.94.94 0 0 1-.94-.942V18.225a.94.94 0 0 0-.941-.941h-3.014a.94.94 0 0 0-.941.941V34.86a.94.94 0 0 1-.94.942h-3.441a.94.94 0 0 1-.94-.942V14.925c0-.52.42-.941.94-.941h11.678a.94.94 0 0 1 .94.941v.144c0 .52.421.942.941.942h6.306c.52 0 .94.42.94.941v.238c0 .52.421.941.941.941h.144a.94.94 0 0 1 .94.942v15.786a.94.94 0 0 1-.94.942Z"/><path d="M153.379 3.762v-.238h-6.916a2.687 2.687 0 0 0-2.683 2.686v31.568h.282l2.881 2.889a2.685 2.685 0 0 0 1.901.788h5.525a2.686 2.686 0 0 0 2.682-2.686V8.589c0-.71-.277-1.383-.772-1.888l-2.9-2.939Zm-3.867 31.895h-1.692a1.925 1.925 0 0 1-1.926-1.927V19.836c0-1.02.827-1.853 1.851-1.853h1.916c.886 0 1.604.718 1.604 1.605v14.315c0 .966-.782 1.75-1.748 1.75l-.005.004Zm.268-20.543h-2.426a1.46 1.46 0 0 1-1.46-1.462V7.137c0-.823.668-1.492 1.49-1.492h2.47c.777 0 1.406.63 1.406 1.407v6.58c0 .818-.663 1.482-1.48 1.482Z"/><path d="m179.08 19.351-5.084-5.128v-.283h-16.85a.94.94 0 0 0-.941.942v23.085h.233l.614.61 2.826 2.794a.952.952 0 0 0 .659.273h7.994a.94.94 0 0 0 .941-.942l.618.65a.941.941 0 0 0 .684.292h7.979a.94.94 0 0 0 .941-.942V20.357a.952.952 0 0 0-.273-.664l-.341-.342Zm-6.118 16.495h-3.436a.94.94 0 0 1-.94-.941V20.347a.94.94 0 0 0-.941-.941h-3.064a.94.94 0 0 0-.941.941v14.558a.94.94 0 0 1-.94.941h-3.435a.94.94 0 0 1-.941-.941V16.998a.94.94 0 0 1 .941-.942h11.672c.52 0 .94.421.94.942v.193c0 .52.421.941.941.941h.144a.94.94 0 0 1 .94.942v15.83a.94.94 0 0 1-.94.942Z"/><path d="M188.683 3.762v-.238h-6.921a2.687 2.687 0 0 0-2.683 2.686v31.568h.283l2.886 2.889a2.68 2.68 0 0 0 1.895.788h5.52a2.687 2.687 0 0 0 2.683-2.686V8.583a2.7 2.7 0 0 0-.772-1.887l-2.896-2.939.005.005Zm-3.921 31.895h-1.623a1.941 1.941 0 0 1-1.941-1.942V19.573c0-.877.708-1.585 1.584-1.585h1.936c1.019 0 1.846.827 1.846 1.848v14.018c0 .995-.807 1.803-1.802 1.803Zm.317-20.543h-2.237a1.647 1.647 0 0 1-1.644-1.645V7.186c0-.852.688-1.54 1.54-1.54h2.277a1.55 1.55 0 0 1 1.549 1.55v6.431c0 .818-.663 1.487-1.485 1.487Z"/><path d="M214.992 18.256a.88.88 0 0 0-.257-.62l-3.416-3.413v-.283h-16.914a.875.875 0 0 0-.876.878v.317a.875.875 0 0 1-.876.877h-.273a.875.875 0 0 0-.876.877V27.65h.238l1.282 1.283c.549.55.163 1.496-.619 1.496h-.025a.875.875 0 0 0-.876.878v6.659h.238l.609.604 2.851 2.82a.868.868 0 0 0 .614.253h16.276a.875.875 0 0 0 .876-.877v-.323c0-.485.391-.877.876-.877h.272a.875.875 0 0 0 .876-.877V28.572a.871.871 0 0 0-.252-.614l-1.247-1.268c-.545-.556-.154-1.492.623-1.492a.875.875 0 0 0 .876-.877v-6.065Zm-6.667 1.15h-8.51a.875.875 0 0 0-.876.877v3.141c0 .486.391.877.876.877h6.485c.485 0 .876.392.876.877v.322c0 .486.391.877.876.877h.273c.485 0 .876.392.876.877v5.644a.875.875 0 0 1-.876.877h-.273a.875.875 0 0 0-.876.877v.317a.875.875 0 0 1-.876.877h-11.801a.875.875 0 0 1-.876-.877v-1.546c0-.485.391-.877.876-.877h8.509a.875.875 0 0 0 .876-.877v-3.19a.875.875 0 0 0-.876-.878h-6.484a.876.876 0 0 1-.877-.877v-.317a.875.875 0 0 0-.876-.877h-.272a.875.875 0 0 1-.876-.877v-5.644c0-.485.391-.877.876-.877h.272a.875.875 0 0 0 .876-.877v-.322c0-.485.392-.877.877-.877h11.801c.485 0 .876.392.876.877v1.596a.875.875 0 0 1-.876.877ZM17.261 61.562v9.043c0 .56.455 1.01 1.01 1.01h2.915c.56 0 1.01-.455 1.01-1.01v-9.043c0-.56-.455-1.01-1.01-1.01h-2.915c-.56 0-1.01.455-1.01 1.01Zm0 0v9.043c0 .56.455 1.01 1.01 1.01h2.915c.56 0 1.01-.455 1.01-1.01v-9.043c0-.56-.455-1.01-1.01-1.01h-2.915c-.56 0-1.01.455-1.01 1.01Zm12.38-18.541v-.233h-8.549c-.559 0-1.01.456-1.01 1.01v10.317c0 .56-.455 1.01-1.01 1.01H12.86c-.559 0-1.01.457-1.01 1.012 0 .56-.455 1.016-1.01 1.016-.559 0-1.01.455-1.01 1.01v16.842h.239l5.445 5.41c.188.19.445.293.712.293h16.078c.56 0 1.01-.456 1.01-1.01V47.152c0-.267-.104-.52-.292-.713l-3.376-3.429-.005.01Zm-3.133 31.9H14.974c-.56 0-1.01-.456-1.01-1.01 0-.56-.455-1.017-1.01-1.017-.559 0-1.01-.456-1.01-1.01v-11.59c0-.56.456-1.01 1.01-1.01.56 0 1.01-.457 1.01-1.012 0-.56.456-1.01 1.01-1.01h6.212c.56 0 1.01-.456 1.01-1.011V45.935c0-.56.456-1.011 1.01-1.011h3.297c.56 0 1.01.456 1.01 1.01V73.92c0 .56-.456 1.01-1.01 1.01l.005-.01Zm-8.237-3.3h2.915c.56 0 1.01-.456 1.01-1.01v-9.044c0-.56-.455-1.01-1.01-1.01h-2.915c-.56 0-1.01.455-1.01 1.01v9.043c0 .56.455 1.01 1.01 1.01ZM40.309 61.815v4.633c0 .441.361.803.802.803h2.816c.44 0 .802-.362.802-.803v-4.633a.805.805 0 0 0-.802-.802h-2.816a.805.805 0 0 0-.802.802Zm0 0v4.633c0 .441.361.803.802.803h2.816c.44 0 .802-.362.802-.803v-4.633a.805.805 0 0 0-.802-.802h-2.816a.805.805 0 0 0-.802.802Zm14.355-1.818a.82.82 0 0 0-.233-.57l-3.049-3.052v-.253H36.27a.805.805 0 0 0-.802.803v.248a.805.805 0 0 1-.802.802h-.208a.805.805 0 0 0-.802.803v16.98h.208l3.094 3.053a.797.797 0 0 0 .564.233h1.035c.207 0 .405.079.554.223l1.47 1.412a.795.795 0 0 0 .554.223h12.727c.44 0 .802-.362.802-.803v-5.41a.796.796 0 0 0-.223-.556l-.579-.61c.44 0 .802-.36.802-.802v-12.73.006Zm-5.98 8.349h-.207a.805.805 0 0 0-.802.803v.208a.805.805 0 0 1-.802.802H41.11a.805.805 0 0 0-.802.803v1.006c0 .441.361.803.802.803h7.573c.44 0 .802.361.802.802v1.348a.805.805 0 0 1-.802.803H38.161a.805.805 0 0 1-.802-.803v-.253a.805.805 0 0 0-.802-.802h-.203a.805.805 0 0 1-.802-.803V60.681c0-.441.361-.803.802-.803h.203c.44 0 .802-.362.802-.803v-.253c0-.44.36-.802.801-.802h10.524c.44 0 .802.361.802.802v8.721a.805.805 0 0 1-.802.803Zm-4.757-7.333h-2.816a.805.805 0 0 0-.802.802v4.633c0 .441.361.803.802.803h2.816c.44 0 .802-.362.802-.803v-4.633a.805.805 0 0 0-.802-.802ZM62.445 61.562v9.048c0 .56.45 1.01 1.01 1.01h2.92c.56 0 1.01-.45 1.01-1.01v-9.048c0-.56-.45-1.01-1.01-1.01h-2.92c-.56 0-1.01.45-1.01 1.01Zm0 0v9.048c0 .56.45 1.01 1.01 1.01h2.92c.56 0 1.01-.45 1.01-1.01v-9.048c0-.56-.45-1.01-1.01-1.01h-2.92c-.56 0-1.01.45-1.01 1.01Zm15.158-1.347L72.8 55.369v-.238h-3.51c-.559 0-1.01-.451-1.01-1.011v-6.957a.993.993 0 0 0-.296-.713l-3.42-3.429v-.233h-8.55c-.56 0-1.01.451-1.01 1.01v33.244h.238l3.42 3.384c.189.188.446.292.708.292H75.46c.56 0 1.01-.45 1.01-1.01 0-.566.45-1.016 1.01-1.016s1.01-.451 1.01-1.011V61.533a.997.997 0 0 0-.292-.709l-.6-.604.006-.005Zm-5.906 12.68h-.005c-.56 0-1.01.45-1.01 1.01a1.01 1.01 0 0 1-1.01 1.016H58.135c-.56 0-1.01-.451-1.01-1.01V45.92c0-.56.45-1.011 1.01-1.011h3.302c.559 0 1.01.45 1.01 1.01v10.322c0 .56.45 1.01 1.01 1.01h6.217c.559 0 1.01.452 1.01 1.011 0 .565.45 1.016 1.01 1.016h.004c.56 0 1.01.451 1.01 1.01v11.596c0 .56-.45 1.01-1.01 1.01Zm-8.242-1.274h2.92c.56 0 1.01-.451 1.01-1.01v-9.049c0-.56-.45-1.01-1.01-1.01h-2.92c-.56 0-1.01.45-1.01 1.01v9.048c0 .56.45 1.01 1.01 1.01Z"/><path d="M85.038 57.554v13.2c0 .56.45 1.011 1.01 1.011h2.925c.56 0 1.01-.45 1.01-1.01v-13.2c0-.56-.45-1.011-1.01-1.011h-2.925c-.56 0-1.01.45-1.01 1.01Zm0 0v13.2c0 .56.45 1.011 1.01 1.011h2.925c.56 0 1.01-.45 1.01-1.01v-13.2c0-.56-.45-1.011-1.01-1.011h-2.925c-.56 0-1.01.45-1.01 1.01Zm15.157-1.337-4.802-4.807v-.282h-14.76c-.56 0-1.01.45-1.01 1.01a1.01 1.01 0 0 1-1.01 1.017c-.56 0-1.01.45-1.01 1.01V75.16h.232l.659.654 4.786 4.752c.189.189.446.293.713.293h14.064c.559 0 1.01-.451 1.01-1.011 0-.565.45-1.016 1.009-1.016h.005c.559 0 1.01-.45 1.01-1.01V57.53a.993.993 0 0 0-.297-.714l-.599-.6Zm-5.906 16.822h-.005c-.559 0-1.01.45-1.01 1.01s-.45 1.011-1.01 1.011h-9.513c-.56 0-1.01-.45-1.01-1.01s-.45-1.011-1.01-1.011h-.005c-.56 0-1.01-.451-1.01-1.011V56.286c0-.56.45-1.01 1.01-1.01h.005c.56 0 1.01-.452 1.01-1.012 0-.565.45-1.015 1.01-1.015h9.514c.56 0 1.01.45 1.01 1.01 0 .565.45 1.016 1.01 1.016h.004c.56 0 1.01.451 1.01 1.011v15.742c0 .56-.45 1.01-1.01 1.01Zm-8.242-1.274h2.926c.56 0 1.01-.45 1.01-1.01v-13.2c0-.56-.45-1.011-1.01-1.011h-2.925c-.56 0-1.01.45-1.01 1.01v13.2c0 .56.45 1.011 1.01 1.011Z"/><path d="M107.63 59.724v9.092c0 .56.455 1.01 1.01 1.01h2.92c.559 0 1.01-.455 1.01-1.01v-9.093c0-.56-.455-1.01-1.01-1.01h-2.92c-.56 0-1.01.456-1.01 1.01Zm0 0v9.092c0 .56.455 1.01 1.01 1.01h2.92c.559 0 1.01-.455 1.01-1.01v-9.093c0-.56-.455-1.01-1.01-1.01h-2.92c-.56 0-1.01.456-1.01 1.01Zm15.157-1.299-4.802-4.846v-.287h-16.78c-.56 0-1.01.456-1.01 1.01v18.874h.232l.664.664 3.054 3.057h.143v6.6h.283l3.376 3.375c.188.188.445.297.717.297h11.984c.56 0 1.01-.456 1.01-1.01v-.046c0-.56.456-1.01 1.01-1.01.559 0 1.01-.456 1.01-1.011V59.753a.993.993 0 0 0-.297-.713l-.599-.605.005-.01Zm-5.906 20.876a1.01 1.01 0 0 0-1.009 1.01v.05c0 .56-.456 1.01-1.01 1.01h-7.435c-.56 0-1.01-.455-1.01-1.01v-1.274c0-.56.455-1.01 1.01-1.01h4.143c.559 0 1.01-.456 1.01-1.011v-2.919c0-.56-.456-1.01-1.01-1.01h-6.212c-.56 0-1.01-.456-1.01-1.011v-.05c0-.56-.456-1.01-1.01-1.01-.559 0-1.01-.457-1.01-1.011V56.438c0-.56.456-1.01 1.01-1.01h11.529c.559 0 1.01.455 1.01 1.01v.05c0 .56.455 1.01 1.009 1.01.56 0 1.01.457 1.01 1.012v19.785c0 .56-.455 1.01-1.01 1.01l-.005-.005Zm-8.236-9.47h2.92c.559 0 1.01-.455 1.01-1.01v-9.093c0-.56-.456-1.01-1.01-1.01h-2.92c-.56 0-1.01.455-1.01 1.01v9.093c0 .56.455 1.01 1.01 1.01Z"/><path d="M146.32 71.097V59.66c0-.273-.109-.54-.302-.734l-.168-.168-3.198-3.206v-.282h-8.009c-.273 0-.53-.105-.723-.298l-1.53-1.496v-.283h-8.568c-.57 0-1.035.466-1.035 1.036v20.925h.233l.663.654 2.757 2.72c.193.193.456.297.728.297h1.074c.272 0 .54.11.733.303l.48.48c.193.193.455.302.733.302h17.176c.57 0 1.035-.465 1.035-1.035V74.03c0-.273-.109-.54-.302-.734l-1.47-1.471a1.035 1.035 0 0 1-.302-.733l-.005.005Zm-4.752 4.013H128.01c-.57 0-1.035-.466-1.035-1.035 0-.57-.465-1.036-1.035-1.036a1.038 1.038 0 0 1-1.034-1.036V56.356c0-.57.465-1.036 1.034-1.036h3.297c.569 0 1.035.466 1.035 1.036v14.419c0 .57.465 1.035 1.034 1.035h2.871c.57 0 1.035-.466 1.035-1.035V58.431c0-.57.465-1.036 1.034-1.036h3.253c.569 0 1.034.466 1.034 1.036v12.343c0 .57.466 1.035 1.035 1.035s1.034.466 1.034 1.036v1.228c0 .57-.465 1.036-1.034 1.036Z"/><path d="M153.285 59.56v5.182c0 .496.401.897.896.897h3.153a.896.896 0 0 0 .896-.897V59.56a.896.896 0 0 0-.896-.896h-3.153a.896.896 0 0 0-.896.896Zm0 0v5.182c0 .496.401.897.896.897h3.153a.896.896 0 0 0 .896-.897V59.56a.896.896 0 0 0-.896-.896h-3.153a.896.896 0 0 0-.896.896Zm16.053-2.032a.898.898 0 0 0-.262-.634l-.634-.635-2.777-2.78v-.282H148.77a.896.896 0 0 0-.896.897v.282a.896.896 0 0 1-.896.897h-.232a.896.896 0 0 0-.896.897v18.988h.232l2.312 2.279 1.148 1.135a.91.91 0 0 0 .629.257h1.153c.233 0 .456.09.619.248l1.644 1.576a.905.905 0 0 0 .618.247h14.232a.896.896 0 0 0 .896-.897v-6.05a.906.906 0 0 0-.248-.619l-.648-.684a.896.896 0 0 0 .896-.897V57.519l.005.01Zm-6.688 9.335h-.232a.896.896 0 0 0-.896.897v.233a.896.896 0 0 1-.896.897h-6.445a.896.896 0 0 0-.896.896v1.125c0 .496.401.897.896.897h8.469c.495 0 .896.401.896.897v1.506a.896.896 0 0 1-.896.897h-11.761a.896.896 0 0 1-.896-.897v-.277a.896.896 0 0 0-.896-.897h-.233a.896.896 0 0 1-.896-.897V58.29c0-.495.401-.896.896-.896h.233a.896.896 0 0 0 .896-.897v-.282c0-.496.401-.897.896-.897h11.761c.495 0 .896.401.896.897v9.751a.896.896 0 0 1-.896.897Zm-5.316-8.2h-3.153a.896.896 0 0 0-.896.896v5.183c0 .496.401.897.896.897h3.153a.896.896 0 0 0 .896-.897V59.56a.896.896 0 0 0-.896-.896Z"/><path d="M191.974 71.097V59.66c0-.273-.108-.54-.301-.734l-.213-.213-3.154-3.161v-.282h-8.004c-.272 0-.53-.105-.723-.293l-1.534-1.501v-.283h-8.569c-.569 0-1.034.466-1.034 1.036v20.925h.232l.664.654 2.757 2.72c.193.193.455.297.728.297h1.074c.277 0 .539.11.732.308l.471.475c.193.193.46.307.732.307h17.177c.569 0 1.035-.465 1.035-1.035v-4.846c0-.273-.109-.54-.302-.733l-1.471-1.472a1.035 1.035 0 0 1-.301-.733h.004Zm-4.752 4.013h-13.558a1.038 1.038 0 0 1-1.035-1.035c0-.57-.465-1.036-1.034-1.036a1.038 1.038 0 0 1-1.035-1.036V56.356c0-.57.466-1.036 1.035-1.036h3.297c.569 0 1.034.466 1.034 1.036v14.419c0 .57.466 1.035 1.035 1.035h2.871c.569 0 1.034-.466 1.034-1.035V58.431c0-.57.466-1.036 1.035-1.036h3.252c.57 0 1.035.466 1.035 1.036v12.343c0 .57.465 1.035 1.034 1.035.57 0 1.035.466 1.035 1.036v1.228c0 .57-.465 1.036-1.035 1.036Z"/><path d="m212.686 58.947-3.436-3.439v-.233h-4.519v-.188l-3.717-3.677v-.282h-7.911c-.911 0-1.643.738-1.643 1.645v24.408h.232l2.357 2.329.881.872c.307.307.723.476 1.158.476h7c.91 0 1.643-.739 1.643-1.645V68.138c0-.912.738-1.645 1.643-1.645h4.901c.911 0 1.644-.738 1.644-1.645V59.19l-.238-.238.005-.005Zm-7.198 1.744h-4.945c-.911 0-1.643.738-1.643 1.645V73.41c0 .912-.738 1.645-1.644 1.645h-2.029a1.644 1.644 0 0 1-1.644-1.645V54.894c0-.912.738-1.645 1.644-1.645h2.029c.911 0 1.644.738 1.644 1.645v.852c0 .912.737 1.645 1.643 1.645h4.945c.911 0 1.644.738 1.644 1.645 0 .912-.738 1.645-1.644 1.645v.01Z"/><path d="M236.174 57.518a.88.88 0 0 0-.257-.62l-3.416-3.418v-.283h-16.914a.875.875 0 0 0-.877.877v.322a.875.875 0 0 1-.876.877h-.272a.875.875 0 0 0-.876.877v10.762h.232l1.282 1.284c.55.55.164 1.496-.618 1.496h-.02a.875.875 0 0 0-.876.877v6.66h.232l3.465 3.424a.872.872 0 0 0 .614.252h16.276a.875.875 0 0 0 .876-.877v-.322c0-.485.391-.877.877-.877h.272a.875.875 0 0 0 .876-.877V67.834a.872.872 0 0 0-.252-.614l-1.248-1.269c-.544-.555-.153-1.491.624-1.491a.875.875 0 0 0 .876-.877v-6.065Zm-6.668 1.145h-8.509a.875.875 0 0 0-.876.877v3.146c0 .486.391.877.876.877h6.485c.485 0 .876.391.876.877v.322c0 .486.391.877.876.877h.272c.485 0 .876.392.876.877v5.644a.875.875 0 0 1-.876.877h-.272a.875.875 0 0 0-.876.877v.317a.875.875 0 0 1-.876.877h-11.801a.875.875 0 0 1-.877-.877v-1.546c0-.486.391-.877.877-.877h8.509a.875.875 0 0 0 .876-.877V67.74a.875.875 0 0 0-.876-.877h-6.485a.875.875 0 0 1-.876-.877v-.317a.875.875 0 0 0-.876-.877h-.272a.875.875 0 0 1-.877-.877V58.27c0-.486.391-.877.877-.877h.272a.875.875 0 0 0 .876-.877v-.322c0-.486.391-.877.876-.877h11.801c.485 0 .876.391.876.877v1.59a.875.875 0 0 1-.876.878ZM50.481 48.71v-.14l-15.805-.014v5.222h.113l1.822 1.804 15.667.015v-5.084l-1.797-1.804Zm-1.044 4.042-13.722-.014v-3.142l13.727.015v3.142h-.005Z"/></g><defs><clipPath id="clip0_207_1721"><path fill="#fff" d="M0 0h246v97H0z"/></clipPath></defs></svg>