<svg width="103" height="40" fill="none" xmlns="http://www.w3.org/2000/svg"><g clip-path="url('#clip0_274_21096')" fill="#28226B"><path d="m21.684 13.157-.565-.57v-.098h-2.035a.683.683 0 0 1-.685-.68V4.222a.672.672 0 0 0-.201-.48l-1.343-1.334V2.31h-3.287a.682.682 0 0 0-.685.68v12.611h.098l1.346 1.318a.69.69 0 0 0 .481.196h7.15a.682.682 0 0 0 .685-.68v-2.031a.68.68 0 0 0-.198-.478l-.76-.767v-.002Zm-2.13 1.568h-5.106a.682.682 0 0 1-.685-.68V3.861c0-.376.307-.68.685-.68h.841c.379 0 .685.304.685.68v8.821c0 .376.307.68.685.68h2.894c.379 0 .685.305.685.681 0 .376-.306.68-.685.68Z"/><path d="M24.776 8.372v2.135c0 .205.167.37.372.37h1.308a.371.371 0 0 0 .373-.37V8.372a.371.371 0 0 0-.373-.37h-1.308a.371.371 0 0 0-.372.37Zm0 0v2.135c0 .205.167.37.372.37h1.308a.371.371 0 0 0 .373-.37V8.372a.371.371 0 0 0-.373-.37h-1.308a.371.371 0 0 0-.372.37Zm6.296-1.363-1.154-1.144v-.116h-7.02a.371.371 0 0 0-.372.37v.114c0 .204-.167.37-.373.37h-.096a.371.371 0 0 0-.373.37v7.83h.1l.859.841.576.566a.38.38 0 0 0 .261.106h.48c.096 0 .187.037.256.103l.685.651c.07.066.163.102.258.102h5.911a.371.371 0 0 0 .373-.37v-2.494a.373.373 0 0 0-.103-.256l-.27-.282a.371.371 0 0 0 .373-.37V7.53a.368.368 0 0 0-.11-.261l-.263-.262.002.002Zm-2.404 4.373h-.097a.371.371 0 0 0-.372.37v.096c0 .204-.167.37-.373.37h-2.678a.371.371 0 0 0-.372.37v.463c0 .204.167.37.372.37h3.52c.205 0 .372.165.372.37v.621c0 .204-.167.37-.372.37h-4.89a.371.371 0 0 1-.372-.37v-.114a.371.371 0 0 0-.372-.37h-.097a.371.371 0 0 1-.372-.37V7.847c0-.204.166-.37.372-.37h.097a.371.371 0 0 0 .372-.37v-.116c0-.204.167-.37.372-.37h4.89c.205 0 .372.166.372.37v4.021c0 .204-.167.37-.372.37Zm-2.212-3.38h-1.308a.371.371 0 0 0-.372.37v2.135c0 .205.167.37.372.37h1.308a.371.371 0 0 0 .373-.37V8.372a.371.371 0 0 0-.373-.37Z"/><path d="M40.832 7.528a.36.36 0 0 0-.107-.255l-1.419-1.408v-.116h-7.028a.362.362 0 0 0-.364.361v.131c0 .2-.163.362-.365.362h-.113a.362.362 0 0 0-.364.361v4.438h.099l.274.272.259.258a.361.361 0 0 1-.257.617h-.01a.362.362 0 0 0-.365.361v2.746h.099l.274.268 1.164 1.144c.068.068.16.104.255.104h6.761a.362.362 0 0 0 .364-.361v-.133c0-.2.163-.362.364-.362h.113a.362.362 0 0 0 .364-.361v-4.173a.357.357 0 0 0-.105-.253l-.518-.523a.361.361 0 0 1 .26-.615.362.362 0 0 0 .363-.362v-2.5h.002Zm-2.768.474h-3.536a.362.362 0 0 0-.364.362v1.295c0 .2.162.362.364.362h2.694c.202 0 .365.161.365.362v.133c0 .2.162.361.364.361h.113c.201 0 .364.162.364.362v2.327c0 .2-.163.362-.364.362h-.113a.362.362 0 0 0-.364.361v.131c0 .2-.163.362-.365.362h-4.905a.362.362 0 0 1-.364-.362v-.637c0-.2.162-.362.364-.362h3.536a.362.362 0 0 0 .364-.362v-1.316c0-.2-.163-.361-.364-.361h-2.695a.362.362 0 0 1-.364-.362v-.13c0-.2-.163-.362-.364-.362h-.113a.362.362 0 0 1-.364-.362V7.84c0-.2.162-.362.364-.362h.113a.362.362 0 0 0 .364-.362v-.132c0-.2.162-.362.364-.362h4.906c.201 0 .364.161.364.362v.658c0 .2-.163.361-.364.361ZM59.746 8.196 57.38 5.844v-.116h-2.516a.387.387 0 0 1-.276-.115l-.608-.604v-.117h-7.004a.39.39 0 0 0-.391.388v10.358h.099l1.41 1.4a.39.39 0 0 0 .276.114h3.318a.39.39 0 0 0 .391-.389l.278.276a.397.397 0 0 0 .275.113h6.743a.39.39 0 0 0 .39-.389V8.215l-.018-.018Zm-2.797 6.567H55.52a.39.39 0 0 1-.39-.388V8.37a.39.39 0 0 0-.391-.388h-.412a.39.39 0 0 0-.39.388v6.005a.39.39 0 0 1-.391.388h-1.448a.39.39 0 0 1-.391-.388v-6.86a.39.39 0 0 0-.391-.388h-1.253a.39.39 0 0 0-.39.389v6.859a.39.39 0 0 1-.391.388h-1.43a.39.39 0 0 1-.39-.388v-8.22a.39.39 0 0 1 .39-.388h4.852a.39.39 0 0 1 .391.388v.06a.39.39 0 0 0 .391.387h2.62a.39.39 0 0 1 .391.389v.098a.39.39 0 0 0 .391.388h.06a.39.39 0 0 1 .39.388v6.51a.39.39 0 0 1-.39.388Z"/><path d="M63.734 1.551v-.098h-2.873c-.615 0-1.115.497-1.115 1.108v13.017h.117l1.197 1.192c.21.208.494.324.79.324h2.296c.615 0 1.115-.496 1.115-1.107V3.54c0-.292-.115-.57-.321-.778L63.734 1.55Zm-1.606 13.153h-.703a.797.797 0 0 1-.8-.795v-5.73c0-.42.343-.764.769-.764h.796c.368 0 .666.297.666.662v5.903a.724.724 0 0 1-.726.722l-.002.002Zm.111-8.472h-1.008a.605.605 0 0 1-.607-.602V2.943c0-.34.278-.615.62-.615h1.026c.323 0 .584.26.584.58V5.62c0 .338-.276.611-.615.611Z"/><path d="m74.414 7.98-2.112-2.115v-.116H65.3a.39.39 0 0 0-.39.388v9.52h.096l.255.25 1.175 1.153a.397.397 0 0 0 .273.113h3.322a.39.39 0 0 0 .39-.389l.258.268c.074.078.177.12.284.12h3.316a.39.39 0 0 0 .39-.388v-8.39c0-.102-.04-.2-.113-.273l-.142-.141Zm-2.542 6.802h-1.427a.39.39 0 0 1-.391-.388V8.39a.39.39 0 0 0-.391-.388H68.39a.39.39 0 0 0-.391.388v6.004a.39.39 0 0 1-.391.388H66.18a.39.39 0 0 1-.39-.388V7.009a.39.39 0 0 1 .39-.388h4.85a.39.39 0 0 1 .391.388v.08a.39.39 0 0 0 .391.388h.06a.39.39 0 0 1 .39.388v6.529a.39.39 0 0 1-.39.388Z"/><path d="M78.405 1.551v-.098h-2.876c-.615 0-1.115.497-1.115 1.108v13.017h.117l1.2 1.192c.21.208.493.324.788.324h2.293c.615 0 1.115-.496 1.115-1.107V3.539c0-.29-.115-.57-.321-.778l-1.203-1.212.002.002Zm-1.63 13.153h-.674a.804.804 0 0 1-.806-.801V8.07c0-.361.294-.654.658-.654h.804c.424 0 .767.342.767.763v5.78c0 .41-.335.744-.748.744Zm.132-8.472h-.93a.682.682 0 0 1-.682-.678v-2.59c0-.352.285-.636.64-.636h.945c.356 0 .644.286.644.64v2.651a.616.616 0 0 1-.617.613Z"/><path d="M89.337 7.528a.36.36 0 0 0-.106-.255l-1.42-1.408v-.116h-7.028a.362.362 0 0 0-.365.361v.131c0 .2-.162.362-.364.362h-.113a.362.362 0 0 0-.364.361v4.438h.099l.533.53a.361.361 0 0 1-.257.617h-.01a.362.362 0 0 0-.365.361v2.746h.099l.253.25 1.185 1.162c.068.068.16.104.255.104h6.763a.362.362 0 0 0 .364-.361v-.133c0-.2.163-.362.364-.362h.113a.362.362 0 0 0 .364-.361v-4.173a.357.357 0 0 0-.105-.253l-.518-.523a.361.361 0 0 1 .26-.615.362.362 0 0 0 .363-.362v-2.5Zm-2.77.474H83.03a.362.362 0 0 0-.364.362v1.295c0 .2.162.362.364.362h2.694c.202 0 .365.161.365.362v.133c0 .2.162.361.364.361h.113c.201 0 .364.162.364.362v2.327c0 .2-.163.362-.364.362h-.113a.362.362 0 0 0-.364.361v.131c0 .2-.163.362-.365.362h-4.903a.362.362 0 0 1-.364-.362v-.637c0-.2.162-.362.364-.362h3.536a.362.362 0 0 0 .364-.362v-1.316c0-.2-.163-.361-.364-.361h-2.695a.362.362 0 0 1-.364-.362v-.13c0-.2-.163-.362-.364-.362h-.113a.362.362 0 0 1-.364-.362V7.84c0-.2.162-.362.364-.362h.113a.362.362 0 0 0 .364-.362v-.132c0-.2.162-.362.364-.362h4.904c.201 0 .364.161.364.362v.658c0 .2-.163.361-.364.361ZM7.173 25.387v3.729c0 .23.189.416.42.416h1.21c.233 0 .42-.188.42-.416v-3.73c0-.23-.189-.416-.42-.416h-1.21a.419.419 0 0 0-.42.417Zm0 0v3.729c0 .23.189.416.42.416h1.21c.233 0 .42-.188.42-.416v-3.73c0-.23-.189-.416-.42-.416h-1.21a.419.419 0 0 0-.42.417Zm5.144-7.646v-.096H8.765a.419.419 0 0 0-.42.416v4.255c0 .23-.19.416-.42.416H5.344a.419.419 0 0 0-.42.417.42.42 0 0 1-.42.419.419.419 0 0 0-.419.417v6.945h.099l2.262 2.231a.42.42 0 0 0 .297.12h6.68c.233 0 .42-.187.42-.416v-13.42a.418.418 0 0 0-.121-.295l-1.403-1.413-.002.004Zm-1.302 13.154H6.222a.419.419 0 0 1-.42-.417.42.42 0 0 0-.419-.419.419.419 0 0 1-.42-.416v-4.78c0-.23.19-.416.42-.416.232 0 .42-.188.42-.417 0-.231.189-.417.42-.417h2.58c.233 0 .42-.188.42-.417v-4.254c0-.23.19-.417.42-.417h1.37c.232 0 .42.188.42.417v11.54c0 .231-.19.417-.42.417l.002-.004Zm-3.423-1.36h1.212c.232 0 .42-.189.42-.418v-3.729c0-.23-.19-.416-.42-.416H7.592a.419.419 0 0 0-.42.416v3.73c0 .23.19.416.42.416ZM16.75 25.49v1.911c0 .182.15.331.333.331h1.17c.183 0 .334-.149.334-.33V25.49a.333.333 0 0 0-.334-.331h-1.17a.333.333 0 0 0-.333.33Zm0 0v1.911c0 .182.15.331.333.331h1.17c.183 0 .334-.149.334-.33V25.49a.333.333 0 0 0-.334-.331h-1.17a.333.333 0 0 0-.333.33Zm5.965-.75a.337.337 0 0 0-.097-.234l-1.267-1.259v-.104h-6.28a.333.333 0 0 0-.333.331v.102c0 .182-.15.331-.333.331h-.086a.333.333 0 0 0-.334.331v7.003h.087l1.285 1.258a.333.333 0 0 0 .235.096h.43c.086 0 .168.033.23.092l.611.583c.062.059.144.091.23.091h5.289c.183 0 .333-.149.333-.33v-2.232a.327.327 0 0 0-.093-.229l-.24-.251c.183 0 .333-.15.333-.331v-5.25.003Zm-2.485 3.444h-.086a.333.333 0 0 0-.333.33v.087c0 .181-.15.33-.334.33h-2.394a.333.333 0 0 0-.333.332v.414c0 .182.15.332.333.332h3.147c.183 0 .333.149.333.33v.556c0 .182-.15.331-.333.331h-4.373a.333.333 0 0 1-.333-.33v-.105a.333.333 0 0 0-.333-.331h-.085a.333.333 0 0 1-.333-.331v-5.106c0-.182.15-.331.333-.331h.085c.183 0 .333-.15.333-.331v-.104c0-.182.15-.331.333-.331h4.373c.183 0 .333.149.333.33v3.597c0 .182-.15.33-.333.33Zm-1.977-3.024h-1.17a.333.333 0 0 0-.333.33v1.911c0 .182.15.331.333.331h1.17c.183 0 .334-.149.334-.33V25.49a.333.333 0 0 0-.334-.331ZM25.948 25.387v3.73c0 .231.188.417.42.417h1.214c.232 0 .42-.186.42-.416v-3.731a.417.417 0 0 0-.42-.417h-1.214a.417.417 0 0 0-.42.417Zm0 0v3.73c0 .231.188.417.42.417h1.214c.232 0 .42-.186.42-.416v-3.731a.417.417 0 0 0-.42-.417h-1.214a.417.417 0 0 0-.42.417Zm6.299-.556-1.995-1.999v-.098h-1.459a.417.417 0 0 1-.42-.417V19.45a.408.408 0 0 0-.123-.295l-1.421-1.413v-.096h-3.553a.417.417 0 0 0-.42.416V31.77h.1l1.42 1.395c.08.078.186.12.295.12h6.685c.233 0 .42-.185.42-.416 0-.233.187-.419.42-.419.232 0 .419-.186.419-.417v-6.659a.41.41 0 0 0-.121-.292l-.25-.25.003-.001Zm-2.454 5.229h-.002a.417.417 0 0 0-.42.416.418.418 0 0 1-.42.42h-4.794a.417.417 0 0 1-.42-.418V18.936c0-.231.187-.417.42-.417h1.372c.232 0 .42.186.42.417v4.256c0 .23.187.417.419.417h2.584c.232 0 .42.186.42.417 0 .233.186.419.419.419h.002c.232 0 .42.186.42.416v4.782c0 .23-.188.416-.42.416Zm-3.425-.526h1.214c.232 0 .42-.186.42-.416v-3.731a.417.417 0 0 0-.42-.417h-1.214a.417.417 0 0 0-.42.417v3.73c0 .231.188.417.42.417Z"/><path d="M35.336 23.734v5.443c0 .23.188.417.42.417h1.216c.232 0 .42-.186.42-.417v-5.443a.417.417 0 0 0-.42-.417h-1.216a.417.417 0 0 0-.42.417Zm0 0v5.443c0 .23.188.417.42.417h1.216c.232 0 .42-.186.42-.417v-5.443a.417.417 0 0 0-.42-.417h-1.216a.417.417 0 0 0-.42.417Zm6.299-.552L39.64 21.2v-.116h-6.134a.417.417 0 0 0-.42.416.418.418 0 0 1-.42.42.417.417 0 0 0-.42.416v8.657h.097l.274.27 1.99 1.96a.42.42 0 0 0 .295.12h5.844c.233 0 .42-.186.42-.417 0-.233.187-.419.42-.419h.001c.233 0 .42-.185.42-.416v-8.368a.408.408 0 0 0-.123-.294l-.25-.247Zm-2.454 6.937h-.002a.417.417 0 0 0-.42.417c0 .23-.187.416-.42.416h-3.953a.417.417 0 0 1-.42-.416.417.417 0 0 0-.42-.417h-.001a.417.417 0 0 1-.42-.417V23.21c0-.23.187-.416.42-.416h.002c.232 0 .42-.186.42-.417 0-.233.187-.419.42-.419h3.953c.232 0 .42.186.42.417 0 .233.186.419.419.419h.002c.232 0 .42.186.42.416v6.492c0 .23-.188.417-.42.417Zm-3.425-.525h1.216c.232 0 .42-.186.42-.417v-5.443a.417.417 0 0 0-.42-.417h-1.216a.417.417 0 0 0-.42.417v5.443c0 .23.188.417.42.417Z"/><path d="M44.724 24.628v3.75c0 .23.19.416.42.416h1.213c.233 0 .42-.188.42-.416v-3.75c0-.23-.19-.417-.42-.417h-1.213a.419.419 0 0 0-.42.417Zm0 0v3.75c0 .23.19.416.42.416h1.213c.233 0 .42-.188.42-.416v-3.75c0-.23-.19-.417-.42-.417h-1.213a.419.419 0 0 0-.42.417Zm6.299-.535-1.996-1.998v-.119h-6.973a.419.419 0 0 0-.42.417v7.783h.097l.276.274 1.27 1.26h.059v2.722h.117l1.403 1.391a.423.423 0 0 0 .298.123h4.98c.232 0 .42-.188.42-.417v-.018c0-.231.189-.417.42-.417.232 0 .419-.188.419-.417V24.64a.408.408 0 0 0-.124-.294l-.248-.249.002-.004ZM48.569 32.7a.419.419 0 0 0-.42.417v.02c0 .231-.19.417-.42.417h-3.09a.419.419 0 0 1-.419-.416v-.526c0-.23.19-.416.42-.416h1.721c.233 0 .42-.189.42-.417v-1.204c0-.23-.19-.417-.42-.417H43.78a.419.419 0 0 1-.42-.416v-.02c0-.232-.189-.418-.42-.418a.419.419 0 0 1-.419-.416v-5.615c0-.231.19-.417.42-.417h4.79c.233 0 .42.188.42.417v.02c0 .23.19.417.42.417.232 0 .42.188.42.417v8.158c0 .231-.19.417-.42.417l-.002-.002Zm-3.423-3.904h1.213c.233 0 .42-.189.42-.417v-3.75c0-.23-.19-.416-.42-.416h-1.213a.419.419 0 0 0-.42.416v3.75c0 .23.19.417.42.417Z"/><path d="M60.801 29.318v-4.716a.429.429 0 0 0-.125-.302l-.07-.07-1.329-1.322v-.116H55.95a.423.423 0 0 1-.3-.123l-.636-.617v-.116h-3.56a.43.43 0 0 0-.43.427v8.628h.096l.276.27 1.146 1.122c.08.08.189.122.302.122h.446c.114 0 .225.045.305.125l.2.198c.08.08.189.125.304.125h7.138a.43.43 0 0 0 .43-.427v-1.999a.429.429 0 0 0-.126-.302l-.611-.607a.425.425 0 0 1-.126-.302l-.002.002Zm-1.974 1.655h-5.634a.43.43 0 0 1-.43-.427.43.43 0 0 0-.43-.427.43.43 0 0 1-.43-.427v-6.453a.43.43 0 0 1 .43-.427h1.37a.43.43 0 0 1 .43.427v5.946a.43.43 0 0 0 .43.427h1.193a.43.43 0 0 0 .43-.427v-5.09a.43.43 0 0 1 .43-.427h1.351a.43.43 0 0 1 .43.427v5.09a.43.43 0 0 0 .43.427.43.43 0 0 1 .43.427v.507a.43.43 0 0 1-.43.427Z"/><path d="M63.696 24.56v2.138c0 .204.166.37.372.37h1.31a.371.371 0 0 0 .372-.37V24.56a.371.371 0 0 0-.372-.37h-1.31a.371.371 0 0 0-.372.37Zm0 0v2.138c0 .204.166.37.372.37h1.31a.371.371 0 0 0 .372-.37V24.56a.371.371 0 0 0-.372-.37h-1.31a.371.371 0 0 0-.372.37Zm6.67-.837a.368.368 0 0 0-.109-.262l-.263-.261-1.154-1.146v-.117h-7.02a.371.371 0 0 0-.373.37v.116c0 .205-.166.37-.372.37h-.097a.371.371 0 0 0-.372.37v7.83h.097l.96.94.478.468a.38.38 0 0 0 .26.106h.48a.37.37 0 0 1 .257.102l.683.65c.07.065.163.102.257.102h5.914a.371.371 0 0 0 .372-.37v-2.495a.373.373 0 0 0-.103-.255l-.27-.282a.371.371 0 0 0 .373-.37v-5.87l.002.004Zm-2.779 3.85h-.096a.371.371 0 0 0-.373.37v.095c0 .205-.166.37-.372.37h-2.678a.371.371 0 0 0-.372.37v.464c0 .204.166.37.372.37h3.52c.205 0 .372.165.372.37v.62c0 .205-.167.37-.373.37H62.7a.371.371 0 0 1-.372-.37v-.114a.371.371 0 0 0-.373-.37h-.096a.371.371 0 0 1-.373-.37v-5.71c0-.205.167-.37.373-.37h.096a.371.371 0 0 0 .373-.37v-.117c0-.204.166-.37.372-.37h4.887c.206 0 .373.166.373.37v4.021c0 .205-.167.37-.373.37Zm-2.209-3.382h-1.31a.371.371 0 0 0-.372.37v2.137c0 .204.166.37.372.37h1.31a.371.371 0 0 0 .372-.37V24.56a.371.371 0 0 0-.372-.37Z"/><path d="M79.773 29.318v-4.716a.429.429 0 0 0-.126-.302l-.088-.088-1.31-1.304v-.116h-3.327a.43.43 0 0 1-.3-.12l-.638-.62v-.116h-3.56a.43.43 0 0 0-.43.427v8.628h.097l.275.27 1.146 1.122c.08.08.19.122.302.122h.447c.115 0 .224.045.304.127l.195.196c.08.08.192.127.305.127h7.138a.43.43 0 0 0 .43-.427V30.53a.429.429 0 0 0-.126-.303l-.611-.607a.425.425 0 0 1-.126-.302h.003Zm-1.975 1.655h-5.634a.43.43 0 0 1-.43-.427.43.43 0 0 0-.43-.427.43.43 0 0 1-.43-.427v-6.453a.43.43 0 0 1 .43-.427h1.37a.43.43 0 0 1 .43.427v5.946a.43.43 0 0 0 .43.427h1.193a.43.43 0 0 0 .43-.427v-5.09a.43.43 0 0 1 .43-.427h1.351a.43.43 0 0 1 .43.427v5.09a.43.43 0 0 0 .43.427.43.43 0 0 1 .43.427v.507a.43.43 0 0 1-.43.427Z"/><path d="M88.379 24.308 86.95 22.89v-.096h-1.878v-.078L83.53 21.2v-.116h-3.287a.68.68 0 0 0-.683.678v10.065h.096l.98.96.366.36a.68.68 0 0 0 .481.196h2.909a.68.68 0 0 0 .682-.678v-4.567a.68.68 0 0 1 .683-.678h2.037a.68.68 0 0 0 .683-.679v-2.333l-.1-.098.003-.002Zm-2.99.719h-2.056a.68.68 0 0 0-.683.678v4.567a.68.68 0 0 1-.683.679h-.843a.68.68 0 0 1-.683-.679v-7.636a.68.68 0 0 1 .683-.678h.843a.68.68 0 0 1 .683.678v.352a.68.68 0 0 0 .683.678h2.055a.68.68 0 0 1 .683.679.68.68 0 0 1-.683.678v.004Z"/><path d="M98.14 23.719a.36.36 0 0 0-.108-.256l-1.42-1.41v-.116h-7.028a.362.362 0 0 0-.364.362v.133c0 .2-.162.361-.364.361h-.113a.362.362 0 0 0-.364.362v4.438h.097l.532.529a.361.361 0 0 1-.257.617h-.008a.362.362 0 0 0-.364.362v2.746h.097l1.44 1.412c.067.067.16.104.255.104h6.763a.362.362 0 0 0 .364-.362v-.133c0-.2.162-.361.364-.361h.113a.362.362 0 0 0 .364-.362v-4.172a.357.357 0 0 0-.105-.253l-.518-.524a.361.361 0 0 1 .26-.615.362.362 0 0 0 .363-.361v-2.501Zm-2.772.472h-3.535a.362.362 0 0 0-.365.361v1.298c0 .2.163.361.364.361h2.695c.202 0 .364.162.364.362v.133c0 .2.163.362.364.362h.113c.202 0 .365.161.365.361v2.328c0 .2-.163.361-.365.361h-.113a.362.362 0 0 0-.364.362v.13c0 .2-.162.362-.364.362h-4.904a.362.362 0 0 1-.364-.361v-.638c0-.2.163-.361.364-.361h3.536a.362.362 0 0 0 .364-.362v-1.316c0-.2-.162-.362-.364-.362h-2.694a.362.362 0 0 1-.364-.361v-.131c0-.2-.163-.362-.364-.362h-.114a.362.362 0 0 1-.364-.361v-2.328c0-.2.163-.361.364-.361h.114a.362.362 0 0 0 .364-.362v-.133c0-.2.162-.361.364-.361h4.903c.202 0 .365.16.365.361v.656c0 .2-.163.362-.365.362ZM20.977 20.086v-.057l-6.568-.006v2.154h.047l.757.743 6.51.006V20.83l-.746-.744Zm-.434 1.668-5.702-.007v-1.295l5.704.006v1.296h-.002Z"/></g><defs><clipPath id="clip0_274_21096"><path fill="#fff" d="M0 0h102.222v40H0z"/></clipPath></defs></svg>