<svg width="54" height="54" viewBox="0 0 54 54" fill="none" xmlns="http://www.w3.org/2000/svg">
<path fill-rule="evenodd" clip-rule="evenodd" d="M13.5 0V4.5H18H22.5H27H31.5H36H40.5V0H36H31.5H27H22.5H18H13.5ZM40.5 4.5V9H45V4.5H40.5ZM45 9V13.5H49.5V9H45ZM49.5 13.5V18V22.5V27V31.5V36V40.5H54V36V31.5V27V22.5V18V13.5H49.5ZM49.5 40.5H45V45H49.5V40.5ZM45 45H40.5V49.5H45V45ZM40.5 49.5H36H31.5H27H22.5H18H13.5V54H18H22.5H27H31.5H36H40.5V49.5ZM13.5 49.5V45H9V49.5H13.5ZM9 45V40.5H4.5V45H9ZM4.5 40.5V36V31.5V27V22.5V18V13.5H0V18V22.5V27V31.5V36V40.5H4.5ZM4.5 13.5H9V9H4.5V13.5ZM9 9H13.5V4.5H9V9ZM45 13.5H40.5V18H36V22.5H31.5V27H27V31.5H22.5V27H18V22.5H13.5V27V31.5H18V36H22.5V40.5H27V36H31.5V31.5H36V27H40.5V22.5H45V18V13.5Z" fill="white"></path>
</svg>
