<svg width="54" height="54" fill="none" xmlns="http://www.w3.org/2000/svg"><path fill-rule="evenodd" clip-rule="evenodd" d="M13.5 0v4.5h27V0h-27Zm27 4.5V9H45V4.5h-4.5ZM45 9v4.5h4.5V9H45Zm4.5 4.5v27H54v-27h-4.5Zm0 27H45V45h4.5v-4.5ZM45 45h-4.5v4.5H45V45Zm-4.5 4.5h-27V54h27v-4.5Zm-27 0V45H9v4.5h4.5ZM9 45v-4.5H4.5V45H9Zm-4.5-4.5v-27H0v27h4.5Zm0-27H9V9H4.5v4.5ZM9 9h4.5V4.5H9V9Zm36 4.5h-4.5V18H36v4.5h-4.5V27H27v4.5h-4.5V27H18v-4.5h-4.5v9H18V36h4.5v4.5H27V36h4.5v-4.5H36V27h4.5v-4.5H45v-9Z" fill="#fff"/></svg>